<?xml version="1.0" encoding="utf-8" ?>
<svg baseProfile="full" height="200mm" version="1.1" viewBox="0,0,200,200" width="200mm" xmlns="http://www.w3.org/2000/svg" xmlns:ev="http://www.w3.org/2001/xml-events" xmlns:xlink="http://www.w3.org/1999/xlink"><defs /><rect fill="#1a1a1a" height="200" width="200" x="0" y="0" /><text alignment-baseline="middle" fill="#e1ed5e" style="dominant-baseline: central; font-size:9.0px; font-family:Arial;" text-anchor="middle" x="100.0" y="100.0">2022</text><line stroke="#e1ed5e" stroke-width="0.3" x1="100.0" x2="100.0" y1="15.0" y2="10.0" /><path d="M 100.0 14.0 a86.0,86.0 0 0,1 42.46469731375804,11.215312516191453" fill="none" id="id109" stroke="none" /><text fill="#e1ed5e" style="font-size:6.75px; font-family:Arial;" text-anchor="middle"><textPath startOffset="22.20632615414155" xlink:href="#id109">January</textPath></text><path d="M 100.0 79.0 l 0.0 -2.928644255418316 a23.928644255418316,23.928644255418316 0 0,0 0.4118922758947831,0.0035452868576588146 l -0.050411796622254756 2.9282103451692163" fill="#ff0901" stroke="none" /><path d="M 100.36148047927253 79.00311137660856 l 1.084441437817585 -62.990665870174325 a84.0,84.0 0 0,0 1.4454934592205289,0.03733283143056143 l -2.1685615322329816 62.9626662466014" fill="#4dd2ff" stroke="none" /><path d="M 100.72285384407766 79.0124445844662 l 0.9123406647711964 -26.489172626815645 a47.50487939874155,47.50487939874155 0 0,0 0.8169915571949853,0.03518137504020832 l -1.368173054355513 26.46954352525124" fill="#bdff1f" stroke="none" /><path d="M 101.08401301168833 79.027996857942 l 1.0207823778936365 -19.74870320347951 a40.77506700069914,40.77506700069914 0 0,0 0.7006281730933251,0.04226380473353669 l -1.3605725998265734 19.72820612936567" fill="#fff016" stroke="none" /><path d="M 101.44485096284872 79.0497635885617 l 1.4454702808946829 -20.959216479148033 a42.00900139827546,42.00900139827546 0 0,0 0.7209741066204572,0.05596146665910396 l -1.8060345768774813 20.931229750300464" fill="#ffff18" stroke="none" /><path d="M 101.80526077348638 79.07773832637324 l 0.261136106535272 -3.0264646712572403 a24.03770974131904,24.03770974131904 0 0,0 0.41193179705708516,0.039117887691036884 l -0.31319303068260135 3.0215212390510255" fill="#ff0b01" stroke="none" /><path d="M 102.16513564639614 79.11191278185805 l 2.979760094403994 -28.747154407923798 a49.90117396877184,49.90117396877184 0 0,0 0.8536268201684093,0.09591491942605475 l -3.474153618082129 28.69160353502714" fill="#a1ff22" stroke="none" /><path d="M 102.52436894288641 79.15227682838746 l 3.3253362826086774 -27.462582467472707 a48.663175833139135,48.663175833139135 0 0,0 0.8307158000101574,0.10785075254441688 l -3.7975668111266807 27.401273391764153" fill="#afff20" stroke="none" /><path d="M 102.88285421437855 79.19881850522331 l 3.0649461396117634 -22.115062427991216 a43.32643905849452,43.32643905849452 0 0,0 0.7378513607088146,0.10874011047839507 l -3.4451664807492337 22.059027833351852" fill="#eeff19" stroke="none" /><path d="M 103.2404852339499 79.25152402106235 l 3.04347717396233 -19.487054708603143 a40.723287112561174,40.723287112561174 0 0,0 0.6916574830034147,0.11412941104556414 l -3.3784638631046198 19.431779034617954" fill="#ffef16" stroke="none" /><path d="M 103.59715602781102 79.31037775812273 l 5.328662356866995 -30.64865976502514 a52.10843917501748,52.10843917501748 0 0,0 0.8823816763023308,0.16124961130251572 l -5.855439154272227 30.552394672371886" fill="#88ff25" stroke="none" /><path d="M 103.95276090670814 79.375362276772 l 5.209662746526997 -27.182875297357384 a48.67759554882312,48.67759554882312 0 0,0 0.8215702366131645,0.16479926053309604 l -5.676799392607287 27.08917208074708" fill="#afff20" stroke="none" /><path d="M 104.307194497241 79.44645832069477 l 5.674487127358826 -27.07813816059597 a48.666321952924726,48.666321952924726 0 0,0 0.8184221755410598,0.17887538819459053 l -6.139752027053413 26.97644927430551" fill="#afff20" stroke="none" /><path d="M 104.66035177308747 79.52364482259891 l 6.14143932357212 -26.98386280969701 a48.67392507573993,48.67392507573993 0 0,0 0.815349233533627,0.1929668207002109 l -6.605012244068271 26.87415007685593" fill="#afff20" stroke="none" /><path d="M 105.01212808612495 79.60689891045804 l 4.728843230772778 -19.240485555169297 a40.81308261477511,40.81308261477511 0 0,0 0.6807838126342599,0.17354695212437554 l -5.059335932092063 19.156235606876052" fill="#fff016" stroke="none" /><path d="M 105.36241919743992 79.69619591428918 l 5.7459847214835955 -21.756103685476106 a43.5020974131904,43.5020974131904 0 0,0 0.7223463424369162,0.19744454217917717 l -6.119628953144223 21.653972602470635" fill="#ecff1a" stroke="none" /><path d="M 105.71112130821622 79.79150937346287 l 7.528645213077574 -26.6396996330868 a48.68310125844792,48.68310125844792 0 0,0 0.804452969916303,0.23484188147146395 l -7.986088400717304 26.50615942269663" fill="#afff20" stroke="none" /><path d="M 106.0581310904928 79.89281104454417 l 8.71156356576383 -28.91404165703343 a51.197899673735726,51.197899673735726 0 0,0 0.8416316120887009,0.2614990387287209 l -9.20798055056325 28.759802483422188" fill="#92ff23" stroke="none" /><path d="M 106.40334571778207 80.00007090966166 l 7.206921689885547 -22.50978302749792 a44.63535597762759,44.63535597762759 0 0,0 0.7297183067830545,0.24057665283194787 l -7.59332281891102 22.382392650406736" fill="#dfff1b" stroke="none" /><path d="M 106.74666289553966 80.11325718540242 l 6.372965109727019 -18.785215752714347 a40.836809601491495,40.836809601491495 0 0,0 0.6637303816014639,0.23156249745307683 l -6.695377495391757 18.672732402089064" fill="#fff116" stroke="none" /><path d="M 107.08798089147638 80.2323363322302 l 0.9775559090638988 -2.72630481411908 a23.89626543929154,23.89626543929154 0 0,0 0.3860016945256018,0.14216768169608313 l -1.024339929362077 2.709073864616672" fill="#ff0801" stroke="none" /><path d="M 107.4271985657038 80.35727306442388 l 9.786447435931237 -25.88223715211124 a48.670647867629924,48.670647867629924 0 0,0 0.7810870334173496,0.30304963405079105 l -10.230517634348253 25.7099448141699" fill="#afff20" stroke="none" /><path d="M 107.76421540070413 80.48803036053334 l 15.766611685926913 -39.62250306774933 a63.644211722209285,63.644211722209285 0 0,0 1.0144163938454895,0.41380591752833856 l -16.44631194936079 39.34523626403741" fill="#33ff54" stroke="none" /><path d="M 108.09893153111575 80.62456947434976 l 11.677417882884749 -27.936400998027597 a51.27878116989047,51.27878116989047 0 0,0 0.8114653268319402,0.34742710430213186 l -12.156566967507004 27.731254365762673" fill="#92ff23" stroke="none" /><path d="M 108.43124777332544 80.76684994638697 l 13.373223641625367 -30.50666092552255 a54.30914996504312,54.30914996504312 0 0,0 0.852958513778117,0.3826976219883438 l -13.896364273870265 30.271942973017673" fill="#70ff27" stroke="none" /><path d="M 108.76106565485865 80.91482961587045 l 1.2089049940530674 -2.6334876028388994 a23.89770741085994,23.89770741085994 0 0,0 0.3723738364200211,0.17483450918721893 l -1.2540570417726864 2.6122881110116776" fill="#ff0801" stroke="none" /><path d="M 109.08828744355905 81.06846463323043 l 12.497397497175447 -26.032948911406976 a49.877315893731065,49.877315893731065 0 0,0 0.770791530091095,0.37822405630483824 l -12.943660294276974 25.81396969496731" fill="#a1ff22" stroke="none" /><path d="M 109.41281617654863 81.2277094730956 l 20.661122889738003 -41.205160519819145 a67.09498077371242,67.09498077371242 0 0,0 1.0279574475893358,0.5265597307391368 l -21.367340824916095 40.84340826376751" fill="#38ff7d" stroke="none" /><path d="M 109.73455568895987 81.39251694778311 l 12.175324491852269 -23.272982494138812 a47.265381030062926,47.265381030062926 0 0,0 0.7176571842458266,0.3833476137819119 l -12.574126722626406 23.059956153855147" fill="#bfff1e" stroke="none" /><path d="M 110.05341064243156 81.56283822128135 l 9.497744408089517 -17.41811375393234 a40.83930027965509,40.83930027965509 0 0,0 0.6142929132141307,0.3418533411228383 l -9.796161410375683 17.25204501524932" fill="#fff116" stroke="none" /><path d="M 110.36928655335952 81.73862282372117 l 1.4053788846664648 -2.475016362640447 a23.846189699370775,23.846189699370775 0 0,0 0.35519838362927664,0.20575383026734329 l -1.4477740007610698 2.450458374983054" fill="#ff0801" stroke="none" /><line stroke="#e1ed5e" stroke-width="0.3" x1="143.23703022742887" x2="145.7803849466894" y1="26.81831364943548" y2="22.513508569990506" /><path d="M 143.74570117128098 25.957352633546492 a86.0,86.0 0 0,1 28.547481713284135,27.462654790039103" fill="none" id="id110" stroke="none" /><text fill="#e1ed5e" style="font-size:6.75px; font-family:Arial;" text-anchor="middle"><textPath startOffset="19.985693538727396" xlink:href="#id110">February</textPath></text><path d="M 110.68208982089419 81.91981866633111 l 15.355926429406171 -25.990975459416344 a51.18833022605453,51.18833022605453 0 0,0 0.7547547049983228,0.454731264753455 l -15.801043200622132 25.722797585204273" fill="#93ff23" stroke="none" /><path d="M 110.99172775467656 82.1063720568725 l 14.75447881684911 -24.019076921835822 a49.188840013982755,49.188840013982755 0 0,0 0.7176437379671035,0.4493884428782371 l -15.165741707188477 23.76154413763464" fill="#a9ff21" stroke="none" /><path d="M 111.2981086023043 82.29822771554956 l 14.893228484084654 -23.33457293478201 a48.68231472850151,48.68231472850151 0 0,0 0.7024926963754075,0.45692079082819537 l -15.29268820624434 23.074753219794285" fill="#afff20" stroke="none" /><path d="M 111.60114157652 82.49532879139004 l 26.578426039383665 -40.10351964011877 a69.11138137963178,69.11138137963178 0 0,0 0.985973591638896,0.6657337703658577 l -27.264804325429104 39.64007395745424" fill="#3aff94" stroke="none" /><path d="M 111.90073688211348 82.69761687909136 l 1.9135098832865223 -2.782036224666857 a24.3765730598928,24.3765730598928 0 0,0 0.3436735336523017,0.24076527305209888 l -1.9611145565224748 2.7486861088508223" fill="#ff1001" stroke="none" /><path d="M 112.19680574252982 82.90503203632743 l 16.10713223985656 -22.57565754834046 a48.732652645071084,48.732652645071084 0 0,0 0.678671072026427,0.49308339635418563 l -16.493348628236777 22.295054917169598" fill="#aeff20" stroke="none" /><path d="M 112.48926042617603 83.11751280151076 l 16.46146228276511 -22.25195221926254 a48.67903752039152,48.67903752039152 0 0,0 0.6693456816834781,0.5041372904527412 l -16.84205411820697 21.965298339303953" fill="#afff20" stroke="none" /><path d="M 112.77801427241765 83.33499621200491 l 16.005646577129063 -20.874461019575893 a47.3044453507341,47.3044453507341 0 0,0 0.6419155676761459,0.5010252824672499 l -16.36259469996464 20.595857347885417" fill="#bfff1e" stroke="none" /><path d="M 113.06298171725822 83.55741782278167 l 12.639338308618072 -15.909335502670839 a41.31895245863436,41.31895245863436 0 0,0 0.5530770052855943,0.44721647434670897 l -12.911318712468157 15.689412931060001" fill="#fff717" stroke="none" /><path d="M 113.34407831869373 83.78471172551755 l 1.7360918220749495 -2.109642096935217 a23.732142857142858,23.732142857142858 0 0,0 0.3131992630793648,0.2622953757003521 l -1.7721486221134315 2.0794455638410456" fill="#ff0601" stroke="none" /><path d="M 113.6212207817346 84.01681056812373 l 18.15113150409848 -21.29860295796178 a48.9838178746213,48.9838178746213 0 0,0 0.6370373536912647,0.552432515650741 l -18.51506265643651 20.98300544889137" fill="#abff21" stroke="none" /><path d="M 113.89432698308785 84.25364557470407 l 24.341583477027832 -27.58616528664895 a57.790069331158236,57.790069331158236 0 0,0 0.7402330321975009,0.6645885250840828 l -24.81282749682132 27.16307775279557" fill="#4cff2c" stroke="none" /><path d="M 114.16331599549186 84.49514656593476 l 15.946727012460906 -17.45718765012056 a44.64426998368679,44.64426998368679 0 0,0 0.5629262250197441,0.5231785762395668 l -16.2448611212755 17.18010448780635" fill="#deff1b" stroke="none" /><path d="M 114.42810811169701 84.74124197986012 l 13.544184144729815 -14.32394509693895 a40.713455488231176,40.713455488231176 0 0,0 0.505073207863056,0.48588002579528167 l -13.78874059620529 14.088681984381367" fill="#ffef16" stroke="none" /><path d="M 114.68862486808459 84.99185889309783 l 21.486918468545944 -21.954315480485924 a51.71936902819856,51.71936902819856 0 0,0 0.6308881325218784,0.6281788983852411 l -21.861642401235144 21.581200731450565" fill="#8dff24" stroke="none" /><path d="M 114.94478906791727 85.2469230424477 l 21.485964077980686 -21.210341618680925 a51.19147634584014,51.19147634584014 0 0,0 0.6136535233354735,0.6324238974647776 l -21.84788186501927 20.837353525666032" fill="#93ff23" stroke="none" /><path d="M 115.19652480421416 85.50635884689758 l 20.447729306652498 -19.50196211203581 a49.25661267769751,49.25661267769751 0 0,0 0.5798973458557525,0.6185940563857601 l -20.780393974478713 19.147098638771993" fill="#a8ff21" stroke="none" /><path d="M 115.4437574822437 85.77008943001954 l 13.93017335855633 -12.835290980481165 a39.941869610813335,39.941869610813335 0 0,0 0.46153088889280786,0.5096339349266922 l -14.149047888065173 12.593604258284925" fill="#ffe515" stroke="none" /><path d="M 115.68641384162765 86.03803664274999 l 16.683885308069346 -14.84978005040671 a43.33535306455372,43.33535306455372 0 0,0 0.4911507916233531,0.5614702588246658 l -16.93702796327055 14.560394235379098" fill="#eeff19" stroke="none" /><path d="M 115.9244219780498 86.31012108654704 l 3.130562855944685 -2.6912767375739146 a25.128364600326265,25.128364600326265 0 0,0 0.27915146484200737,0.33042728546842237 l -3.17642493427381 2.6369905024763853" fill="#ff1b02" stroke="none" /><path d="M 116.15771136456269 86.58626213691792 l 27.639829045772913 -22.945911895266367 a56.92318224190166,56.92318224190166 0 0,0 0.6193825227659007,0.759289736297128 l -28.03071006061522 22.46673798936114" fill="#55ff2b" stroke="none" /><path d="M 116.38621287248628 86.86637796730983 l 26.77308308846076 -21.458744413363664 a55.3114512934048,55.3114512934048 0 0,0 0.5890562084855092,0.7480415651820485 l -27.138493377540232 20.994710454228578" fill="#66ff29" stroke="none" /><path d="M 116.60985879189232 87.15038557335679 l 26.317110782640373 -20.359277620424432 a54.27296958750874,54.27296958750874 0 0,0 0.5652763925844349,0.7438374716871751 l -26.663663115448923 19.903255372856226" fill="#71ff27" stroke="none" /><path d="M 116.82858285166822 87.43820079747576 l 25.61968533566974 -19.12397173637443 a52.970213819622465,52.970213819622465 0 0,0 0.5391292912571767,0.7353717473891052 l -25.945077239440543 18.68013754531383" fill="#7fff26" stroke="none" /><path d="M 117.04232023915458 87.72973835380427 l 2.280432320845025 -1.6418833146276988 a23.8100093218364,23.8100093218364 0 0,0 0.23661183180091264,0.3346706561266228 l -2.3083567724498204 1.6023861581692829" fill="#ff0701" stroke="none" /><path d="M 117.2510076193507 88.02491185347247 l 32.366422681369464 -22.46771743132275 a60.40030004660918,60.40030004660918 0 0,0 0.5855249217027282,0.8591855726182693 l -32.74837206874092 21.907253835434073" fill="#32ff2f" stroke="none" /><path d="M 117.45458315368197 88.32363383020206 l 33.91061387780345 -22.68474366838948 a61.79861920298299,61.79861920298299 0 0,0 0.5838597133383894,0.8892583997268521 l -34.296070226499765 22.097667204684953" fill="#31ff3e" stroke="none" /><path d="M 117.65298651832404 88.62581576622439 l 18.079515631273857 -11.649005760814353 a42.50739920764391,42.50739920764391 0 0,0 0.39101221344158726,0.618487419878423 l -18.2773554409614 11.336070693221723" fill="#f8ff18" stroke="none" /><line stroke="#e1ed5e" stroke-width="0.3" x1="172.23445277983987" x2="176.4835382374775" y1="55.19839476539836" y2="52.563006222186495" /><path d="M 173.08426987136738 54.67131705675599 a86.0,86.0 0 0,1 12.851231095245387,41.99856678651699" fill="none" id="id111" stroke="none" /><text fill="#e1ed5e" style="font-size:6.75px; font-family:Arial;" text-anchor="middle"><textPath startOffset="22.20632615414155" xlink:href="#id111">March</textPath></text><path d="M 117.84615892207809 88.93136811851018 l 27.91577848964841 -17.31406052900654 a53.84916103472384,53.84916103472384 0 0,0 0.48178126828407924,0.7919217292040108 l -28.209675556218716 16.83097102659545" fill="#75ff27" stroke="none" /><path d="M 118.03404312379186 89.2402003453031 l 2.4422913754535944 -1.4571644149839114 a23.84396119785598,23.84396119785598 0 0,0 0.20726116376064357,0.3542765135602829 l -2.467012213684565 1.4149084890697332" fill="#ff0801" stroke="none" /><path d="M 118.21658344932153 89.55222093294921 l 30.8100771715494 -17.670540703894847 a56.517726054532744,56.517726054532744 0 0,0 0.4767468239089545,0.848079402893867 l -31.109681636750786 17.137577791066185" fill="#59ff2a" stroke="none" /><path d="M 118.3937258080291 89.86733742301442 l 24.23511311311249 -13.350542802103464 a48.66907480773713,48.66907480773713 0 0,0 0.3979088553818627,0.7372646771407781 l -24.46133006771282 12.931397141630226" fill="#afff20" stroke="none" /><path d="M 118.56541770881063 90.18545643968196 l 37.68321021332799 -19.921098136984654 a63.624810650198086,63.624810650198086 0 0,0 0.5035163498588898,0.9726333218921005 l -38.02053599634699 19.26949209283221" fill="#33ff54" stroke="none" /><path d="M 118.73160827565052 90.50648371742162 l 17.573744875833732 -8.906690267566582 a40.70191971568399,40.70191971568399 0 0,0 0.3113502788523285,0.6276631633147528 l -17.72445516763947 8.602867515752878" fill="#ffef16" stroke="none" /><path d="M 118.89224826269711 90.83032412892265 l 2.566180807397682 -1.2455397527714331 a23.85248193894197,23.85248193894197 0 0,0 0.17610151815097394,0.37091470871231097 l -2.5872405193904124 1.2011826284185818" fill="#ff0801" stroke="none" /><path d="M 119.04729006885535 91.15688171328212 l 25.107052839891445 -11.656494823747844 a48.681003845257514,48.681003845257514 0 0,0 0.3463251991609461,0.763081669206366 l -25.30398035601574 11.222591145699415" fill="#afff20" stroke="none" /><path d="M 119.196687751892 91.48605970444005 l 25.387383084371503 -11.259581164961348 a48.77224131903986,48.77224131903986 0 0,0 0.3337630561590807,0.7703711507597217 l -25.577436850373264 10.820910869615023" fill="#aeff20" stroke="none" /><path d="M 119.34039704204932 91.81776055985345 l 25.492926842324223 -10.785157667680101 a48.68047949195992,48.68047949195992 0 0,0 0.31985002104150917,0.7745421962281085 l -25.674798550251932 10.34474090099869" fill="#afff20" stroke="none" /><path d="M 119.47837535516314 92.15188598940014 l 17.299930443544415 -6.970387623236493 a39.65137788394314,39.65137788394314 0 0,0 0.2496270434445417,0.6352735974431408 l -17.417351036870656 6.671565020897567" fill="#ffe215" stroke="none" /><path d="M 119.61058180528143 92.48833698450437 l 2.662774507868305 -1.0199526453606864 a23.85143323234677,23.85143323234677 0 0,0 0.14355770086802289,0.38466326592788164 l -2.679936797237953 0.9739662424034714" fill="#ff0801" stroke="none" /><path d="M 119.7369772167798 92.82701384747503 l 36.99857760302268 -13.446349048018105 a60.36621708226521,60.36621708226521 0 0,0 0.34652197583015804,0.9796642888229633 l -37.22455265966265 12.807487132768527" fill="#32ff2f" stroke="none" /><path d="M 119.85752413597 93.16781622104841 l 32.36557609364061 -11.13570667064396 a55.22768585411326,55.22768585411326 0 0,0 0.30155028184548377,0.90159696067366 l -32.55246366925787 10.576936607047987" fill="#67ff28" stroke="none" /><path d="M 119.97218684219823 93.5106431181261 l 26.397885717573537 -8.577193008544972 a48.75637963178746,48.75637963178746 0 0,0 0.2524756626796387,0.8004168458909073 l -26.541616864021382 8.121525996227644" fill="#aeff20" stroke="none" /><path d="M 120.08093135843002 93.85539295169968 l 25.316183326051473 -7.746552972306 a47.47486017245397,47.47486017245397 0 0,0 0.23238741243689431,0.783494828766196 l -25.44577663560007 7.309628756793273" fill="#bdff1f" stroke="none" /><path d="M 120.18372546131832 94.20196356495316 l 2.7439992144400134 -0.7882492978590068 a23.85497261710557,23.85497261710557 0 0,0 0.10997509224347464,0.39563891998991874 l -2.7571610772498514 0.7408990744501363" fill="#ff0801" stroke="none" /><path d="M 120.28053869075195 94.5502522615342 l 26.726321066231133 -7.181846104246825 a48.67444942903752,48.67444942903752 0 0,0 0.21046755011190751,0.811017325698188 l -26.845984948213342 6.720732352999787" fill="#afff20" stroke="none" /><path d="M 120.37134235888165 94.90015583598534 l 26.83848226902284 -6.718854101973905 a48.66671521789793,48.66671521789793 0 0,0 0.1964448175964463,0.814390593056917 l -26.950159886880108 6.255878277257582" fill="#afff20" stroke="none" /><path d="M 120.45610955862082 95.25157060432595 l 33.3514198257076 -7.741787940371867 a55.23817292006525,55.23817292006525 0 0,0 0.20702639336005635,0.9280587276368114 l -33.4797406060697 7.166551043185092" fill="#67ff28" stroke="none" /><path d="M 120.53481517161879 95.60439243477599 l 19.760922613298302 -4.229950949588847 a41.208576089489625,41.208576089489625 0 0,0 0.14250456237900763,0.6949028556252681 l -19.830806471592307 3.8891724378001675" fill="#fff517" stroke="none" /><path d="M 120.6074358757038 95.95851677861258 l 3.8929663742202796 -0.7634796671325021 a24.96712596131438,24.96712596131438 0 0,0 0.07907953854134211,0.42244605699088505 l -3.905531636671481 0.6963555326790544" fill="#ff1802" stroke="none" /><path d="M 120.67395015179393 96.31383870115 l 28.468064461442523 -5.075850367271517 a49.91703565602424,49.91703565602424 0 0,0 0.14354270769980745,0.847197186331052 l -28.551219030662555 4.585067392624627" fill="#a1ff22" stroke="none" /><path d="M 120.73433829027371 96.67025291283417 l 27.316327553312732 -4.386754996921104 a48.666321952924726,48.666321952924726 0 0,0 0.1257076739967518,0.8282565077422855 l -27.387791120748783 3.9158993767867356" fill="#afff20" stroke="none" /><path d="M 120.78858239683441 97.02765380044208 l 27.461759218217292 -3.9264753164637254 a48.74104229783267,48.74104229783267 0 0,0 0.11160306303671581,0.8315724497125624 l -27.525278280311845 3.453184524686499" fill="#aeff20" stroke="none" /><path d="M 120.83666639777658 97.38593545837742 l 19.541788666486852 -2.4516156211243176 a40.6949720344908,40.6949720344908 0 0,0 0.08121485297592052,0.6957992632228062 l -19.58109387246636 2.1148726195766585" fill="#ffef16" stroke="none" /><path d="M 120.87857604477298 97.74499172005257 l 2.619379565293519 -0.28290830731920286 a23.634613143789327,23.634613143789327 0 0,0 0.04020458642308249,0.40485469857883816 l -2.62386127739883 0.23777807803592974" fill="#ff0500" stroke="none" /><path d="M 120.91429891909075 98.10471618934814 l 27.57508744294699 -2.498894034655934 a48.68808261477511,48.68808261477511 0 0,0 0.06845432243049138,0.8353161220924695 l -27.614016249196975 2.0238639953556956" fill="#afff20" stroke="none" /><path d="M 120.94382443527127 98.46500227214037 l 27.61336256089894 -2.023816085765195 a48.68742717315311,48.68742717315311 0 0,0 0.0540648584377853,0.8363594303597834 l -27.644108010341142 1.5481975911523762" fill="#afff20" stroke="none" /><path d="M 120.96714384426684 98.82574320788733 l 23.576911750557837 -1.3204158356410411 a44.61385749242601,44.61385749242601 0 0,0 0.036342005927638,0.7671223062485379 l -23.59614736471897 0.9143824227695034" fill="#dfff1b" stroke="none" /><path d="M 120.98425023603335 99.18683210126433 l 19.70129041838061 -0.7634514815490524 a40.71607725471918,40.71607725471918 0 0,0 0.021110909034140132,0.70056829485143 l -19.711513021870395 0.42421303927262327" fill="#ffef16" stroke="none" /><line stroke="#e1ed5e" stroke-width="0.3" x1="184.98032266829074" x2="189.97916517819016" y1="98.17113171792111" y2="98.06355123074" /><path d="M 185.9800911702706 98.14961562048488 a86.0,86.0 0 0,1 -9.607161424134198,41.387399972396054" fill="none" id="id112" stroke="none" /><text fill="#e1ed5e" style="font-size:6.75px; font-family:Arial;" text-anchor="middle"><textPath startOffset="21.466115282336823" xlink:href="#id112">April</textPath></text><path d="M 120.99513854157772 99.54816195383933 l 3.451411843054705 -0.07427810874280787 a24.452211023071545,24.452211023071545 0 0,0 0.0054342045143234395,0.4208851283378401 l -3.4521790546867437 0.014856722344505068" fill="#ff1101" stroke="none" /><path d="M 120.99980553446 99.90962569577887 l 27.676945985655255 -0.11910989996144802 a48.67720228384992,48.67720228384992 0 0,0 -0.0036060597872569254,0.8379212977701761 l -27.674895628578494 -0.3573208760124128" fill="#afff20" stroke="none" /><path d="M 120.99824983174949 100.27111621757518 l 39.367523957751985 0.508288751502913 a60.3708051736192,60.3708051736192 0 0,0 -0.02236001610933513,1.0389820866046098 l -39.35294187895764 -1.1858606538976375" fill="#32ff2f" stroke="none" /><path d="M 120.9904718944345 100.63252640178507 l 19.698483785790856 0.5935936615580084 a40.707425425308784,40.707425425308784 0 0,0 -0.027134149193953603,0.7002118228143848 l -19.6853475037457 -0.9325827313863992" fill="#ffef16" stroke="none" /><path d="M 120.9764740272857 100.99374915477107 l 19.692549284496323 0.9329239118690901 a40.714635283150784,40.714635283150784 0 0,0 -0.039190064350277574,0.6997649253703252 l -19.673572869258518 -1.2717605535748386" fill="#ffef16" stroke="none" /><path d="M 120.95626037817324 101.35467743843564 l 2.8647240030313585 0.1851846132954903 a23.870703216033558,23.870703216033558 0 0,0 -0.03003552981285089,0.4098109409568113 l -2.86111191455417 -0.2344686907490719" fill="#ff0801" stroke="none" /><path d="M 120.92983693683757 101.71520430193887 l 34.040686200888636 2.7896410081414316 a55.15480074574692,55.15480074574692 0 0,0 -0.08568798293273616,0.9455597513982891 l -33.98762362167882 -3.375182148088291" fill="#67ff28" stroke="none" /><path d="M 120.89721153311464 102.0752229133903 l 27.71718178420366 2.7524883232404473 a48.8535160801678,48.8535160801678 0 0,0 -0.0903038598958794,0.8361015889558474 l -27.66569562280673 -3.229186234081086" fill="#adff20" stroke="none" /><path d="M 120.8583938346157 102.4346265915055 l 28.246016526947123 3.296922259972111 a49.43777674201817,49.43777674201817 0 0,0 -0.1059345399800996,0.8444025135650226 l -28.185080477720177 -3.7826425278245286" fill="#a6ff21" stroke="none" /><path d="M 120.81339534386255 102.79330883721812 l 18.307517839895414 2.4570018742659334 a39.47165579119087,39.47165579119087 0 0,0 -0.09617165364296877,0.672624321586112 l -18.262512135235845 -2.771771667832455" fill="#ffdf14" stroke="none" /><path d="M 120.76222939487914 103.15116336523771 l 4.389560879343571 0.6662205281230386 a25.439830459100442,25.439830459100442 0 0,0 -0.0694364976791379,0.43238113733030464 l -4.377442627303145 -0.7416808951465482" fill="#ff1f03" stroke="none" /><path d="M 120.70491114924044 103.5080841355445 l 27.453463147737335 4.651507936457192 a48.844733162433,48.844733162433 0 0,0 -0.14758914724520875,0.8277583170452026 l -27.36932755815294 -5.1233850042356135" fill="#adff20" stroke="none" /><path d="M 120.64145759157962 103.86396538481128 l 27.203755057954137 5.092390758475284 a48.67628466557912,48.67628466557912 0 0,0 -0.16125773269904725,0.822249704878442 l -27.112067392279428 -5.559904190421672" fill="#afff20" stroke="none" /><path d="M 120.5718875245553 104.21870165774334 l 24.663946343022744 5.057865069484042 a46.17721684921929,46.17721684921929 0 0,0 -0.1663830239012391,0.7772860959058026 l -24.57322928039706 -5.481664984806014" fill="#ccff1d" stroke="none" /><path d="M 120.49622156327973 104.57218783832717 l 21.790712135553573 4.860955894093273 a43.32630797017012,43.32630797017012 0 0,0 -0.168641328276204,0.7265024284602656 l -21.703810241346815 -5.235326979902103" fill="#eeff19" stroke="none" /><path d="M 120.41448212921028 104.9243191809786 l 3.0888568619323364 0.7450846411992319 a24.177449895129342,24.177449895129342 0 0,0 -0.10107174047573446,0.40373136155172423 l -3.075573807161541 -0.7981438421483521" fill="#ff0d01" stroke="none" /><path d="M 120.32669344350535 105.2749913415812 l 38.105825283441234 9.888863576981993 a60.36805231880681,60.36805231880681 0 0,0 -0.26967824359654774,1.003573067191825 l -37.92995896350291 -10.543327577349366" fill="#32ff2f" stroke="none" /><path d="M 120.23288151984713 105.62410040840565 l 25.2950592916566 7.031225540133846 a47.25410743416453,47.25410743416453 0 0,0 -0.22458608853832995,0.7818136371287535 l -25.17028056623217 -7.465596652767181" fill="#bfff1e" stroke="none" /><path d="M 120.13307415673323 105.97154293290107 l 25.555479689128852 7.579848111942585 a47.65589314845025,47.65589314845025 0 0,0 -0.24003417273402192,0.7844455647790702 l -25.421218743888698 -8.018620649273712" fill="#bbff1f" stroke="none" /><path d="M 120.02730092923936 106.31721596034902 l 17.57456164499582 5.5435478655945865 a39.428134467490096,39.428134467490096 0 0,0 -0.20973467371390686,0.6454969524641191 l -17.47653472026567 -5.8452437180365004" fill="#ffdf14" stroke="none" /><path d="M 119.9155931802556 106.66101706037122 l 15.282053429579152 5.1112722423377415 a37.11416336518295,37.11416336518295 0 0,0 -0.20785551969601676,0.6041254352486953 l -15.191807078939904 -5.373570380675737" fill="#ffc111" stroke="none" /><path d="M 119.79798401119884 107.00284435728193 l 26.151693735803605 9.250246934614418 a48.73946923793988,48.73946923793988 0 0,0 -0.2865781896365545,0.7885400974448561 l -25.98859128516182 -9.699034829065406" fill="#aeff20" stroke="none" /><path d="M 119.67450827220406 107.3425965602758 l 26.047664918174416 9.72108131930344 a48.80252272197623,48.80252272197623 0 0,0 -0.3004973980104472,0.7845038833347232 l -25.876473240570462 -10.168008769471307" fill="#aeff20" stroke="none" /><path d="M 119.54520255179757 107.68017299344265 l 36.77609421949263 14.450951064862359 a60.5134292705663,60.5134292705663 0 0,0 -0.3892955284177949,0.966199575639051 l -36.52189607681744 -15.081850008344222" fill="#31ff2f" stroke="none" /><path d="M 119.41010516605496 108.01547362559984 l 17.277825597851844 7.134941011524811 a39.693063971102305,39.693063971102305 0 0,0 -0.26622519589527016,0.6292777214448834 l -17.152449420764263 -7.431293258635858" fill="#ffe215" stroke="none" /><path d="M 119.26925614724726 108.34839909993367 l 3.1129628609554 1.3486901698714293 a24.392565835469586,24.392565835469586 0 0,0 -0.17023561854606833,0.383836378930598 l -3.0892861576780586 -1.4020748852947151" fill="#ff1001" stroke="none" /><path d="M 119.12269723197855 108.67885076344098 l 25.213373705985987 11.443108939213102 a48.688606968072705,48.688606968072705 0 0,0 -0.35293532624998686,0.7601912941418637 l -25.012663762896167 -11.875420300633795" fill="#afff20" stroke="none" /><path d="M 118.97047184881838 109.00673069616215 l 25.107280862268656 11.920342258299973 a48.79334653926824,48.79334653926824 0 0,0 -0.3667557547663425,0.7556254842849305 l -24.8983718508876 -12.350756698550178" fill="#aeff20" stroke="none" /><path d="M 118.81262510543309 109.33194174019688 l 41.26010873829734 20.46694327782996 a67.05748951293404,67.05748951293404 0 0,0 -0.5218392446189045,1.0296383365350632 l -40.90169082389217 -21.174135826067715" fill="#37ff7c" stroke="none" /><path d="M 118.64920377521936 109.65438752849418 l 9.381217870206239 4.856502931699054 a31.56375262176649,31.56375262176649 0 0,0 -0.25393413506940016,0.4803476859739158 l -9.296231226911946 -5.017265632759104" fill="#ff760a" stroke="none" /><line stroke="#e1ed5e" stroke-width="0.3" x1="174.80103733775053" x2="179.2010983576182" y1="140.37084112569926" y2="142.7455964860345" /><path d="M 175.68104954172406 140.8457921977663 a86.0,86.0 0 0,1 -30.038265399797805,32.042727171017184" fill="none" id="id113" stroke="none" /><text fill="#e1ed5e" style="font-size:6.75px; font-family:Arial;" text-anchor="middle"><textPath startOffset="22.206326154141568" xlink:href="#id113">May</textPath></text><path d="M 118.48025628344425 109.97397251340804 l 2.3152616581761216 1.249569041998824 a23.63094267070613,23.63094267070613 0 0,0 -0.19627589850809987,0.3562977679808033 l -2.2934093502165123 -1.2892373283774323" fill="#ff0400" stroke="none" /><path d="M 118.30583269289576 110.29060199501025 l 24.127192008672864 13.563072184899816 a48.67811990212071,48.67811990212071 0 0,0 -0.4168886997834065,0.7268805877254492 l -23.89015131273708 -13.97637261848358" fill="#afff20" stroke="none" /><path d="M 118.12598468904814 110.60418214915192 l 23.884267624262264 13.972930504558951 a48.671303309251925,48.671303309251925 0 0,0 -0.42927886559836276,0.7194960708170713 l -23.640207882965672 -14.381988669262126" fill="#afff20" stroke="none" /><path d="M 117.94076556474637 110.91462005526583 l 23.668317790059948 14.399089887970748 a48.7042064786763,48.7042064786763 0 0,0 -0.44189873957621545,0.7124814718186939 l -23.41695441081577 -14.804367691154715" fill="#afff20" stroke="none" /><path d="M 117.75023020441432 111.22182372390056 l 16.656020729358616 10.530056591604808 a40.705459100442795,40.705459100442795 0 0,0 -0.37952052027957556,0.5890242755192995 l -16.47229534570199 -10.81520246704556" fill="#ffef16" stroke="none" /><path d="M 117.55443506779139 111.5257021239791 l 3.073392235074731 2.0178948097632206 a24.676634234444187,24.676634234444187 0 0,0 -0.23618699285898906,0.35306750805217746 l -3.0382021368050207 -2.070499232021205" fill="#ff1402" stroke="none" /><path d="M 117.35343817320211 111.8261652097733 l 32.53163035306674 22.169925709174457 a60.36765905383361,60.36765905383361 0 0,0 -0.5925778321001294,0.8536525636833701 l -32.14519161380447 -22.726619535044847" fill="#32ff2f" stroke="none" /><path d="M 117.14729908036423 112.12312394758627 l 21.422920476468146 15.145984159855836 a47.236279422046145,47.236279422046145 0 0,0 -0.4751074641394584,0.6598827136166001 l -21.159033219953084 -15.512500478923567" fill="#c0ff1e" stroke="none" /><path d="M 116.93607887273984 112.41649034213515 l 16.955390411887937 12.430648373703477 a42.02394546725705,42.02394546725705 0 0,0 -0.4327240350625806,0.579704559717489 l -16.738905110130265 -12.720665812930282" fill="#feff18" stroke="none" /><path d="M 116.71984013943494 112.70617746262583 l 17.011937756146608 12.928155909991174 a42.36687252388721,42.36687252388721 0 0,0 -0.44625063705118945,0.5768391035799025 l -16.78688030187735 -13.21907300768433" fill="#faff18" stroke="none" /><path d="M 116.498646956653 112.99209946851258 l 2.1577334977829667 1.6991386204814503 a23.74643148450245,23.74643148450245 0 0,0 -0.25564965767917464,0.318962255886631 l -2.1281659280489382 -1.7360287099463316" fill="#ff0601" stroke="none" /><path d="M 116.27256486870786 113.27417163493432 l 21.47475953485532 17.51780657717835 a48.71351374970869,48.71351374970869 0 0,0 -0.5356259611451719,0.645195975043573 l -21.170037573816604 -17.884863809335698" fill="#afff20" stroke="none" /><path d="M 116.0416608686014 113.55231037782055 l 21.1435013010727 17.862445444588953 a48.678775343742714,48.678775343742714 0 0,0 -0.5462627635559171,0.6354270050710019 l -20.832896027946006 -18.223749548821484" fill="#afff20" stroke="none" /><path d="M 115.80600337817218 113.82643327865902 l 26.005649667878217 22.748658936619808 a55.55134292705664,55.55134292705664 0 0,0 -0.6357749363175447,0.7142998807565863 l -25.610215881912335 -23.192932987117263" fill="#63ff29" stroke="none" /><path d="M 115.56566222782051 114.09645910891815 l 13.68460192954805 12.392947289895474 a39.46221743183407,39.46221743183407 0 0,0 -0.46030532897055193,0.4995705231909514 l -13.469250192581777 -12.626669067887761" fill="#ffdf14" stroke="none" /><path d="M 115.32070863581623 114.36230785411682 l 2.057331900075401 1.9286336428265216 a23.819972034490796,23.819972034490796 0 0,0 -0.28299652233055866,0.29672072225840435 l -2.023828826365878 -1.9637614816674331" fill="#ff0701" stroke="none" /><path d="M 115.07121518719521 114.62390073753431 l 19.85040028248052 19.261239370927075 a48.659243183407135,48.659243183407135 0 0,0 -0.588450999244227,0.5960977554589538 l -19.51590865818076 -19.600077620366694" fill="#afff20" stroke="none" /><path d="M 114.81725581225074 114.88116024355365 l 19.5174810523247 19.601656795992636 a48.661471684921935,48.661471684921935 0 0,0 -0.5986520727268344,0.5859070527223185 l -19.177179027222074 -19.934713951637526" fill="#afff20" stroke="none" /><path d="M 114.55890576462653 115.13401014063108 l 19.176179335403994 19.933674770097586 a48.66002971335353,48.66002971335353 0 0,0 -0.6086307668179292,0.5754983788433955 l -18.830212734195257 -20.260807785686904" fill="#afff20" stroke="none" /><path d="M 114.29624159901734 115.38237550388516 l 13.492324910405285 14.517382541054946 a40.819112677697504,40.819112677697504 0 0,0 -0.5187923601923957,0.4739045205876174 l -13.240433000746025 -14.747479828229146" fill="#fff016" stroke="none" /><path d="M 114.0293411484842 115.62618273729858 l 1.8263843945694347 2.0342663276939374 a23.733847005360055,23.733847005360055 0 0,0 -0.30634479646418694,0.2703136647809138 l -1.79109724519866 -2.06540313424714" fill="#ff0601" stroke="none" /><path d="M 113.75828350139079 115.86535959552629 l 20.629523983970234 23.78892804884682 a52.48793987415522,52.48793987415522 0 0,0 -0.6876783010822997,0.586054367044469 l -20.216980206310886 -24.140506806114235" fill="#84ff25" stroke="none" /><path d="M 113.48314897796784 116.09983520530334 l 17.758410786956723 21.20480072164685 a48.658718830109535,48.658718830109535 0 0,0 -0.6467667586775473,0.5322450107348708 l -17.390773899734484 -21.5073408512389" fill="#afff20" stroke="none" /><path d="M 113.20401910651253 116.32954008644616 l 18.171736219337426 22.47316462058427 a49.900780703798645,49.900780703798645 0 0,0 -0.6725734326554664,0.5343330116643684 l -17.78220529396461 -22.782631546253764" fill="#a1ff22" stroke="none" /><path d="M 112.92097659922987 116.55440617244103 l 12.12107794136565 15.52957285760753 a40.699953390817996,40.699953390817996 0 0,0 -0.5559832085466428,0.4263042159733158 l -11.851966004325513 -15.735916415408216" fill="#ffef16" stroke="none" /><path d="M 112.63410532772338 116.77436683061366 l 1.7225887773920545 2.287090007621416 a23.863231181542766,23.863231181542766 0 0,0 -0.3302387445586995,0.24430272833117242 l -1.6829650624147907 -2.3164026846923575" fill="#ff0801" stroke="none" /><path d="M 112.34349029814194 116.9893568818739 l 17.75858693000234 24.442597983570895 a51.21271265439292,51.21271265439292 0 0,0 -0.7176429429007355,0.5120191851577599 l -17.33521665925272 -24.744661430572872" fill="#92ff23" stroke="none" /><path d="M 112.04921762599082 117.19931262002967 l 24.302894272814193 34.69047444773726 a63.35634176182708,63.35634176182708 0 0,0 -0.8985833432971382,0.6180538172401532 l -23.702154044894172 -35.10366905434251" fill="#33ff51" stroke="none" /><path d="M 111.7513745106137 117.40417183066458 l 13.219049278921476 19.57784639410297 a44.62277149848521,44.62277149848521 0 0,0 -0.6402842888018475,0.4243455129827338 l -12.880090291379664 -19.80248992817702" fill="#dfff1b" stroke="none" /><path d="M 111.45004920935366 117.60387380957326 l 11.934409124679272 18.34855277748914 a42.88834187835004,42.88834187835004 0 0,0 -0.6223265833507614,0.3971982698576508 l -11.61680073928158 -18.5512654761706" fill="#f4ff19" stroke="none" /><path d="M 111.1453310114006 117.79835938074945 l 1.5168199223700505 2.4222614892825893 a23.857987648566766,23.857987648566766 0 0,0 -0.3499407830246015,0.2149622105416636 l -1.4748999394131401 -2.448012166652631" fill="#ff0801" stroke="none" /><line stroke="#e1ed5e" stroke-width="0.3" x1="143.8653032363475" x2="146.44561519142675" y1="172.8068346515853" y2="177.08958963109032" /><path d="M 144.38136562736335 173.6633856474863 a86.0,86.0 0 0,1 -40.68145358897372,12.25698825130547" fill="none" id="id114" stroke="none" /><text fill="#e1ed5e" style="font-size:6.75px; font-family:Arial;" text-anchor="middle"><textPath startOffset="21.466115282336833" xlink:href="#id114">June</textPath></text><path d="M 110.8373102113329 117.98757091392108 l 20.310350381163584 33.710751159058184 a60.35638545793521,60.35638545793521 0 0,0 -0.8945164925287987,0.5284961109139953 l -19.727066017606404 -34.05536584226593" fill="#32ff2f" stroke="none" /><path d="M 110.5260780823613 118.17145234162733 l 14.01667216229604 24.197358996622597 a48.96389244931251,48.96389244931251 0 0,0 -0.7329457127513894,0.41618570440831326 l -13.598077682623451 -24.43504786682554" fill="#acff21" stroke="none" /><path d="M 110.21172684928248 118.3499491758327 l 12.123663364299984 21.785600990242013 a45.93181950594267,45.93181950594267 0 0,0 -0.6941767485977541,0.3785205117707761 l -11.746863803833582 -21.99106215377256" fill="#cfff1d" stroke="none" /><path d="M 109.89434966115114 118.52300852407294 l 11.278264050534608 21.11380619234078 a44.93725238872058,44.93725238872058 0 0,0 -0.6854195597890557,0.3585791187526582 l -10.913153588219057 -21.304814730038153" fill="#dbff1b" stroke="none" /><path d="M 109.57404056367764 118.69057910512821 l 1.4948780459470952 2.9183223305209336 a24.27891225821487,24.27891225821487 0 0,0 -0.3736016962835838,0.1873316463605794 l -1.444422441980751 -2.943621817790815" fill="#ff0e01" stroke="none" /><path d="M 109.2508944713604 118.85261126421891 l 12.18372322077754 24.82949063393415 a48.657670123514336,48.657670123514336 0 0,0 -0.7550913475179464,0.3624897336342353 l -11.754519205259362 -25.035534644067944" fill="#afff20" stroke="none" /><path d="M 108.92500713936063 119.00905698771935 l 11.755243468831027 25.037077227428714 a48.65937427173153,48.65937427173153 0 0,0 -0.7612457978188202,0.3494506090300285 l -11.322529675244787 -25.235714906792815" fill="#afff20" stroke="none" /><path d="M 108.59647513512805 119.15986991738527 l 9.667975805175773 21.54803636139835 a44.61752796550921,44.61752796550921 0 0,0 -0.7034257646314092,0.30836118343673075 l -9.29562936588661 -21.711262098129534" fill="#dfff1b" stroke="none" /><path d="M 108.2653958097858 119.30500536409082 l 8.26285045201903 19.29906031965836 a41.993532975996274,41.993532975996274 0 0,0 -0.6669543697156798,0.27878698063275514 l -7.9294246228058896 -19.43843234331109" fill="#ffff18" stroke="none" /><path d="M 107.93186726928326 119.44442032107085 l 1.0795837255267597 2.646524332577083 a23.858249825215566,23.858249825215566 0 0,0 -0.38159444184846364,0.15184430362325788 l -1.0338682076364298 -2.66471548060641" fill="#ff0801" stroke="none" /><path d="M 107.59598834532513 119.57807347666477 l 11.873884376797468 30.604020203036864 a53.82674493125146,53.82674493125146 0 0,0 -0.8666869228950979,0.3277068347868827 l -11.345327233142097 -30.803875287930378" fill="#76ff27" stroke="none" /><path d="M 107.2578585660854 119.70592522655815 l 10.484880638814095 28.467663291666646 a51.33711547424843,51.33711547424843 0 0,0 -0.8318579147418712,0.2982746521394554 l -9.993303163442489 -28.64392548484606" fill="#91ff24" stroke="none" /><path d="M 106.91757812671514 119.82793768551818 l 3.457076192987111 9.909059221740481 a31.494800163132137,31.494800163132137 0 0,0 -0.5134106357587472,0.17417676281841304 l -3.285995824291137 -9.967098971457016" fill="#ff750a" stroke="none" /><path d="M 106.57524785965236 119.94407469862006 l 9.101739292624295 27.60744115113275 a50.069098112328135,50.069098112328135 0 0,0 -0.8208438928867651,0.2628082931065614 l -8.625174054646589 -27.76002229089902" fill="#9fff22" stroke="none" /><path d="M 106.2309692047433 120.05430185196036 l 5.45533935300927 17.55794620311128 a39.385924027033326,39.385924027033326 0 0,0 -0.6491644743119735,0.1955879309328145 l -5.152299904257051 -17.649249503149818" fill="#ffde14" stroke="none" /><path d="M 105.88484417918355 120.15858648285463 l 0.7445076300449013 2.5503175598928918 a23.65676707061291,23.65676707061291 0 0,0 -0.3918786632035972,0.11074882459150208 l -0.7004977987366984 -2.562755177822913" fill="#ff0500" stroke="none" /><path d="M 105.53697534728816 120.25689768951611 l 8.009634301369037 29.30306392870915 a51.3780150314612,51.3780150314612 0 0,0 -0.8551003468033445,0.2258397734768745 l -7.504043511754194 -29.436595051489608" fill="#90ff24" stroke="none" /><path d="M 105.18746579009965 120.34920634021253 l 6.834227556422781 26.809064839913283 a48.66645304124913,48.66645304124913 0 0,0 -0.8135332611109176,0.19994668241515834 l -6.371741010568652 -26.92273278064247" fill="#afff20" stroke="none" /><path d="M 104.83641907484287 120.43548508189849 l 6.375001572084967 26.936509741487708 a48.680610580284316,48.680610580284316 0 0,0 -0.8170921116572797,0.18596750438967352 l -5.910389311034826 -27.042253979455065" fill="#afff20" stroke="none" /><path d="M 104.48393922423573 120.51570834832081 l 5.334409053209127 24.406927675281803 a45.983075040783035,45.983075040783035 0 0,0 -0.7747240275791757,0.16235095247984382 l -4.913493564200573 -24.495134608488186" fill="#ceff1d" stroke="none" /><path d="M 104.13013068566511 120.58985236759428 l 0.6036484993975939 3.0093559817986093 a24.06930202749942,24.06930202749942 0 0,0 -0.4069229387817729,0.07798774970228366 l -0.5517579460441167 -3.0193009298493614" fill="#ff0b01" stroke="none" /><path d="M 103.7750983002368 120.6578951692458 l 4.973503802361957 27.215746982427916 a48.66645304124913,48.66645304124913 0 0,0 -0.8253622526403838,0.14349980717404037 l -4.504292578249524 -27.297325368122962" fill="#afff20" stroke="none" /><path d="M 103.41894727170886 120.7198165907248 l 4.5052956568802776 27.303404316876364 a48.67261419249593,48.67261419249593 0 0,0 -0.8278148673323162,0.12928765740470027 l -4.034644925939444 -27.37691028162817" fill="#afff20" stroke="none" /><path d="M 103.06178313531738 120.77559828337769 l 3.2695877644160354 22.185647690790248 a43.425279655092055,43.425279655092055 0 0,0 -0.7404452887716515,0.10261897007091375 l -2.8872138844575534 -22.238641226353764" fill="#edff1a" stroke="none" /><path d="M 102.70371172650421 120.8252237178851 l 2.542999661195077 19.587345921440654 a40.75173327895595,40.75173327895595 0 0,0 -0.6964133112829403,0.08432595348393106 l -2.2054589268607563 -19.628217403649938" fill="#fff016" stroke="none" /><path d="M 102.34483914955558 120.86867818915974 l 0.3154168535916537 2.8071575034428564 a23.82482230249359,23.82482230249359 0 0,0 -0.4079347376971689,0.042284103506822296 l -0.26704951928888215 -2.812170975405437" fill="#ff0701" stroke="none" /><path d="M 101.98527174616119 120.90594882070398 l 2.6360559792778053 27.759046839735767 a48.88392857142857,48.88392857142857 0 0,0 -0.8383726021960286,0.07233831580540723 l -2.157839059340235 -27.80030940781984" fill="#adff20" stroke="none" /><path d="M 101.62511606390274 120.93702456842531 l 2.1407456376789753 27.580087974268324 a48.66304474481473,48.66304474481473 0 0,0 -0.8357002908981602,0.05763478493722056 l -1.6656825860018845 -27.612851103721827" fill="#afff20" stroke="none" /><path d="M 101.26447882468166 120.96189622390904 l 1.1875958642161895 19.687369037524647 a40.72315602423678,40.72315602423678 0 0,0 -0.700073581743284,0.03618580765072668 l -0.8485342140594259 -19.704894651937575" fill="#ffef16" stroke="none" /><path d="M 100.90346689309514 120.98055641714683 l 0.8897661516827233 20.662394035816796 a41.6815427639245,41.6815427639245 0 0,0 -0.7170806243527897,0.024697706596328788 l -0.5339651756552813 -20.674648540839218" fill="#fffb17" stroke="none" /><line stroke="#e1ed5e" stroke-width="0.3" x1="102.19456741930631" x2="102.32365962044197" y1="184.97166512339345" y2="189.96999836594603" /><path d="M 102.22038585953345 185.97133177190398 a86.0,86.0 0 0,1 -42.740103519485714,-10.115201625700543" fill="none" id="id115" stroke="none" /><text fill="#e1ed5e" style="font-size:6.75px; font-family:Arial;" text-anchor="middle"><textPath startOffset="22.20632615414155" xlink:href="#id115">July</textPath></text><path d="M 100.54218724476979 120.99299961872073 l 0.06973415698494885 2.700043472284944 a23.70094383593568,23.70094383593568 0 0,0 -0.4079274518998596,0.007022841024974789 l -0.0232470151924213 -2.7008437905890785" fill="#ff0600" stroke="none" /><path d="M 100.18074693466247 120.99922214144158 l 0.2715028878289799 31.54327050807625 a52.54443894197157,52.54443894197157 0 0,0 -0.904499644982849,0.0 l 0.2715028878289582 -31.54327050807625" fill="#84ff25" stroke="none" /><path d="M 99.81925306533755 120.99922214144158 l -0.23809574005025752 27.662020081190594 a48.66304474481473,48.66304474481473 0 0,0 -0.8375612373015624,-0.014419376266184749 l 0.7142166672444878 -27.653823227645248" fill="#afff20" stroke="none" /><path d="M 99.45781275523022 120.99299961872073 l -0.6105326302014935 23.6392711128399 a44.64715392682358,44.64715392682358 0 0,0 -0.768100384257662,-0.026454930286318293 l 1.0173533661337986 -23.62525938412749" fill="#deff1b" stroke="none" /><path d="M 99.09653310690486 120.98055641714683 l -1.0185264263205924 23.652500510081115 a44.67442029829877,44.67442029829877 0 0,0 -0.767999941161737,-0.039696824550136435 l 1.4255144358958183 -23.631463878768777" fill="#deff1b" stroke="none" /><path d="M 98.37488393609728 120.93702456842531 l -2.146822171551416 27.658374406729664 a48.74156665113027,48.74156665113027 0 0,0 -0.8359310567420924,-0.07212764899015414 l 2.6225975460350504 -27.617322505460844" fill="#aeff20" stroke="none" /><path d="M 98.01472825383883 120.90594882070398 l -2.6164012139711756 27.552071891153794 a48.67602248893032,48.67602248893032 0 0,0 -0.8334433816148772,-0.08638981424876316 l 3.090277192191646 -27.50295270844927" fill="#afff20" stroke="none" /><path d="M 97.65516085044442 120.86867818915974 l -2.392712526006792 21.294743272207388 a42.42874621300396,42.42874621300396 0 0,0 -0.7250720709599684,-0.08779613016821215 l 2.75891202001815 -21.250401613313826" fill="#f9ff18" stroke="none" /><path d="M 97.2962882734958 120.8252237178851 l -4.102452959318594 31.598968126817766 a52.86416336518295,52.86416336518295 0 0,0 -0.901387878661932,-0.12492414651748197 l 4.645769429167356 -31.523669414807678" fill="#80ff25" stroke="none" /><path d="M 96.93821686468263 120.77559828337769 l -0.42259808884668637 2.867521225761754 a23.89849394080634,23.89849394080634 0 0,0 -0.40646118806786585,-0.06348087827967211 l 0.4718951405230693 -2.8598220401349765" fill="#ff0801" stroke="none" /><path d="M 96.58105272829116 120.7198165907248 l -4.508070129688726 27.320218430449593 a48.68965567466792,48.68965567466792 0 0,0 -0.8257557593907009,-0.14356822336658073 l 4.977674860551477 -27.238571628562006" fill="#afff20" stroke="none" /><path d="M 96.22490169976321 120.6578951692458 l -4.973998673672562 27.218454991291285 a48.66920589606153,48.66920589606153 0 0,0 -0.8228163936276214,-0.15769472015825142 l 5.441782681871878 -27.128803072784567" fill="#afff20" stroke="none" /><path d="M 95.86986931433489 120.58985236759428 l -5.444463959907982 27.142169990957754 a48.682839081799116,48.682839081799116 0 0,0 -0.8202097213809372,-0.1718829218651242 l 5.910865142718306 -27.04443108836609" fill="#afff20" stroke="none" /><path d="M 95.51606077576429 120.51570834832081 l -3.946128131453022 18.05502032953928 a39.48122523887206,39.48122523887206 0 0,0 -0.6626826844754459,-0.15082442147701863 l 4.256330965321331 -17.98441917448457" fill="#ffe014" stroke="none" /><path d="M 95.16358092515715 120.4354850818985 l -0.6660904512450762 2.8144545104491554 a23.892201701235145,23.892201701235145 0 0,0 -0.39939423464148927,-0.09816138566142672 l 0.714437970629776 -2.802571866473699" fill="#ff0801" stroke="none" /><path d="M 94.81253420990036 120.34920634021253 l -8.115151401965166 31.833827352812715 a53.85191388953624,53.85191388953624 0 0,0 -0.8962742179659821,-0.2367141670744191 l 8.661916062742637 -31.689421836434715" fill="#75ff27" stroke="none" /><path d="M 94.46302465271185 120.25689768951611 l -7.305507338529731 26.727031537007942 a48.7074836867863,48.7074836867863 0 0,0 -0.8068483549850439,-0.22802340450915462 l 7.764486861619389 -26.597319339160265" fill="#afff20" stroke="none" /><path d="M 94.11515582081647 120.15858648285463 l -7.123939195704704 24.403117568209836 a46.42169657422512,46.42169657422512 0 0,0 -0.7651290911086106,-0.23052711870138431 l 7.542943261253561 -24.276875080402725" fill="#c9ff1d" stroke="none" /><path d="M 93.76903079525671 120.05430185196036 l -8.217898370430849 26.4492102422681 a48.696472267536706,48.696472267536706 0 0,0 -0.7983407605278029,-0.25560350075071975 l 8.671960476049591 -26.303833894857675" fill="#afff20" stroke="none" /><path d="M 93.42475214034765 119.94407469862007 l -0.9097142288760621 2.7593497496018378 a23.905441621999536,23.905441621999536 0 0,0 -0.3896931530815552,-0.1322050755647769 l 0.9570771148948432 -2.743281687138938" fill="#ff0901" stroke="none" /><path d="M 93.08242187328487 119.8279376855182 l -9.11758019421005 26.13383016743145 a48.67864425541832,48.67864425541832 0 0,0 -0.7887804978658561,-0.2828286230687963 l 9.566080252705632 -25.973014003322696" fill="#afff20" stroke="none" /><path d="M 92.7421414339146 119.70592522655815 l -9.563905577235552 25.96710950796567 a48.672352015847125,48.672352015847125 0 0,0 -0.7836938877236279,-0.29632597031676156 l 10.009469685719463 -25.798635287542275" fill="#afff20" stroke="none" /><path d="M 92.40401165467489 119.57807347666478 l -9.511976325119509 24.516384561871643 a47.2969733162433,47.2969733162433 0 0,0 -0.7564788811398453,-0.3010185587503802 l 9.932576282301213 -24.349019158715198" fill="#bfff1e" stroke="none" /><path d="M 92.06813273071674 119.44442032107085 l -7.5744156651821966 18.568152602686535 a41.053629690048936,41.053629690048936 0 0,0 -0.6520265329930319,-0.2725471436720059 l 7.892913657672691 -18.435020415994554" fill="#fff316" stroke="none" /><path d="M 91.7346041902142 119.30500536409082 l -1.1247213640105573 2.6269464239842684 a23.857594383593568,23.857594383593568 0 0,0 -0.37613125013377957,-0.1648848865801248 l 1.1697732888020802 -2.6071969841096916" fill="#ff0801" stroke="none" /><path d="M 91.40352486487194 119.15986991738527 l -12.90040085208485 28.752482653972113 a52.51389536238639,52.51389536238639 0 0,0 -0.8215473949268961,-0.3771321146557789 l 13.393416242779166 -28.526163468982258" fill="#84ff25" stroke="none" /><path d="M 91.07499286063937 119.00905698771935 l -11.764436044932973 25.05665617008469 a48.681003845257514,48.681003845257514 0 0,0 -0.7554534505809966,-0.3626635651094713 l 12.194002163514211 -24.850438328475658" fill="#afff20" stroke="none" /><path d="M 90.7491055286396 118.85261126421891 l -12.187880995367651 24.837963858692515 a48.66710848287113,48.66710848287113 0 0,0 -0.7488850443151897,-0.37550650781813466 l 12.613619947365603 -24.624489509965077" fill="#afff20" stroke="none" /><path d="M 90.42595943632237 118.69057910512821 l -10.207340222263943 19.926915768560036 a43.38909927755768,43.38909927755768 0 0,0 -0.6618058680848944,-0.34622555130503385 l 10.548836992875332 -19.748260798310287" fill="#eeff19" stroke="none" /><path d="M 90.10565033884886 118.52300852407294 l -2.4841901512373887 4.650601294945008 a26.27250349568865,26.27250349568865 0 0,0 -0.39706158498252264,-0.2165096348382453 l 2.563874548088552 -4.607151008346997" fill="#ff2b04" stroke="none" /><line stroke="#e1ed5e" stroke-width="0.3" x1="58.666819895761336" x2="56.23545636021788" y1="174.27360380694188" y2="178.64263932499728" /><path d="M 58.180547188652646 175.14741091055294 a86.0,86.0 0 0,1 -31.652253787137756,-30.449443065178592" fill="none" id="id116" stroke="none" /><text fill="#e1ed5e" style="font-size:6.75px; font-family:Arial;" text-anchor="middle"><textPath startOffset="22.20632615414155" xlink:href="#id116">August</textPath></text><path d="M 89.7882731507175 118.34994917583269 l -15.33684116558538 27.5595166282855 a52.53958867396877,52.53958867396877 0 0,0 -0.7864706897673647,-0.446578583274075 l 15.80896062227395 -27.29143487921679" fill="#84ff25" stroke="none" /><path d="M 89.4739219176387 118.17145234162733 l -13.867911628755325 23.940549677482185 a48.66710848287113,48.66710848287113 0 0,0 -0.721274656381746,-0.4261417804840627 l 14.277954156165453 -23.698289324704373" fill="#afff20" stroke="none" /><path d="M 89.1626897886671 117.98757091392108 l -12.199889008982035 20.249154486834655 a44.64033733395479,44.64033733395479 0 0,0 -0.6547691628998278,-0.40221269848837987 l 12.546637371814171 -20.036153321517897" fill="#dfff1b" stroke="none" /><path d="M 88.8546689885994 117.79835938074946 l -11.855017022842487 18.931681187541276 a43.33718830109532,43.33718830109532 0 0,0 -0.6288395201649007,-0.4013551342813749 l 12.17913834505431 -18.7248116244361" fill="#eeff19" stroke="none" /><path d="M 88.54995079064634 117.60387380957326 l -1.601961453348645 2.4629350282191487 a23.938082614775112,23.938082614775112 0 0,0 -0.3434833312135616,-0.2276420223547665 l 1.6441194833021684 -2.4349949847730636" fill="#ff0901" stroke="none" /><path d="M 88.24862548938628 117.40417183066458 l -15.481116494670776 22.92804227798495 a48.66514215800513,48.66514215800513 0 0,0 -0.6902179786004843,-0.47473821942495575 l 15.873491357894151 -22.658163269194894" fill="#afff20" stroke="none" /><path d="M 87.95078237400918 117.19931262002967 l -18.148589995101823 25.905688039461506 a52.63030179445351,52.63030179445351 0 0,0 -0.7375075973892075,-0.5261920886959999 l 18.591824920339917 -25.589451688921287" fill="#83ff25" stroke="none" /><path d="M 87.65650970185807 116.9893568818739 l -13.912855347263365 19.149402562103994 a44.66996329526917,44.66996329526917 0 0,0 -0.6181791764026808,-0.4573141761258409 l 14.24041949408461 -18.907078437238386" fill="#deff1b" stroke="none" /><path d="M 87.36589467227662 116.77436683061367 l -16.6419647216446 22.09562242689499 a48.661733861570724,48.661733861570724 0 0,0 -0.6647454031704926,-0.5096984289529813 l 17.01983885330858 -21.805884656114642" fill="#afff20" stroke="none" /><path d="M 87.07902340077011 116.55440617244103 l -3.409678259870185 4.368493232515973 a26.54162782568166,26.54162782568166 0 0,0 -0.35773375653065104,-0.2842053316711214 l 3.484369509118194 -4.30915398683972" fill="#ff2f04" stroke="none" /><path d="M 86.79598089348748 116.32954008644616 l -20.11429241441945 24.875542942054647 a52.99027033325565,52.99027033325565 0 0,0 -0.7043413022144687,-0.5796249404107787 l 20.539503845178604 -24.52562288278669" fill="#7fff26" stroke="none" /><path d="M 86.51685102203217 116.09983520530335 l -19.3770889244056 23.13761710644973 a51.179809484968544,51.179809484968544 0 0,0 -0.6705396424535172,-0.57144843034577 l 19.772494043436176 -22.80064428588101" fill="#93ff23" stroke="none" /><path d="M 86.24171649860922 115.8653595955263 l -14.654275854627059 16.89857285047183 a43.3676007923561,43.3676007923561 0 0,0 -0.5597676109934498,-0.49392983363758713 l 14.942985818527097 -16.643819875061954" fill="#eeff19" stroke="none" /><path d="M 85.97065885151581 115.62618273729859 l -16.036627070954957 17.861941088211886 a45.00463178746213,45.00463178746213 0 0,0 -0.5719884047691409,-0.5224978460424278 l 16.341715025190954 -17.583250475582883" fill="#daff1c" stroke="none" /><path d="M 85.70375840098266 115.38237550388516 l -2.4985819923508132 2.6884077306183416 a24.67021090654859,24.67021090654859 0 0,0 -0.3085704934843406,-0.2917726615885448 l 2.544488320225971 -2.645000432283866" fill="#ff1402" stroke="none" /><path d="M 85.44109423537348 115.13401014063109 l -19.18017810267628 19.937831496257342 a48.665797599627126,48.665797599627126 0 0,0 -0.5987052917873156,-0.5859591387741321 l 19.52053334683939 -19.60472225456064" fill="#afff20" stroke="none" /><path d="M 85.18274418774928 114.88116024355367 l -24.347598381191236 24.452605640825364 a55.50703507340946,55.50703507340946 0 0,0 -0.6712634253458886,-0.6799863058849162 l 24.76490243159266 -24.029878840959782" fill="#64ff29" stroke="none" /><path d="M 84.9287848128048 114.62390073753433 l -20.14373880426411 19.545871590146085 a49.06797657888605,49.06797657888605 0 0,0 -0.5829589854058487,-0.6112301655587214 l 20.477204341048918 -19.196234308004865" fill="#abff21" stroke="none" /><path d="M 84.67929136418377 114.36230785411682 l -14.395106929502097 13.494607999470302 a40.73128350034957,40.73128350034957 0 0,0 -0.4751082952549964,-0.5156362194713642 l 14.625261632752823 -13.244820525197593" fill="#ffef16" stroke="none" /><path d="M 84.43433777217949 114.09645910891817 l -2.133366846768322 1.932003796538898 a23.878175250524354,23.878175250524354 0 0,0 -0.27328133847664765,-0.3070344808140947 l 2.1663070348933076 -1.8949951459839394" fill="#ff0801" stroke="none" /><path d="M 84.19399662182784 113.82643327865904 l -24.72141518226282 21.62526410968746 a53.84509729666745,53.84509729666745 0 0,0 -0.6042381190880902,-0.7028654412805773 l 25.08999581092169 -21.196521569245352" fill="#75ff27" stroke="none" /><path d="M 83.95833913139862 113.55231037782056 l -21.124575431077986 17.84645649765639 a48.65399965043114,48.65399965043114 0 0,0 -0.5349715781172872,-0.6444077285313534 l 21.42864300908881 -17.480187512011273" fill="#afff20" stroke="none" /><path d="M 83.72743513129214 113.27417163493432 l -18.528888689580764 15.11474378222091 a44.911821253787,44.911821253787 0 0,0 -0.4835123010702399,-0.6032559390000791 l 18.786318902705865 -14.793560009642569" fill="#dbff1b" stroke="none" /><path d="M 83.50135304334701 112.99209946851258 l -15.5137238177194 12.216507420056463 a40.74635865765556,40.74635865765556 0 0,0 -0.4291817503933784,-0.5547752666656053 l 15.721712385330846 -11.947654159277604" fill="#fff016" stroke="none" /><path d="M 83.28015986056508 112.70617746262583 l -2.1820693923026124 1.6582551449740208 a23.74066359822885,23.74066359822885 0 0,0 -0.24445957258567194,-0.32749354649090984 l 2.2102902315833695 -1.620448718973803" fill="#ff0601" stroke="none" /><path d="M 83.06392112726016 112.41649034213515 l -28.49093392980002 20.887798683270024 a56.32751689582848,56.32751689582848 0 0,0 -0.5665480863668272,-0.7868857402675856 l 28.846261808542454 -20.3942793375513" fill="#5bff2a" stroke="none" /><path d="M 82.85270091963577 112.12312394758628 l -22.582362645533617 15.965708657560274 a48.65622815194594,48.65622815194594 0 0,0 -0.4776167015311609,-0.6880424808925053 l 22.85384025422691 -15.574624914480756" fill="#afff20" stroke="none" /><path d="M 82.6465618267979 111.8261652097733 l -16.342184574559802 11.137007706392236 a40.77624679561874,40.77624679561874 0 0,0 -0.3902809037583344,-0.583416997110315 l 16.53146858372887 -10.8540537950761" fill="#fff016" stroke="none" /><path d="M 82.44556493220864 111.52570212397912 l -16.51338787210954 10.842182555955661 a40.754617222092755,40.754617222092755 0 0,0 -0.37997884985789804,-0.589735613203016 l 16.697571585344484 -10.556325342831197" fill="#fff016" stroke="none" /><path d="M 82.24976979558568 111.22182372390057 l -1.9689565623175749 1.2447885581140332 a23.329439524586345,23.329439524586345 0 0,0 -0.21167062696008052,-0.3412804480545301 l 1.9900918289456113 -1.210711778694239" fill="#ff0000" stroke="none" /><path d="M 82.05923443525364 110.91462005526583 l -23.632480458306286 14.377287537425897 a48.66225821486833,48.66225821486833 0 0,0 -0.4291990882430683,-0.7193623593808149 l 23.876460422247586 -13.96836308415897" fill="#afff20" stroke="none" /><line stroke="#e1ed5e" stroke-width="0.3" x1="26.63291911575756" x2="22.317208475507996" y1="142.92168965132927" y2="145.44649492493687" /><path d="M 25.769776987707644 143.4266507060508 a86.0,86.0 0 0,1 -11.730757126820373,-40.83630448921669" fill="none" id="id117" stroke="none" /><text fill="#e1ed5e" style="font-size:6.75px; font-family:Arial;" text-anchor="middle"><textPath startOffset="21.46611528233685" xlink:href="#id117">September</textPath></text><path d="M 81.87401531095188 110.60418214915194 l -23.87702616152401 13.968694056651724 a48.66291365649033,48.66291365649033 0 0,0 -0.41675847059661947,-0.7266535221612447 l 24.11393662827301 -13.555620688632173" fill="#afff20" stroke="none" /><path d="M 81.69416730710424 110.29060199501025 l -20.60263206855936 11.581745022145789 a44.63483162433,44.63483162433 0 0,0 -0.37073179025917313,-0.6729858856481945 l 20.79894026827005 -11.225388618099771" fill="#dfff1b" stroke="none" /><path d="M 81.51974371655577 109.97397251340807 l -17.393763704939566 9.387581992204336 a40.76536646469354,40.76536646469354 0 0,0 -0.32796221026206274,-0.6203809060298868 l 17.552778423426513 -9.086786071088321" fill="#fff016" stroke="none" /><path d="M 81.35079622478065 109.6543875284942 l -2.4260666428627906 1.2559349890998128 a23.731880680494058,23.731880680494058 0 0,0 -0.18468073853713984,-0.364392617799987 l 2.447326051186197 -1.213988159597141" fill="#ff0601" stroke="none" /><path d="M 81.18737489456691 109.33194174019688 l -24.797378549351116 12.30065929849003 a48.680610580284316,48.680610580284316 0 0,0 -0.36590837362404455,-0.7538796281457937 l 25.00544017958988 -11.871990714378951" fill="#afff20" stroke="none" /><path d="M 81.02952815118164 109.00673069616217 l -25.022610992367113 11.88014300957494 a48.6996183873223,48.6996183873223 0 0,0 -0.35301514613163615,-0.760363219065811 l 25.223400755338577 -11.447659723230302" fill="#afff20" stroke="none" /><path d="M 80.87730276802145 108.67885076344099 l -25.19522952144322 11.434874187182023 a48.668681542763935,48.668681542763935 0 0,0 -0.33965853211744107,-0.7658403226911225 l 25.38832913829194 -10.999485527998205" fill="#afff20" stroke="none" /><path d="M 80.73074385275274 108.34839909993369 l -17.687354592428427 7.663040754208452 a40.276013749708696,40.276013749708696 0 0,0 -0.2701350961015066,-0.638519570566575 l 17.816640669722243 -7.357446657975718" fill="#ffea16" stroke="none" /><path d="M 80.58989483394504 108.01547362559985 l -2.7266684005782484 1.1259876473422294 a23.9500116522955,23.9500116522955 0 0,0 -0.15407542679667727,-0.38240257367556474 l 2.7456464416323136 -1.0788857058238592" fill="#ff0901" stroke="none" /><path d="M 80.45479744820244 107.68017299344265 l -25.72555053134991 10.108704573857015 a48.64036646469354,48.64036646469354 0 0,0 -0.2994989345977581,-0.781897210432349 l 25.89574374554118 -9.664383796591508" fill="#afff20" stroke="none" /><path d="M 80.32549172779594 107.34259656027581 l -25.990679126661217 9.6998140189491 a48.74169773945467,48.74169773945467 0 0,0 -0.2865912927732928,-0.788576151649604 l 26.153794680439734 -9.25099007029338" fill="#aeff20" stroke="none" /><path d="M 80.20201598880116 107.00284435728193 l -22.475411377496766 7.9498906380298004 a44.839984852015846,44.839984852015846 0 0,0 -0.2511234932839908,-0.729882419784831 l 22.608925701723987 -7.561835515155672" fill="#dcff1b" stroke="none" /><path d="M 80.0844068197444 106.66101706037122 l -17.496674419398413 5.851979690111236 a39.44937077604288,39.44937077604288 0 0,0 -0.209847638486529,-0.6458446222850971 l 17.594814308901192 -5.549936167848335" fill="#ffdf14" stroke="none" /><path d="M 79.97269907076064 106.31721596034903 l -2.532583119722326 0.7988532534337893 a23.65558727569331,23.65558727569331 0 0,0 -0.11914894354347602,-0.38938564141181725 l 2.5459588357719323 -0.7551406394699243" fill="#ff0500" stroke="none" /><path d="M 79.86692584326677 105.97154293290107 l -35.29366541075113 10.468229373171068 a57.81340305290143,57.81340305290143 0 0,0 -0.27477158625480724,-0.9565159383985891 l 35.46862963389204 -9.859155959267882" fill="#4cff2c" stroke="none" /><path d="M 79.76711848015287 105.62410040840567 l -26.651392197582858 7.408243141046084 a48.66186494989513,48.66186494989513 0 0,0 -0.21738395998792487,-0.8089665839331353 l 26.77496423391256 -6.948385623937409" fill="#afff20" stroke="none" /><path d="M 79.67330655649465 105.27499134158121 l -22.894429816468715 5.941346013209944 a44.652790724772785,44.652790724772785 0 0,0 -0.1866671338469335,-0.7456424095424844 l 22.993308264610707 -5.546375764270067" fill="#deff1b" stroke="none" /><path d="M 79.58551787078972 104.9243191809786 l -22.10713677990104 5.332616178688999 a43.741202516895825,43.741202516895825 0 0,0 -0.17025624472609718,-0.7334594462601167 l 22.19565359055769 -4.951288075080309" fill="#e9ff1a" stroke="none" /><path d="M 79.50377843672027 104.57218783832718 l -9.142337001192592 2.039423799244516 a30.36704730831974,30.36704730831974 0 0,0 -0.10941675360401891,-0.5111586461250767 l 9.176087793521052 -1.8817513337032756" fill="#ff6609" stroke="none" /><path d="M 79.4281124754447 104.21870165774334 l -27.24459261903315 5.587081297681835 a48.811567816359826,48.811567816359826 0 0,0 -0.16170590688318837,-0.824534935387869 l 27.336728458892004 -5.117282635226012" fill="#adff20" stroke="none" /><path d="M 79.35854240842038 103.8639653848113 l -27.268051305113044 5.104426656245268 a48.74169773945467,48.74169773945467 0 0,0 -0.1472778156188725,-0.8260122039476773 l 27.351875563071108 -4.634295701564377" fill="#aeff20" stroke="none" /><path d="M 79.29508885075956 103.50808413554451 l -23.302847761005708 3.9482589398309 a44.63496271265439,44.63496271265439 0 0,0 -0.12182846461135963,-0.7586259654292995 l 23.36735797997836 -3.546553744708387" fill="#dfff1b" stroke="none" /><path d="M 79.23777060512086 103.15116336523772 l -21.241073301171472 3.223839345570927 a42.484327662549525,42.484327662549525 0 0,0 -0.10351194960838574,-0.7239623344719843 l 21.293419301796458 -2.857731539118542" fill="#f9ff18" stroke="none" /><path d="M 79.18660465613746 102.79330883721812 l -2.7645118486785503 0.37101757065240726 a23.789297366581216,23.789297366581216 0 0,0 -0.050975356074956436,-0.4063237430176184 l 2.7704887140003547 -0.32337607334738017" fill="#ff0701" stroke="none" /><path d="M 79.1416061653843 102.43462659150553 l -33.885037850127944 3.9551182539848186 a55.115080983453744,55.115080983453744 0 0,0 -0.10187812363622935,-0.9432648964319703 l 33.948098275265224 -3.3712570356680662" fill="#68ff28" stroke="none" /><path d="M 79.10278846688536 102.07522291339032 l -34.073066202209844 3.3836671270825787 a55.24066359822885,55.24066359822885 0 0,0 -0.08582137865783258,-0.9470317621090532 l 34.12626217714475 -2.7966539764249596" fill="#67ff29" stroke="none" /><path d="M 79.07016306316243 101.71520430193888 l -27.621181478224614 2.263561318659931 a48.71377592635749,48.71377592635749 0 0,0 -0.061294552401372396,-0.8363154687680607 l 27.656052589290322 -1.7877727133951098" fill="#afff20" stroke="none" /><path d="M 79.04373962182676 101.35467743843564 l -27.602156690425122 1.7842887159213554 a48.65976753670473,48.65976753670473 0 0,0 -0.046837688899106125,-0.8363183990733061 l 27.628780730211762 -1.3088986005126118" fill="#afff20" stroke="none" /><path d="M 79.0235259727143 100.99374915477108 l -2.8722011048155927 0.13606897977850405 a23.875422395711954,23.875422395711954 0 0,0 -0.01591452337222093,-0.4106831336420356 l 2.8741177610390145 -0.08660859912247162" fill="#ff0801" stroke="none" /><path d="M 79.0095281055655 100.63252640178507 l -32.235716962426196 0.9713903604335755 a53.25034956886507,53.25034956886507 0 0,0 -0.019722756235622512,-0.9164389831868361 l 32.24766178134683 -0.41636156145661046" fill="#7cff26" stroke="none" /><line stroke="#e1ed5e" stroke-width="0.3" x1="15.007084014347285" x2="10.007500721073583" y1="101.09737516637583" y2="101.16192664675087" /><path d="M 14.007167355692545 101.11028546245083 a86.0,86.0 0 0,1 10.666146001902534,-42.60595125391555" fill="none" id="id118" stroke="none" /><text fill="#e1ed5e" style="font-size:6.75px; font-family:Arial;" text-anchor="middle"><textPath startOffset="22.20632615414155" xlink:href="#id118">October</textPath></text><path d="M 79.00175016825051 100.2711162175752 l -27.64789368431803 0.3569722438619621 a48.65019808902353,48.65019808902353 0 0,0 -0.0036040592873004397,-0.8374564520331272 l 27.64994204089483 0.1189936863748405" fill="#afff20" stroke="none" /><path d="M 79.00019446554 99.90962569577889 l -23.66017474609911 -0.10182341102730658 a44.66039384758798,44.66039384758798 0 0,0 0.009925225724129204,-0.7687196703162965 l 23.654916513257263 0.5090793394040751" fill="#deff1b" stroke="none" /><path d="M 79.00486145842228 99.54816195383935 l -20.972421825440897 -0.4513491579061547 a41.97727802377068,41.97727802377068 0 0,0 0.02176482995443576,-0.7222687466585277 l 20.961545301030817 0.8122880519896768" fill="#ffff18" stroke="none" /><path d="M 79.03285615573316 98.82574320788736 l -27.59986947982444 -1.5457200293385778 a48.64311931950595,48.64311931950595 0 0,0 0.054015656868223336,-0.8355983038557608 l 27.569173231951805 2.0205773974473504" fill="#afff20" stroke="none" /><path d="M 79.05617556472873 98.46500227214037 l -18.306017835821976 -1.341669754298659 a39.35511827079935,39.35511827079935 0 0,0 0.055332389585242496,-0.6751953047433756 l 18.280210962417236 1.656578976249813" fill="#ffde14" stroke="none" /><path d="M 79.08570108090925 98.10471618934814 l -19.7350975220417 -1.788422886172809 a40.815966557911906,40.815966557911906 0 0,0 0.06943160207174498,-0.699166757563361 l 19.701388794287727 2.1278651744406005" fill="#fff016" stroke="none" /><path d="M 79.12142395522702 97.74499172005258 l -20.012878353500163 -2.161507867966966 a41.129267653227686,41.129267653227686 0 0,0 0.08208157564608007,-0.7032248137621009 l 19.972706424850493 2.5056764200539288" fill="#fff417" stroke="none" /><path d="M 79.16333360222342 97.38593545837743 l -2.8949400989736405 -0.3631847877382064 a23.917632836168725,23.917632836168725 0 0,0 0.054764546658510514,-0.40805948316339397 l 2.888259553257296 0.41296261296625975" fill="#ff0901" stroke="none" /><path d="M 79.21141760316559 97.0276538004421 l -38.94822614352482 -5.568807422619462 a60.34432533209042,60.34432533209042 0 0,0 0.15587257207844415,-1.0270054969423563 l 38.84659767800707 6.23841203195391" fill="#32ff2f" stroke="none" /><path d="M 79.26566170972629 96.67025291283419 l -15.611456380201577 -2.507058613622441 a36.81148042414356,36.81148042414356 0 0,0 0.10585603702375146,-0.6247683226808789 l 15.565988481657604 2.775412724619148" fill="#ffbd11" stroke="none" /><path d="M 79.32604984820605 96.31383870115002 l -15.521207082657998 -2.767428209870457 a36.76599277557679,36.76599277557679 0 0,0 0.11645063781917847,-0.6220839636673862 l 15.471270720928958 3.0341902510004157" fill="#ffbc11" stroke="none" /><path d="M 79.3925641242962 95.95851677861259 l -14.17408693486554 -2.7797895318594152 a35.444098112328135,35.444098112328135 0 0,0 0.12257025526548956,-0.5976960946146755 l 14.124137383685056 3.0233612826374934" fill="#ffab0f" stroke="none" /><path d="M 79.54389044137918 95.25157060432595 l -18.183894256310648 -4.22098531331465 a39.667370659519925,39.667370659519925 0 0,0 0.16011866342018197,-0.6637952319521921 l 18.108542792629652 4.53336577692624" fill="#ffe215" stroke="none" /><path d="M 79.62865764111835 94.90015583598534 l -29.305846410265598 -7.336544011383823 a51.21022197622932,51.21022197622932 0 0,0 0.22143219053225813,-0.8532685579961318 l 29.175217887863035 7.839908994928819" fill="#92ff23" stroke="none" /><path d="M 79.71946130924805 94.55025226153421 l -17.727030357870653 -4.763573841683687 a39.35590480074575,39.35590480074575 0 0,0 0.18143677338300296,-0.6527246088485675 l 17.642406813921287 5.0680097539511975" fill="#ffde14" stroke="none" /><path d="M 79.81627453868168 94.20196356495316 l -25.284379739796883 -7.263265409047401 a47.306936028897695,47.306936028897695 0 0,0 0.2315654309278289,-0.7807235157465388 l 25.15560841175735 7.697418311540479" fill="#bfff1e" stroke="none" /><path d="M 79.91906864156998 93.8553929516997 l -2.7827971095470594 -0.8515140273179759 a23.910160801677932,23.910160801677932 0 0,0 0.12381423187632962,-0.3925249503379112 l 2.767727393902526 0.8992891440823015" fill="#ff0901" stroke="none" /><path d="M 80.02781315780177 93.51064311812611 l -26.332682049690163 -8.556007052583027 a48.68782043812631,48.68782043812631 0 0,0 0.26584177389474156,-0.7948330669656184 l 26.18150298202365 9.008013222470968" fill="#afff20" stroke="none" /><path d="M 80.14247586403 93.16781622104843 l -22.354713407130607 -7.691367225718258 a44.64086168725239,44.64086168725239 0 0,0 0.25625325459017534,-0.7244624581608083 l 22.219007071730623 8.075027310305677" fill="#deff1b" stroke="none" /><path d="M 80.2630227832202 92.82701384747504 l -16.43851448931014 -5.974229767041333 a38.490459683057566,38.490459683057566 0 0,0 0.2316674995429321,-0.6207537209407878 l 16.333242401265583 6.2563066250114625" fill="#ffd313" stroke="none" /><path d="M 80.38941819471856 92.48833698450439 l -18.38822565170624 -7.043450108721915 a40.691039384758795,40.691039384758795 0 0,0 0.25617227946110743,-0.6519305091822752 l 18.26425982236344 7.358929622799954" fill="#ffef16" stroke="none" /><path d="M 80.52162464483688 92.15188598940014 l -2.6617241749750886 -1.0724464648144874 a23.86965450943836,23.86965450943836 0 0,0 0.15683307922959622,-0.3797837412427213 l 2.642869408859293 1.1181047765105199" fill="#ff0801" stroke="none" /><path d="M 80.65960295795068 91.81776055985345 l -26.560771158315287 -11.236924912129208 a49.83995572127709,49.83995572127709 0 0,0 0.341069745627474,-0.7872359974530299 l 26.363410702845133 11.692460054168837" fill="#a2ff22" stroke="none" /><path d="M 80.803312248108 91.48605970444005 l -21.755889287214536 -9.648974076264839 a44.799609648100684,44.799609648100684 0 0,0 0.31871228011297714,-0.7022402623152934 l 21.586574690138207 10.022036347422203" fill="#ddff1b" stroke="none" /><path d="M 80.95270993114464 91.15688171328213 l -17.8901261374117 -8.305879787913684 a40.72420473083197,40.72420473083197 0 0,0 0.30066448837268933,-0.6332760915171857 l 17.744503455197258 8.612598295071402" fill="#ffef16" stroke="none" /><path d="M 81.10775173730289 90.83032412892265 l -11.841933804872745 -5.747685144062073 a34.16310300629224,34.16310300629224 0 0,0 0.2613314487810481,-0.5268282540814306 l 11.741242343138286 5.9506729866424655" fill="#ff9a0e" stroke="none" /><path d="M 81.26839172434947 90.50648371742162 l -2.358093834864361 -1.1951244061746238 a23.64365823817292,23.64365823817292 0 0,0 0.18711204594145228,-0.36144091619084023 l 2.3371723557627946 1.2355380446257995" fill="#ff0500" stroke="none" /><path d="M 81.43458229118936 90.18545643968196 l -20.928858675041333 -11.063968414589063 a44.673371591703564,44.673371591703564 0 0,0 0.3652407658523385,-0.6767356686655136 l 20.735309809970524 11.422585066587049" fill="#deff1b" stroke="none" /><path d="M 81.6062741919709 89.86733742301443 l -12.698311948678953 -6.995195623558917 a35.49758214868329,35.49758214868329 0 0,0 0.2994345442968317,-0.5326606424997489 l 12.57601976308969 7.21273977599345" fill="#ffac0f" stroke="none" /><line stroke="#e1ed5e" stroke-width="0.3" x1="26.266209847984243" x2="21.928928074336255" y1="57.711370442889674" y2="55.22380399835377" /><path d="M 25.398753493254645 57.213857153982495 a86.0,86.0 0 0,1 29.58750427330803,-30.492523968695096" fill="none" id="id119" stroke="none" /><text fill="#e1ed5e" style="font-size:6.75px; font-family:Arial;" text-anchor="middle"><textPath startOffset="21.46611528233685" xlink:href="#id119">November</textPath></text><path d="M 81.78341655067845 89.55222093294921 l -12.579544878490665 -7.214761539679145 a35.50164588673969,35.50164588673969 0 0,0 0.30859438080974816,-0.5274878291421218 l 12.453490823210593 7.430228781175158" fill="#ffac0f" stroke="none" /><path d="M 81.96595687620814 89.24020034530311 l -9.037434967569235 -5.392079245674503 a31.52377068282452,31.52377068282452 0 0,0 0.2820389757024211,-0.4635979188993447 l 8.943280193580598 5.546844937780922" fill="#ff760a" stroke="none" /><path d="M 82.15384107792192 88.93136811851018 l -2.257097658222926 -1.3999081375732345 a23.655980540666512,23.655980540666512 0 0,0 0.21760393448568008,-0.34419716665844746 l 2.232666127491283 1.4385529519458975" fill="#ff0500" stroke="none" /><path d="M 82.34701348167596 88.62581576622439 l -5.140829188081699 -3.3123425454903503 a27.11553250990445,27.11553250990445 0 0,0 0.25618156590603525,-0.39018210048187796 l 5.083050986817744 3.400342709949895" fill="#ff3805" stroke="none" /><path d="M 82.54541684631803 88.32363383020206 l -3.272516427785967 -2.1891728820488963 a24.9372378233512,24.9372378233512 0 0,0 0.24174340545878184,-0.3547286179412964 l 3.234348556658445 2.2451795232606084" fill="#ff1802" stroke="none" /><path d="M 82.7489923806493 88.02491185347247 l -45.56517079337067 -31.62985888720697 a76.46740270333257,76.46740270333257 0 0,0 0.7598943781219196,-1.0748167079276814 l 45.01396379544487 32.409502095466436" fill="#43ffe3" stroke="none" /><path d="M 83.17141714833178 87.43820079747576 l -10.51625352969755 -7.849922145393364 a34.12298997902587,34.12298997902587 0 0,0 0.3554056619002185,-0.46767219087727685 l 10.379571927573224 8.029779112151669" fill="#ff990e" stroke="none" /><path d="M 83.39014120810768 87.1503855733568 l -6.824152770578644 -5.27925811947583 a29.627840247028665,29.627840247028665 0 0,0 0.31553074152674637,-0.4006919990904836 l 6.732267948457927 5.395942512519361" fill="#ff5b08" stroke="none" /><path d="M 83.84228863543731 86.58626213691792 l -17.150052079007438 -14.237554919476542 a43.28973432766254,43.28973432766254 0 0,0 0.48090645540979876,-0.5692415575008216 l 16.902435010110512 14.530655426606481" fill="#efff19" stroke="none" /><path d="M 84.07557802195018 86.31012108654704 l -11.930791448772526 -10.256641685361712 a36.73348287112562,36.73348287112562 0 0,0 0.41632703821199113,-0.4759337740818538 l 11.752472546982691 10.46049101564651" fill="#ffbc11" stroke="none" /><path d="M 84.31358615837235 86.03803664274999 l -1.99451861583285 -1.7752557155996704 a23.6701380797017,23.6701380797017 0 0,0 0.27350997773980645,-0.3020165487333721 l 1.9636649974769989 1.8093250516025985" fill="#ff0500" stroke="none" /><path d="M 84.5562425177563 85.77008943001954 l -18.385318457893785 -16.940271029070235 a45.99985434630622,45.99985434630622 0 0,0 0.5415555799526786,-0.5776937338226714 l 18.09099555597065 17.254234179770958" fill="#ceff1d" stroke="none" /><path d="M 84.80347519578584 85.50635884689758 l -16.135240454625954 -15.388938463320128 a43.29720636215335,43.29720636215335 0 0,0 0.5190216249130809,-0.5348974077617885 l 15.867954566009756 15.664400066632039" fill="#efff19" stroke="none" /><path d="M 85.05521093208273 85.24692304244772 l -19.68229765091296 -19.429812667529102 a48.657014681892335,48.657014681892335 0 0,0 0.5935326301063926,-0.590983812368667 l 19.344929220639255 19.76573233054788" fill="#afff20" stroke="none" /><path d="M 85.31137513191541 84.99185889309783 l -13.13415983164873 -13.419862365897243 a39.77761594034025,39.77761594034025 0 0,0 0.49346359436228754,-0.4747115868058221 l 12.901212993674015 13.643957039465379" fill="#ffe315" stroke="none" /><path d="M 85.57189188830299 84.74124197986013 l -1.7998508870569216 -1.903471262158808 a23.61966907480774,23.61966907480774 0 0,0 0.2978239123039778,-0.27679486846403134 l 1.7668190909580876 1.9341707166974866" fill="#ff0400" stroke="none" /><path d="M 85.83668400450813 84.49514656593479 l -18.696418793279953 -20.467327935349143 a48.72124796084829,48.72124796084829 0 0,0 0.6240704939085893,-0.5602966512639341 l 18.341337311775394 20.786123595382357" fill="#aeff20" stroke="none" /><path d="M 86.10567301691215 84.25364557470407 l -3.5447602777332956 -4.01725479426527 a26.35757981822419,26.35757981822419 0 0,0 0.3427818333818892,-0.2972570280804962 l 3.4750846457046327 4.077676815765447" fill="#ff2d04" stroke="none" /><path d="M 86.37877921826538 84.01681056812374 l -8.524203227334992 -10.002330710401708 a34.14186669773946,34.14186669773946 0 0,0 0.45057909663929707,-0.37734703547428905 l 8.350766593736584 10.14757890326981" fill="#ff9a0e" stroke="none" /><path d="M 86.65592168130627 83.78471172551755 l -12.519902558935373 -15.213776801441979 a40.702968422279184,40.702968422279184 0 0,0 0.5448317186590064,-0.44054935931593037 l 12.256167441711867 15.427032258022045" fill="#ffef16" stroke="none" /><path d="M 86.93701828274178 83.55741782278169 l -3.2755849592727087 -4.123030716650671 a26.265817991144257,26.265817991144257 0 0,0 0.3564239542659032,-0.27819454980761843 l 3.2041284498473797 4.178803655681511" fill="#ff2b04" stroke="none" /><path d="M 87.22198572758235 83.33499621200491 l -16.833359818952978 -21.953959290300485 a48.664748893031934,48.664748893031934 0 0,0 0.6691492104402431,-0.5039893123856087 l 16.452964454754348 22.240465192191948" fill="#afff20" stroke="none" /><path d="M 87.51073957382395 83.11751280151077 l -11.714840625804742 -15.8356572085706 a40.6978559776276,40.6978559776276 0 0,0 0.5667751711912588,-0.4117862656879695 l 11.440520138259702 16.034962709075238" fill="#ffef16" stroke="none" /><path d="M 87.80319425747018 82.90503203632743 l -16.068226675046294 -22.5211277478271 a48.665666511302724,48.665666511302724 0 0,0 0.6861137345430012,-0.4806665176875899 l 15.678181800919633 22.794379108278633" fill="#afff20" stroke="none" /><path d="M 88.09926311788651 82.69761687909137 l -8.970051163801461 -13.041483345750786 a36.828521906315544,36.828521906315544 0 0,0 0.5254120130989552,-0.3547605366331085 l 8.744234456295965 13.193955794682559" fill="#ffbd11" stroke="none" /><path d="M 88.39885842347998 82.49532879139004 l -3.0388689614611346 -4.585273066927247 a26.50085935679329,26.50085935679329 0 0,0 0.38241115381720825,-0.24873085190099095 l 2.959490781859639 4.636902842987773" fill="#ff2f04" stroke="none" /><path d="M 88.70189139769569 82.29822771554957 l -14.875173777792094 -23.306284987595077 a48.64875611745514,48.64875611745514 0 0,0 0.7097641493000939,-0.44445424517783255 l 14.471790476119757 23.55888357409584" fill="#afff20" stroke="none" /><path d="M 89.00827224532344 82.1063720568725 l -14.498069513619594 -23.601663683849335 a48.6989629457003,48.6989629457003 0 0,0 0.7180498220880908,-0.43261698349378375 l 14.089657625313855 23.847727276801738" fill="#afff20" stroke="none" /><line stroke="#e1ed5e" stroke-width="0.3" x1="56.762969772571076" x2="54.21961505331055" y1="26.818313649435495" y2="22.513508569990535" /><path d="M 56.25429882871897 25.957352633546506 a86.0,86.0 0 0,1 42.265352541879196,-11.944610805530505" fill="none" id="id120" stroke="none" /><text fill="#e1ed5e" style="font-size:6.75px; font-family:Arial;" text-anchor="middle"><textPath startOffset="22.20632615414155" xlink:href="#id120">December</textPath></text><path d="M 89.3179101791058 81.91981866633112 l -12.124907213908873 -20.522250304672237 a44.83644546725705,44.83644546725705 0 0,0 0.6678565069904043,-0.38686559600356385 l 11.769853974453149 20.72792005806585" fill="#dcff1b" stroke="none" /><path d="M 89.63071344664047 81.73862282372117 l -8.481855116475879 -14.937416826072168 a38.177551852714984,38.177551852714984 0 0,0 0.5742556651655029,-0.3195726559311877 l 8.223475362238332 15.08120487956354" fill="#ffcf13" stroke="none" /><path d="M 89.94658935756843 81.56283822128135 l -1.2687464811609794 -2.32678092652617 a23.650212654392917,23.650212654392917 0 0,0 0.35909464073867325,-0.19181592084764962 l 1.2285067938940009 2.348275573875569" fill="#ff0500" stroke="none" /><path d="M 90.26544431104013 81.39251694778311 l -12.855296348392512 -24.57274030546926 a48.73225938009789,48.73225938009789 0 0,0 0.7466234938881233,-0.3824495525833292 l 12.430412366915625 24.790382383365092" fill="#aeff20" stroke="none" /><path d="M 90.58718382345135 81.22770947309562 l -12.425888029147242 -24.781359346960585 a48.72216557911909,48.72216557911909 0 0,0 0.7529401268523692,-0.36946445026338737 l 11.997476635284446 24.9915789573588" fill="#aeff20" stroke="none" /><path d="M 90.91171255644093 81.06846463323043 l -8.577455160223385 -17.867436162324736 a40.8196370309951,40.8196370309951 0 0,0 0.6360511734944265,-0.2986345544707391 l 8.26862577542935 18.012435699435482" fill="#fff116" stroke="none" /><path d="M 91.23893434514133 80.91482961587045 l -8.204201885676149 -17.872094220306586 a40.665214984852014,40.665214984852014 0 0,0 0.6386721456379558,-0.286553574901557 l 7.8953476215714185 18.010668125724674" fill="#ffef16" stroke="none" /><path d="M 91.56875222667455 80.76684994638697 l -1.0512393653519156 -2.3980607615453446 a23.61835819156374,23.61835819156374 0 0,0 0.37375066863728346,-0.1600205310590326 l 1.009804938924324 2.4158008205671635" fill="#ff0400" stroke="none" /><path d="M 91.90106846888425 80.62456947434976 l -10.672415761082584 -25.53209016834627 a48.67287636914472,48.67287636914472 0 0,0 0.7757903254420608,-0.3164643526828256 l 10.231341566052143 25.71201540721267" fill="#afff20" stroke="none" /><path d="M 92.23578459929587 80.48803036053334 l -8.239413972041804 -20.70617402692062 a43.28527732463296,43.28527732463296 0 0,0 0.6946603412409084,-0.2695174202055538 l 7.88177046580122 20.844934151016727" fill="#efff19" stroke="none" /><path d="M 92.57280143429618 80.3572730644239 l -7.137322821836029 -18.87609197467247 a41.18039209974365,41.18039209974365 0 0,0 0.6651960396118427,-0.2449973152093481 l 6.811344456451616 18.99615255768814" fill="#fff517" stroke="none" /><path d="M 92.91201910852362 80.23233633223022 l -6.641398215539403 -18.522189636033783 a40.67688184572361,40.67688184572361 0 0,0 0.661131037739853,-0.2306556374192188 l 6.321585173736264 18.63376612662521" fill="#ffef16" stroke="none" /><path d="M 95.692805502759 79.44645832069477 l -1.0745580572090294 -5.127693636734147 a26.239075972966674,26.239075972966674 0 0,0 0.4428576147315795,-0.0888330713270212 l 0.9861340330103135 5.145430664138379" fill="#ff2b04" stroke="none" /><path d="M 96.04723909329186 79.375362276772 l -1.728535093542123 -9.019116242444825 a30.183261477511067,30.183261477511067 0 0,0 0.5111102401157157,-0.09340212944671064 l 1.5730297323235143 9.047533853242273" fill="#ff6309" stroke="none" /><path d="M 96.40284397218896 79.31037775812273 l -0.4651905239464735 -2.6756182207671255 a23.71575681659287,23.71575681659287 0 0,0 0.4027960862281577,-0.06646480551769073 l 0.4190652315794301 2.6832292892244434" fill="#ff0600" stroke="none" /><path d="M 96.75951476605007 79.25152402106235 l -2.6295903320766123 -16.83698208772071 a38.04108890701468,38.04108890701468 0 0,0 0.6478415910200038,-0.09547501018679289 l 2.3393797606279594 16.879751582068472" fill="#ffcd13" stroke="none" /><path d="M 97.11714578562143 79.19881850522333 l -1.800824116295299 -12.99381324813336 a34.118008622698675,34.118008622698675 0 0,0 0.5824192182799707,-0.07561473007623044 l 1.5768901695074704 13.022886301373727" fill="#ff990e" stroke="none" /><path d="M 97.47563105711357 79.15227682838746 l -1.5749046777381293 -13.006488942785007 a34.101491493824284,34.101491493824284 0 0,0 0.5833519621219909,-0.06554638997041491 l 1.3507860121064204 13.03167128622602" fill="#ff990e" stroke="none" /><path d="M 97.83486435360386 79.11191278185805 l -2.0332475874017226 -19.61570075871044 a40.72079643439758,40.72079643439758 0 0,0 0.6978281638863422,-0.06626719262160546 l 1.695294296425144 19.647793495847225" fill="#ffef16" stroke="none" /><path d="M 98.19473922651362 79.07773832637324 l -0.22063538729789414 -2.5570772795298615 a23.566578303425775,23.566578303425775 0 0,0 0.40445838208168605,-0.031393754721591026 l 0.1765868158538739 2.5604962964399145" fill="#ff0400" stroke="none" /><path d="M 98.55514903715128 79.0497635885617 l -1.9028516898318915 -27.591214445594783 a48.65675250524353,48.65675250524353 0 0,0 0.836057280195696,-0.050433258314797 l 1.4276323607965724 27.619880973289888" fill="#afff20" stroke="none" /><path d="M 98.91598698831166 79.02799685794201 l -1.0201192377967716 -19.735873674640562 a40.762220344907945,40.762220344907945 0 0,0 0.7010309318919006,-0.030187866585006443 l 0.6802474735155469 19.750509267749763" fill="#fff016" stroke="none" /><path d="M 99.27714615592234 79.0124445844662 l -0.6768768067866417 -19.652644318507555 a40.664297366581216,40.664297366581216 0 0,0 0.6997616174665464,-0.018072778081295236 l 0.3384885541252163 19.661383888731212" fill="#ffef16" stroke="none" /><path d="M 99.63851952072746 79.00311137660856 l -0.12464514720096807 -7.240115091392613 a28.24118795152645,28.24118795152645 0 0,0 0.486125626473502,-0.00418423674239495 l 1.773579529372249e-15 7.241187951526449" fill="#ff4806" stroke="none" /></svg>