<?xml version="1.0" encoding="utf-8" ?>
<svg baseProfile="full" height="200mm" version="1.1" viewBox="0,0,200,200" width="200mm" xmlns="http://www.w3.org/2000/svg" xmlns:ev="http://www.w3.org/2001/xml-events" xmlns:xlink="http://www.w3.org/1999/xlink"><defs /><rect fill="#1a1a1a" height="200" width="200" x="0" y="0" /><text alignment-baseline="middle" fill="#e1ed5e" style="dominant-baseline: central; font-size:9.0px; font-family:Arial;" text-anchor="middle" x="100.0" y="100.0">2024</text><line stroke="#e1ed5e" stroke-width="0.3" x1="100.0" x2="100.0" y1="15.0" y2="10.0" /><path d="M 100.0 14.0 a86.0,86.0 0 0,1 42.35913384403234,11.155469271406648" fill="none" id="id133" stroke="none" /><text fill="#e1ed5e" style="font-size:6.75px; font-family:Arial;" text-anchor="middle"><textPath startOffset="22.145653131862478" xlink:href="#id133">January</textPath></text><path d="M 100.0 79.0 l 0.0 -4.986018903820582 a25.986018903820582,25.986018903820582 0 0,0 0.4460845695150435,0.003829099522692089 l -0.0855916446661887 4.985284202492325" fill="#ff2703" stroke="none" /><path d="M 101.08105385017728 79.02784411241856 l 0.32894787281141347 -6.3815008534107545 a27.38997338375594,27.38997338375594 0 0,0 0.4693541246231479,0.028235178628221502 l -0.4384463495670237 6.374913696957841" fill="#ff3b05" stroke="none" /><path d="M 102.15924093988457 79.11130261209362 l 0.24256936561789327 -2.346638571163563 a23.359142318896602,23.359142318896602 0 0,0 0.39851152677419843,0.0446540477905494 l -0.28281679399288834 2.342128762866043" fill="#ff0000" stroke="none" /><path d="M 102.87502721639298 79.19773525538626 l 1.2259655871894657 -8.87047627482883 a29.954794300444537,29.954794300444537 0 0,0 0.5087677663645078,0.07477134127533605 l -1.3780584591616554 8.848123860254612" fill="#ff6008" stroke="none" /><path d="M 103.23170211078529 79.25015418208739 l 2.737401150586662 -17.576079065854056 a38.7879712274443,38.7879712274443 0 0,0 0.6570359036443878,0.10811500791319985 l -3.0387145572841203 17.52649805944519" fill="#ffd614" stroke="none" /><path d="M 103.94208987418118 79.37332000966035 l 5.550487364674323 -29.04249530468701 a50.56813222894162,50.56813222894162 0 0,0 0.8512386887174356,0.17027157807337046 l -6.048222538922715 28.94293432995078" fill="#9aff23" stroke="none" /><path d="M 104.29559338865022 79.4440306129975 l 0.993342904904092 -4.753505394145526 a25.856186122760732,25.856186122760732 0 0,0 0.4336914531108153,0.09452103366035797 l -1.0747967746340414 4.735752902351449" fill="#ff2503" stroke="none" /><path d="M 104.64783097203109 79.52079915486377 l 4.91999896280427 -21.678423230847383 a43.22971937676539,43.22971937676539 0 0,0 0.7222818348645159,0.17045654635655133 l -5.291412951408671 21.590770540844602" fill="#f0ff19" stroke="none" /><path d="M 106.38641147887787 79.99465700312896 l 5.450274560604871 -17.072907433640484 a38.92176500860429,38.92176500860429 0 0,0 0.6347533107649853,0.20865602105122427 l -5.742550609017599 16.976830491187236" fill="#ffd814" stroke="none" /><path d="M 106.72888874123014 80.10723608172694 l 4.9385380551622005 -14.599910239382137 a36.41254479702494,36.41254479702494 0 0,0 0.5903933965971044,0.20536947047266907 l -5.188437223804323 14.512982336340878" fill="#ffb811" stroke="none" /><path d="M 107.40779381753099 80.34994680014964 l 6.302999487192457 -16.719454981164937 a38.86807145169141,38.86807145169141 0 0,0 0.6223106535924847,0.24072312956503364 l -6.589082403278468 16.608791963461865" fill="#ffd714" stroke="none" /><path d="M 108.73861861582097 80.90454125486305 l 9.872648699025454 -21.573519136784014 a44.725216970126006,44.725216970126006 0 0,0 0.6953946721567538,0.3254798191047704 l -10.241532085053713 21.40086308610871" fill="#deff1b" stroke="none" /><path d="M 109.3889696526874 81.21577127319529 l 16.620914277339274 -33.252962463755665 a58.175452976804515,58.175452976804515 0 0,0 0.8894549673968417,0.45416204397038396 l -17.189296466449694 32.962742468112445" fill="#48ff2c" stroke="none" /><path d="M 110.34350942703115 81.72400993836675 l 11.68378653884767 -20.644131295340614 a44.721109266318464,44.721109266318464 0 0,0 0.6648698646944191,0.383862795357393 l -12.036448871402486 20.44052160270705" fill="#deff1b" stroke="none" /><line stroke="#e1ed5e" stroke-width="0.3" x1="143.13028292997686" x2="145.6673583964461" y1="26.7553504044142" y2="22.446841604673864" /><path d="M 143.63769802327073 25.89364864446614 a86.0,86.0 0 0,1 29.32050498858742,28.57503671076993" fill="none" id="id134" stroke="none" /><text fill="#e1ed5e" style="font-size:6.75px; font-family:Arial;" text-anchor="middle"><textPath startOffset="20.669276256404974" xlink:href="#id134">February</textPath></text><path d="M 110.96478420261332 82.08984904055464 l 12.410688408840988 -20.2719268163986 a44.769228082349684,44.769228082349684 0 0,0 0.652001708284642,0.40689728780746587 l -12.756854245915342 20.055893731749592" fill="#ddff1b" stroke="none" /><path d="M 111.27062007382361 82.28071324371311 l 12.803544291513022 -20.12929823843959 a44.85622338084515,44.85622338084515 0 0,0 0.6461739073997531,0.4188421199248506 l -13.147203831169783 19.906542276810843" fill="#dcff1b" stroke="none" /><path d="M 112.45986205192187 83.09580414077388 l 17.454344907133994 -23.68017107052711 a50.41776092884405,50.41776092884405 0 0,0 0.6922766985544632,0.519497340616839 l -17.858274594599223 23.377054702646255" fill="#9bff22" stroke="none" /><path d="M 112.7482090630111 83.31218511350987 l 9.086902829997939 -11.895047497966875 a35.968766082102846,35.968766082102846 0 0,0 0.48744538717658353,0.3790404813555775 l -9.289758161809749 11.737305964990506" fill="#ffb210" stroke="none" /><path d="M 113.03279911837588 83.53348406188908 l 4.74757864385959 -5.998410525358509 a28.649864823012457,28.649864823012457 0 0,0 0.3830203561184141,0.3085340863005943 l -4.849849770333265 5.916028145264507" fill="#ff4d07" stroke="none" /><path d="M 113.31354834802062 83.75963576809568 l 10.375674382564734 -12.65663568567298 a37.365972191497235,37.365972191497235 0 0,0 0.4925647681714011,0.4109150482816267 l -10.591413484898029 12.476658453479484" fill="#ffc412" stroke="none" /><path d="M 114.13192950727249 84.46653392183569 l 6.226431318872167 -6.843938729665198 a30.252456122784018,30.252456122784018 0 0,0 0.38113805879615287,0.3527756971608945 l -6.342999148982284 6.736045286371929" fill="#ff6409" stroke="none" /><path d="M 114.39649973595853 84.71141617570332 l 21.490003474878108 -22.82163897724864 a52.34720808873013,52.34720808873013 0 0,0 0.6489246930300162,0.6216551766523291 l -21.878600653773436 22.44937167029073" fill="#86ff25" stroke="none" /><path d="M 114.65682725009322 84.96080404539774 l 6.331244789216559 -6.496414905959729 a30.07127704412987,30.07127704412987 0 0,0 0.36659475691941074,0.3634614872262949 l -6.441831466265931 6.386773408504775" fill="#ff6109" stroke="none" /><path d="M 114.91283532996326 85.21462403516908 l 22.243560501105733 -22.05344574177106 a52.32300197700711,52.32300197700711 0 0,0 0.6269122809917694,0.6432672282551385 l -22.618859583248316 21.66835582144818" fill="#86ff25" stroke="none" /><path d="M 115.8921839302757 86.27271002978787 l 14.840740459342856 -12.81907814255483 a40.61061808833426,40.61061808833426 0 0,0 0.45117514187356145,0.5314831826633014 l -15.05861016472353 12.562428177441976" fill="#ffee16" stroke="none" /><path d="M 116.1254893667686 86.54754324733833 l 14.905517580367 -12.434712898645316 a40.411247749961,40.411247749961 0 0,0 0.43981520056140194,0.5365030317336165 l -15.11677960016703 12.177007585213204" fill="#ffeb16" stroke="none" /><path d="M 116.57777611688842 87.10902102172516 l 12.129068861839743 -9.431637308983731 a36.36457268470114,36.36457268470114 0 0,0 0.37896737268583014,0.4960804558618453 l -12.28918821187988 9.222035939881003" fill="#ffb711" stroke="none" /><path d="M 116.7966241395341 87.39550010848427 l 14.340749976159255 -10.761566134786852 a38.92954030509714,38.92954030509714 0 0,0 0.3965214309423969,0.5379574752191536 l -14.523373426685477 10.513802350298823" fill="#ffd814" stroke="none" /><path d="M 117.01052211995028 87.68569379921539 l 12.208375081744883 -8.837922076143464 a36.07160538099885,36.07160538099885 0 0,0 0.3588006540893374,0.5046980538135933 l -12.358290834364182 8.627046795620368" fill="#ffb310" stroke="none" /><path d="M 117.21940702142032 87.97951657250589 l 13.657574421281662 -9.534047646737275 a37.6561521247587,37.6561521247587 0 0,0 0.36546239405091563,0.5332205548962581 l -13.819226552147903 9.298192356770969" fill="#ffc812" stroke="none" /><path d="M 117.42321728460499 88.27688183743584 l 19.677572743500697 -13.239949123996723 a44.71714826621833,44.71714826621833 0 0,0 0.4230573581740993,0.6405627610368642 l -19.90195454059552 12.900206484620801" fill="#deff1b" stroke="none" /><line stroke="#e1ed5e" stroke-width="0.3" x1="172.87174338648825" x2="177.1583165268699" y1="56.24261187166439" y2="53.66864786411523" /><path d="M 173.72905801456457 55.72781907015455 a86.0,86.0 0 0,1 12.242430191666344,42.057860355516425" fill="none" id="id135" stroke="none" /><text fill="#e1ed5e" style="font-size:6.75px; font-family:Arial;" text-anchor="middle"><textPath startOffset="22.145653131862474" xlink:href="#id135">March</textPath></text><path d="M 118.18653347947321 89.5 l 17.51524818690846 -10.112433255634707 a41.22486651126941,41.22486651126941 0 0,0 0.34857908684995603,0.6159058462608746 l -17.686260638779792 9.810270639274716" fill="#fff517" stroke="none" /><path d="M 118.36410011445183 89.81374322990088 l 20.396250119083174 -11.313456121742975 a44.32383562664606,44.32383562664606 0 0,0 0.3633597345720158,0.6685409855526817 l -20.58745520327053 10.96166030271569" fill="#e3ff1b" stroke="none" /><path d="M 118.70294669586156 90.45014215332178 l 15.867608250888296 -8.102113834088609 a38.816431746682284,38.816431746682284 0 0,0 0.2979255160829018,0.5960506045571003 l -16.004353680182934 7.828531373367758" fill="#ffd714" stroke="none" /><path d="M 119.4528033332814 92.08871423366111 l 16.62160885974181 -6.7598636213398615 a38.94362386100872,38.94362386100872 0 0,0 0.24653414084301678,0.6214270829448356 l -16.735201675550947 6.473535521181461" fill="#ffd814" stroke="none" /><path d="M 119.83427380445688 93.10060997987247 l 14.085739745854303 -4.899751469944071 a35.913605488115834,35.913605488115834 0 0,0 0.1975497617988619,0.5840207684660531 l -14.16777492922553 4.657229027003857" fill="#ffb110" stroke="none" /><path d="M 120.16314734710363 94.1308016681162 l 23.47123377069437 -6.83213407722294 a45.4453854698128,45.4453854698128 0 0,0 0.21160563426143686,0.7509137453903897 l -23.585057897030385 6.4282124079295375" fill="#d5ff1c" stroke="none" /><path d="M 120.26092885502905 94.47779374421319 l 8.866105506598311 -2.4164964816433088 a30.189520232304154,30.189520232304154 0 0,0 0.1319864536563783,0.5011740626958604 l -8.90628144105942 2.2639419145746498" fill="#ff6309" stroke="none" /><path d="M 120.43855184770803 95.1765574152323 l 21.64581695567256 -5.108353863034874 a43.24042874740649,43.24042874740649 0 0,0 0.16429126455393706,0.7238976253973352 l -21.730319081784163 4.7360219036985125" fill="#f0ff19" stroke="none" /><path d="M 120.592083275326 95.88100663000786 l 15.247809574639673 -3.0499889547406243 a36.54985946716282,36.54985946716282 0 0,0 0.1177840241290008,0.6162957850340561 l -15.297919891050832 2.7877906046732535" fill="#ffb911" stroke="none" /><path d="M 120.65975698304385 96.23510406497455 l 15.232972827972644 -2.7759550862799056 a36.483842798827304,36.483842798827304 0 0,0 0.10699352939763868,0.6171102451415867 l -15.278381174862517 2.5140518082177263" fill="#ffb811" stroke="none" /><path d="M 120.77682067341334 96.94652285012252 l 26.958432466995824 -3.961961208040957 a48.24801309621668,48.24801309621668 0 0,0 0.11339542912448625,0.8204728372749697 l -27.022472412675523 3.498600062565902" fill="#b4ff20" stroke="none" /><path d="M 120.96210409425399 98.7389718711861 l 15.235949833934674 -0.9165569078084963 a36.26349383029408,36.26349383029408 0 0,0 0.032047276487697215,0.6217086023626082 l -15.249438699878944 0.6548765120691575" fill="#ffb610" stroke="none" /><path d="M 120.98066250479742 99.09900007780936 l 31.230254802489412 -1.3411615167348867 a52.259039160575355,52.259039160575355 0 0,0 0.030796284136004323,0.8966002109263634 l -31.248675773622264 0.8048550412444034" fill="#87ff25" stroke="none" /><path d="M 120.99303781780057 99.45929381324524 l 41.84626446851748 -1.0778113337898008 a62.86014246560031,62.86014246560031 0 0,0 0.01852449006504599,1.078958676873785 l -41.858600390181195 0.3593057409469492" fill="#32ff4b" stroke="none" /><line stroke="#e1ed5e" stroke-width="0.3" x1="184.99686870605535" x2="189.99668451229388" y1="99.2704041080226" y2="99.22748670261217" /><path d="M 185.99683186730306 99.26182062694052 a86.0,86.0 0 0,1 -10.086455211305974,41.156179273409016" fill="none" id="id136" stroke="none" /><text fill="#e1ed5e" style="font-size:6.75px; font-family:Arial;" text-anchor="middle"><textPath startOffset="21.40746469413373" xlink:href="#id136">April</textPath></text><path d="M 120.86939407059847 102.33845913500097 l 15.365237601011424 1.7217069220120074 a36.46139713159323,36.46139713159323 0 0,0 -0.07503740552787348,0.6214173610287577 l -15.333418109223887 -1.9852179599641735" fill="#ffb811" stroke="none" /><path d="M 120.65975698304385 103.76489593502545 l 17.806752774357935 3.2449835296323077 a39.100010013110186,39.100010013110186 0 0,0 -0.1260020309234222,0.6592958691816208 l -17.748424451152353 -3.5501819638472427" fill="#ffda14" stroke="none" /><path d="M 120.592083275326 104.11899336999214 l 19.01621015596201 3.80377461121862 a40.39290978653446,40.39290978653446 0 0,0 -0.14184122067257057,0.6787615880181243 l -18.948111224465077 -4.129652650522154" fill="#ffeb16" stroke="none" /><path d="M 120.43855184770803 104.8234425847677 l 9.28522320066716 2.1912873930054615 a30.540288796726877,30.540288796726877 0 0,0 -0.1247970344073234,0.509214487474306 l -9.24623863974354 -2.3503577050878675" fill="#ff6809" stroke="none" /><path d="M 119.83427380445688 106.89939002012753 l 15.94563158524326 5.546718398086073 a37.882809352710645,37.882809352710645 0 0,0 -0.2189262524429848,0.6123756918729122 l -15.848065162756333 -5.819629046339907" fill="#ffcb12" stroke="none" /><path d="M 119.71291397450082 107.23885506374661 l 14.251429162921463 5.233322191487544 a36.18192656897287,36.18192656897287 0 0,0 -0.21910623143106678,0.5812053102571558 l -14.159492247675955 -5.477195781938859" fill="#ffb410" stroke="none" /><path d="M 119.58574465831526 107.57618678355244 l 14.45858923621963 5.592892922442673 a36.502620873376074,36.502620873376074 0 0,0 -0.23108127552932473,0.582475767795583 l -14.360449285724181 -5.84026970745182" fill="#ffb911" stroke="none" /><path d="M 118.8641267826498 109.22738970284198 l 13.882388157038257 6.790571702949315 a36.454208649930024,36.454208649930024 0 0,0 -0.27979488161873045,0.5597771903982123 l -13.763773362207793 -7.027880749511272" fill="#ffb811" stroke="none" /><path d="M 118.70294669586154 109.54985784667822 l 14.056967095296796 7.177587558714576 a36.78341176936315,36.78341176936315 0 0,0 -0.291976092263082,0.5599026554052846 l -13.931682934058767 -7.417836457224364" fill="#ffbc11" stroke="none" /><path d="M 118.5362547648365 109.86951160357373 l 19.623903354884277 10.4486232157237 a43.2322133397914,43.2322133397914 0 0,0 -0.35441078918413654,0.6520759339797002 l -19.441647216084803 -10.783953983178003" fill="#f0ff19" stroke="none" /><line stroke="#e1ed5e" stroke-width="0.3" x1="174.33088141563837" x2="178.70328620479359" y1="141.23008692659167" y2="143.65538615756765" /><path d="M 175.20536237346943 141.71514677278685 a86.0,86.0 0 0,1 -30.301960400862466,31.631185727798858" fill="none" id="id137" stroke="none" /><text fill="#e1ed5e" style="font-size:6.75px; font-family:Arial;" text-anchor="middle"><textPath startOffset="22.145653131862474" xlink:href="#id137">May</textPath></text><path d="M 118.36410011445183 110.18625677009912 l 7.904050457819138 4.384243550480585 a30.03856211737694,30.03856211737694 0 0,0 -0.25399268546566306,0.4487807381087608 l -7.827624407332096 -4.519281058688469" fill="#ff6108" stroke="none" /><path d="M 117.62189284568427 111.42229804090321 l 8.134383950830596 5.2726094000896175 a30.693740874680103,30.693740874680103 0 0,0 -0.2903855328523283,0.43968070781669544 l -8.04267397905754 -5.411469986245375" fill="#ff6a09" stroke="none" /><path d="M 116.1254893667686 113.45245675266167 l 11.96915900506359 9.985098139915541 a36.58726891255295,36.58726891255295 0 0,0 -0.40647660684408315,0.47882842079143983 l -11.795987834712392 -10.189093343156538" fill="#ffba11" stroke="none" /><path d="M 115.6541949942343 113.99807769240083 l 11.610154218834515 10.381871494245441 a36.57494580113032,36.57494580113032 0 0,0 -0.42253171156846897,0.4644363676750554 l -11.430224806424166 -10.579645437478169" fill="#ffba11" stroke="none" /><path d="M 115.16444852881244 114.52719865689866 l 11.178491434787562 10.708741926820089 a36.48017520614199,36.48017520614199 0 0,0 -0.4370901703903048,0.44849302036281025 l -10.99301446324645 -10.899057639250637" fill="#ffb811" stroke="none" /><path d="M 113.31354834802062 116.24036423190432 l 10.001507240440839 12.200212611008121 a36.775783176577704,36.775783176577704 0 0,0 -0.4916558474479264,0.39604314821270914 l -9.79060062263766 -12.370104053014234" fill="#ffbc11" stroke="none" /><path d="M 111.5731344415666 117.5232005979908 l 17.230869332583467 26.089732329399574 a52.26622764223856,52.26622764223856 0 0,0 -0.7529183242620477,0.48803256128553646 l -16.78046537606441 -26.381678732389005" fill="#87ff25" stroke="none" /><line stroke="#e1ed5e" stroke-width="0.3" x1="143.1302829299769" x2="145.66735839644613" y1="173.24464959558577" y2="177.55315839532614" /><path d="M 143.63769802327073 174.10635135553383 a86.0,86.0 0 0,1 -40.68552437913181,11.842963189579606" fill="none" id="id138" stroke="none" /><text fill="#e1ed5e" style="font-size:6.75px; font-family:Arial;" text-anchor="middle"><textPath startOffset="21.407464694133747" xlink:href="#id138">June</textPath></text><path d="M 110.34350942703117 118.27599006163325 l 7.62090068210724 13.465401284683958 a36.47239990964915,36.47239990964915 0 0,0 -0.5475302877815252,0.3037058209217533 l -7.38862620616962 -13.594240021038855" fill="#ffb811" stroke="none" /><path d="M 110.02825361518725 118.45085714620011 l 7.469190933876818 13.742470045825703 a36.64110917317325,36.64110917317325 0 0,0 -0.5552195590899823,0.2956231423493833 l -7.2321825590002815 -13.868663655897654" fill="#ffbb11" stroke="none" /><path d="M 107.06938296918513 119.77432235084164 l 5.342521349279249 14.943983058691021 a36.87026036415121,36.87026036415121 0 0,0 -0.5978148017709857,0.20795102043496388 l -5.085200775463241 -15.033492511694575" fill="#ffbe11" stroke="none" /><path d="M 106.38641147887787 120.00534299687104 l 4.707483198576184 14.7461240715531 a36.47929498389752,36.47929498389752 0 0,0 -0.5981898539973466,0.1853207458709595 l -4.453652711707213 -14.824761405230705" fill="#ffb811" stroke="none" /><path d="M 106.0420521117495 120.11202640906438 l 4.500209367136949 14.979733369424745 a36.64110917317325,36.64110917317325 0 0,0 -0.6039501464536372,0.17580108556890695 l -4.2423992083017055 -15.054778149296169" fill="#ffbb11" stroke="none" /><path d="M 105.3480935250658 120.30758222061773 l 4.0009359189747045 15.192205363125517 a36.71020661936442,36.71020661936442 0 0,0 -0.610778660828948,0.15525754715134227 l -3.7395519649203592 -15.25864814211213" fill="#ffbb11" stroke="none" /><path d="M 103.2317021107853 120.74984581791261 l 1.1652089317537926 7.481477206347655 a28.57167174696172,28.57167174696172 0 0,0 -0.4852760953790213,0.07131887462058946 l -1.0366077307670858 -7.500377154267127" fill="#ff4c07" stroke="none" /><path d="M 102.15924093988457 120.88869738790638 l 1.6150826780718495 15.624459825449529 a36.707712656338416,36.707712656338416 0 0,0 -0.6273530523570123,0.0594109863147187 l -1.346630062329822 -15.649882567269431" fill="#ffbb11" stroke="none" /><path d="M 101.44090949804482 120.95050786540614 l 1.088289530579214 15.823490927901304 a36.86087132687682,36.86087132687682 0 0,0 -0.6316472729664332,0.037998331423114935 l -0.8164979054803158 -15.83984123714911" fill="#ffbd11" stroke="none" /><path d="M 101.08105385017728 120.97215588758144 l 0.9225146246879431 17.896537267182858 a38.92029797153016,38.92029797153016 0 0,0 -0.6675280342421406,0.028666525986710205 l -0.615160829844973 -17.9097363615954" fill="#ffd814" stroke="none" /><path d="M 100.72087961077811 120.9876233191556 l 0.6613710397837995 19.255096204202616 a40.26645119074509,40.26645119074509 0 0,0 -0.6910234713697511,0.017798313393481376 l -0.33073425434330467 -19.263612234946144" fill="#ffe915" stroke="none" /><line stroke="#e1ed5e" stroke-width="0.3" x1="101.45913802915013" x2="101.54496967792366" y1="184.9874750549273" y2="189.98673829345242" /><path d="M 101.47630435890484 185.9873277026323 a86.0,86.0 0 0,1 -42.54439059252881,-10.42667462771756" fill="none" id="id139" stroke="none" /><text fill="#e1ed5e" style="font-size:6.75px; font-family:Arial;" text-anchor="middle"><textPath startOffset="22.145653131862474" xlink:href="#id139">July</textPath></text><path d="M 98.91894614982273 120.97215588758144 l -0.8041124218287512 15.599566163117526 a36.620277246720704,36.620277246720704 0 0,0 -0.6275244568432435,-0.03775031304299744 l 1.071781230804441 -15.583463872249837" fill="#ffba11" stroke="none" /><path d="M 96.05791012581884 120.62667999033965 l -2.9204018014103332 15.280776269316984 a36.55734135624085,36.55734135624085 0 0,0 -0.6153880309083615,-0.12309484112864363 l 3.1822863178496528 -15.22839203152548" fill="#ffb911" stroke="none" /><path d="M 94.6519064749342 120.30758222061772 l -4.005307179083406 15.208803749756008 a36.72737095313166,36.72737095313166 0 0,0 -0.6083077482033346,-0.16579698179721838 l 4.265796328221436 -15.137806273814645" fill="#ffbc11" stroke="none" /><path d="M 93.95794788825049 120.11202640906438 l -2.560784885101173 8.524020032355343 a29.900367224994586,29.900367224994586 0 0,0 -0.4903081683097563,-0.1518987238760314 l 2.706733686282563 -8.478804720672663" fill="#ff5f08" stroke="none" /><path d="M 92.25597844496254 119.51999308798841 l -1.8204276203052647 4.5886667945063655 a25.936579754422652,25.936579754422652 0 0,0 -0.41244786195084643,-0.16773895482848342 l 1.8989299434465519 -4.556740583098591" fill="#ff2603" stroke="none" /><path d="M 91.59046798132341 119.24265499422711 l -2.0287471913292894 4.64217059719338 a26.06611912806768,26.06611912806768 0 0,0 -0.4084766878388301,-0.1827064268565926 l 2.1081372820237547 -4.606660419426933" fill="#ff2803" stroke="none" /><path d="M 91.26138138417905 119.09545874513695 l -3.218460766385033 7.032917614241661 a28.73436615848192,28.73436615848192 0 0,0 -0.4467664214520699,-0.2091092437986447 l 3.338715901708593 -6.97663213887249" fill="#ff4e07" stroke="none" /><path d="M 90.93487009805054 118.94263497670748 l -6.658243417039505 13.913167930215943 a36.42428109361792,36.42428109361792 0 0,0 -0.561696671912645,-0.27475398921165256 l 6.896100338214219 -13.796820190907068" fill="#ffb811" stroke="none" /><path d="M 90.6110303473126 118.78422872680471 l -8.233158950094653 16.471833074724117 a39.414836169216905,39.414836169216905 0 0,0 -0.6026205216454502,-0.30770233219338095 l 8.514706693453686 -16.328072790857902" fill="#ffde14" stroke="none" /><path d="M 90.28995756902619 118.62028667847754 l -9.671196563253021 18.545794605103275 a41.91598767688858,41.91598767688858 0 0,0 -0.6351493369589807,-0.3381812470019819 l 9.988134715998564 -18.37704289037872" fill="#fffe18" stroke="none" /><path d="M 89.97174638481275 118.45085714620012 l -10.694442180993322 19.676569072901348 a43.395054455019014,43.395054455019014 0 0,0 -0.6514544343917693,-0.36135079319852104 l 11.030640803541194 -19.490085364269678" fill="#eeff19" stroke="none" /><line stroke="#e1ed5e" stroke-width="0.3" x1="58.13341422392154" x2="55.67067388415222" y1="173.97424548756322" y2="178.32567169271397" /><path d="M 57.64086615596768 174.84453072859336 a86.0,86.0 0 0,1 -31.369924170532247,-30.572349798747897" fill="none" id="id140" stroke="none" /><text fill="#e1ed5e" style="font-size:6.75px; font-family:Arial;" text-anchor="middle"><textPath startOffset="22.145653131862474" xlink:href="#id140">August</textPath></text><path d="M 89.34428304082925 118.09573695890944 l -2.500800894496804 4.246906646152259 a25.928511050514977,25.928511050514977 0 0,0 -0.38160254461680715,-0.22914136371072846 l 2.5733361956710383 -4.203351281905611" fill="#ff2603" stroke="none" /><path d="M 88.72937992617639 117.7192867562869 l -9.544295661637662 15.00521804546719 a38.78342341251452,38.78342341251452 0 0,0 -0.55869251488312,-0.36213773821577144 l 9.800473808777792 -14.839166465547525" fill="#ffd614" stroke="none" /><path d="M 87.54013794807813 116.9041958592261 l -4.930912278490132 6.689729514894851 a29.31061832119729,29.31061832119729 0 0,0 -0.40245853267117,-0.3020123858968503 l 5.045023800072069 -6.604098101733985" fill="#ff5708" stroke="none" /><path d="M 87.2517909369889 116.68781488649013 l -4.6388321011519 6.0723801289187795 a28.64150271168996,28.64150271168996 0 0,0 -0.38814699249762397,-0.30182544905224706 l 4.7423890382847524 -5.991853628245739" fill="#ff4d07" stroke="none" /><path d="M 85.34317274990678 115.03919595460226 l -5.335901926131941 5.475105443514563 a28.645170304375263,28.645170304375263 0 0,0 -0.34920928796063466,-0.34622461112642083 l 5.4291031342225375 -5.3827008221594825" fill="#ff4d07" stroke="none" /><path d="M 81.99639281039703 110.81064883170644 l -6.550668970279328 3.93348850064572 a28.640915896860307,28.640915896860307 0 0,0 -0.24948459445228313,-0.42367938392200444 l 6.617227274861381 -3.820457948430157" fill="#ff4d07" stroke="none" /><line stroke="#e1ed5e" stroke-width="0.3" x1="26.387840678322732" x2="22.057713659400548" y1="142.50000000000003" y2="145.00000000000006" /><path d="M 25.521815274538298 143.00000000000003 a86.0,86.0 0 0,1 -11.493303480769221,-40.785679425670985" fill="none" id="id141" stroke="none" /><text fill="#e1ed5e" style="font-size:6.75px; font-family:Arial;" text-anchor="middle"><textPath startOffset="21.40746469413373" xlink:href="#id141">September</textPath></text><path d="M 81.4637452351635 109.86951160357371 l -4.2808843644403956 2.279329802293773 a25.849877863342005,25.849877863342005 0 0,0 -0.20518885989534247,-0.39347669401461993 l 4.319381293310687 -2.20550686517465" fill="#ff2503" stroke="none" /><path d="M 80.83023694016515 108.57439118712176 l -13.598288554235546 6.082341507061934 a35.896587858056016,35.896587858056016 0 0,0 -0.24677385894782805,-0.5646668826256953 l 13.700696295200343 -5.848012554660389" fill="#ffb110" stroke="none" /><path d="M 80.68587082218212 108.24405325689762 l -17.727169861225914 7.566674691078575 a40.27451989465277,40.27451989465277 0 0,0 -0.26595404919473736,-0.6381929008952759 l 17.854449754957137 -7.2612492807420175" fill="#ffe915" stroke="none" /><path d="M 80.41425534168474 107.57618678355246 l -14.66136221747385 5.671329867651583 a36.72003576776105,36.72003576776105 0 0,0 -0.22236484947122026,-0.5898491817557784 l 14.756557750759505 -5.41881240570166" fill="#ffbc11" stroke="none" /><path d="M 79.2786578344484 103.40968896794605 l -7.752173452626012 1.2756171915816383 a28.856423643048924,28.856423643048924 0 0,0 -0.07623387266392251,-0.4894761489927023 l 7.772928817428202 -1.142352860657486" fill="#ff5007" stroke="none" /><line stroke="#e1ed5e" stroke-width="0.3" x1="15.003131293944662" x2="10.003315487706104" y1="100.72959589197737" y2="100.7725132973878" /><path d="M 14.003168132696942 100.73817937305945 a86.0,86.0 0 0,1 10.791469493833604,-42.45332614584628" fill="none" id="id142" stroke="none" /><text fill="#e1ed5e" style="font-size:6.75px; font-family:Arial;" text-anchor="middle"><textPath startOffset="22.145653131862435" xlink:href="#id142">October</textPath></text><path d="M 79.83685265289637 94.1308016681162 l -8.806413784612777 -2.5634187066510923 a30.171915787414683,30.171915787414683 0 0,0 0.1490258160957731,-0.496058473762937 l 8.761111648513374 2.714214784004753" fill="#ff6309" stroke="none" /><path d="M 79.94057633289273 93.78553927170692 l -8.738550244556073 -2.707225203386955 a30.14829649052131,30.14829649052131 0 0,0 0.15739605021761066,-0.49304088553800757 l 8.690789478561205 2.856835122616354" fill="#ff6209" stroke="none" /><path d="M 80.16572619554312 93.10060997987247 l -8.425699386232806 -2.9308956219464175 a29.920905744032304,29.920905744032304 0 0,0 0.17291409682033154,-0.48367150350096494 l 8.37414511936853 3.075102081828304" fill="#ff5f08" stroke="none" /><path d="M 80.41425534168474 92.42381321644754 l -8.719922313301536 -3.3730532760515395 a30.349573977090937,30.349573977090937 0 0,0 0.19212917041561361,-0.48429101751068054 l 8.660734467919792 3.522245310775803" fill="#ff6509" stroke="none" /><path d="M 80.5471966667186 92.08871423366112 l -13.881962425929961 -5.645673267112862 a35.986077119577494,35.986077119577494 0 0,0 0.2376351834763125,-0.5702379322921407 l 13.78300139791717 5.883143708846266" fill="#ffb210" stroke="none" /><path d="M 80.83023694016515 91.42560881287825 l -7.678047270770133 -3.4342928833968975 a29.411110360774686,29.411110360774686 0 0,0 0.21010111714185206,-0.4591088581696273 l 7.617961688773234 3.565590723781196" fill="#ff5808" stroke="none" /><path d="M 80.9802524753101 91.09779779509293 l -13.648128313869769 -6.388013185288957 a36.069111417972834,36.069111417972834 0 0,0 0.2672905658853236,-0.5585344807021991 l 13.536458490024541 6.621360168056243" fill="#ffb310" stroke="none" /><path d="M 81.1358732173502 90.77261029715801 l -6.863771724473199 -3.3574146984271627 a28.640915896860307,28.640915896860307 0 0,0 0.21982596714052788,-0.4397991898585766 l 6.805125844120927 3.4747457444495096" fill="#ff4d07" stroke="none" /><path d="M 81.46374523516351 90.13048839642627 l -7.980219024391786 -4.2490171428645285 a30.040909376695534,30.040909376695534 0 0,0 0.2462705833800931,-0.4531101353854899 l 7.906103091396343 4.385382111724637" fill="#ff6108" stroke="none" /><line stroke="#e1ed5e" stroke-width="0.3" x1="26.387840678322718" x2="22.05771365940052" y1="57.49999999999999" y2="54.99999999999999" /><path d="M 25.521815274538284 56.99999999999999 a86.0,86.0 0 0,1 29.574782752854787,-30.34633250058573" fill="none" id="id143" stroke="none" /><text fill="#e1ed5e" style="font-size:6.75px; font-family:Arial;" text-anchor="middle"><textPath startOffset="21.40746469413373" xlink:href="#id143">November</textPath></text><path d="M 81.99639281039701 89.18935116829357 l -6.681471054011199 -4.012031393677575 a28.79348775256906,28.79348775256906 0 0,0 0.2580884195283231,-0.42156803720178726 l 6.611614670027483 4.126136547003905" fill="#ff4f07" stroke="none" /><path d="M 82.37810715431573 88.57770195909679 l -12.563811269486646 -8.143710673219823 a35.97228697108074,35.97228697108074 0 0,0 0.34032449034685786,-0.515294654431558 l 12.42216234021906 8.358185205990441" fill="#ffb210" stroke="none" /><path d="M 82.98947788004972 87.6856937992154 l -14.145957752770832 -10.240582507851435 a38.463609330355794,38.463609330355794 0 0,0 0.39177563596571857,-0.5315188928769777 l 13.968080097221295 10.481907709997275" fill="#ffd213" stroke="none" /><path d="M 83.2033758604659 87.39550010848427 l -11.97788683000884 -8.988429579375099 a35.9753677489364,35.9753677489364 0 0,0 0.3749113378955417,-0.4907709761208878 l 11.821823514758993 9.192721468736872" fill="#ffb210" stroke="none" /><path d="M 83.42222388311158 87.10902102172516 l -6.0229584491626165 -4.683488919607346 a28.629619711389562,28.629619711389562 0 0,0 0.30501938130494716,-0.3853820240817572 l 5.941672637216108 4.786190887603787" fill="#ff4d07" stroke="none" /><path d="M 83.64595745247003 86.82634096563983 l -11.599097355471432 -9.3434117725472 a35.89424059873742,35.89424059873742 0 0,0 0.39065442189787347,-0.47653487519491977 l 11.436996114334928 9.541148929440613" fill="#ffb110" stroke="none" /><path d="M 83.8745106332314 86.54754324733833 l -11.38968273285609 -9.50167842385224 a35.83262504162427,35.83262504162427 0 0,0 0.3980926774296214,-0.4689521730222946 l 11.224895491919353 9.695797379324091" fill="#ffb010" stroke="none" /><path d="M 84.10781606972428 86.27271002978789 l -11.282848486269659 -9.745855795560589 a35.90920437689347,35.90920437689347 0 0,0 0.4069520639881109,-0.4630367456584511 l 11.113885358322955 9.93810481903034" fill="#ffb110" stroke="none" /><path d="M 84.83555147118756 85.47280134310135 l -10.752094277613386 -10.300263095741135 a35.88969278380764,35.88969278380764 0 0,0 0.4300152574785143,-0.4412335364495077 l 10.57369221898407 10.483319324258373" fill="#ffb110" stroke="none" /><path d="M 85.08716467003674 85.21462403516908 l -10.638179292076844 -10.547255229098178 a35.98050237869583,35.98050237869583 0 0,0 0.4386333012727968,-0.4348843212251318 l 10.45555407067407 10.728319560551984" fill="#ffb210" stroke="none" /><path d="M 85.34317274990677 84.96080404539775 l -10.349784172765789 -10.619790327478654 a35.828957448938965,35.828957448938965 0 0,0 0.44415540127239084,-0.425490827217301 l 10.165956285628098 10.795893285001522" fill="#ffb010" stroke="none" /><path d="M 85.60350026404147 84.71141617570332 l -10.168269450264072 -10.798349785684682 a35.83233163420944,35.83233163420944 0 0,0 0.45143657975319323,-0.4178429586627497 l 9.981403099196925 10.971310490479798" fill="#ffb010" stroke="none" /><path d="M 86.40962598614128 83.9905735841838 l -9.597667407105064 -11.306028072578348 a35.83042448601309,35.83042448601309 0 0,0 0.47232291026676243,-0.3940285704909569 l 9.402170162676393 11.469118826981186" fill="#ffb010" stroke="none" /><path d="M 86.96720088162412 83.53348406188908 l -13.801437366293747 -17.437665254924646 a43.23852159921013,43.23852159921013 0 0,0 0.5859644407528277,-0.4556494933036342 l 13.500062980905675 17.672015799849085" fill="#f0ff19" stroke="none" /><path d="M 87.25179093698888 83.31218511350988 l -9.091177594643462 -11.900643302109629 a35.97580786005864,35.97580786005864 0 0,0 0.4939769841889986,-0.3706895380820424 l 8.885547621543711 12.05495186745567" fill="#ffb210" stroke="none" /><path d="M 87.83215693770416 82.88440491214696 l -9.913500912638542 -13.944580535358108 a38.109319876955176,38.109319876955176 0 0,0 0.5364429536979592,-0.37447884394049674 l 9.672662867766817 14.112704195103733" fill="#ffce13" stroke="none" /><path d="M 88.12776184653039 82.6780497279521 l -8.550011938908584 -12.474722939070086 a36.123538493422785,36.123538493422785 0 0,0 0.5145087833549545,-0.3461844712386613 l 8.334606867456639 12.619657084365857" fill="#ffb410" stroke="none" /><path d="M 88.4268655584334 82.4767994020092 l -8.37551628625916 -12.681599158541463 a36.19777056937339,36.19777056937339 0 0,0 0.5214450322618678,-0.33799436999199195 l 8.156585621740266 12.823507370237362" fill="#ffb510" stroke="none" /><path d="M 88.72937992617638 82.28071324371311 l -9.612322979338177 -15.112168287929512 a38.91017541571872,38.91017541571872 0 0,0 0.5666727332005708,-0.3536456964512956 l 9.351486117347909 15.274949781222345" fill="#ffd814" stroke="none" /><path d="M 89.03521579738668 82.08984904055464 l -7.776998083354216 -12.703141905063102 a35.89468070985966,35.89468070985966 0 0,0 0.528279524821303,-0.3172166759515817 l 7.557785801975478 12.834772581550608" fill="#ffb110" stroke="none" /><line stroke="#e1ed5e" stroke-width="0.3" x1="56.869717070023135" x2="54.33264160355391" y1="26.7553504044142" y2="22.446841604673864" /><path d="M 56.362301976729285 25.89364864446614 a86.0,86.0 0 0,1 42.16139366436587,-11.88097634709845" fill="none" id="id144" stroke="none" /><text fill="#e1ed5e" style="font-size:6.75px; font-family:Arial;" text-anchor="middle"><textPath startOffset="22.145653131862474" xlink:href="#id144">December</textPath></text><path d="M 89.34428304082924 81.90426304109057 l -7.596419993499327 -12.90038188499912 a35.97081993400661,35.97081993400661 0 0,0 0.5347790914587688,-0.308754852410702 l 7.373848434180159 13.028883634685997" fill="#ffb210" stroke="none" /><path d="M 89.65649057296885 81.72400993836675 l -7.342271413898168 -12.973090065499365 a35.90671041386746,35.90671041386746 0 0,0 0.539038054388929,-0.2989953222123474 l 7.118489171353137 13.097218303144858" fill="#ffb110" stroke="none" /><path d="M 90.28995756902619 81.37971332152246 l -6.893355243635887 -13.218917602630265 a35.908324154648994,35.908324154648994 0 0,0 0.5490088285686873,-0.28032781970995285 l 6.6654191933536175 13.335303374013051" fill="#ffb110" stroke="none" /><path d="M 91.5904679813234 80.7573450057729 l -25.22859605602979 -57.7279649826813 a84.0,84.0 0 0,0 1.3262596993182754,-0.5661014013623844 l 24.233901281541083 58.15254103370309" fill="#4dd2ff" stroke="none" /></svg>