<?xml version="1.0" encoding="utf-8" ?>
<svg baseProfile="full" height="200mm" version="1.1" viewBox="0,0,200,200" width="200mm" xmlns="http://www.w3.org/2000/svg" xmlns:ev="http://www.w3.org/2001/xml-events" xmlns:xlink="http://www.w3.org/1999/xlink"><defs /><rect fill="#1a1a1a" height="200" width="200" x="0" y="0" /><text alignment-baseline="middle" fill="#e1ed5e" style="dominant-baseline: central; font-size:9.0px; font-family:Arial;" text-anchor="middle" x="100.0" y="100.0">2023</text><line stroke="#e1ed5e" stroke-width="0.3" x1="100.0" x2="100.0" y1="15.0" y2="10.0" /><path d="M 100.0 14.0 a86.0,86.0 0 0,1 42.46469731375804,11.215312516191453" fill="none" id="id121" stroke="none" /><text fill="#e1ed5e" style="font-size:6.75px; font-family:Arial;" text-anchor="middle"><textPath startOffset="22.20632615414155" xlink:href="#id121">January</textPath></text><path d="M 100.0 79.0 l 0.0 -17.765669570852026 a38.765669570852026,38.765669570852026 0 0,0 0.667287276942479,0.005743552262755777 l -0.30580679766995067 17.76303739519783" fill="#ffde14" stroke="none" /><path d="M 100.36148047927253 79.00311137660856 l 0.5371961608696154 -31.203477381109018 a52.208101198064504,52.208101198064504 0 0,0 0.8984103428586392,0.023203288587345647 l -1.0742331389231226 31.189607300379315" fill="#83ff25" stroke="none" /><path d="M 100.72285384407766 79.0124445844662 l 1.0740651269153287 -31.18472918932971 a52.20322019453582,52.20322019453582 0 0,0 0.8977938834311902,0.03866089318014759 l -1.6106998427358503 31.161620569625363" fill="#83ff25" stroke="none" /><path d="M 101.08401301168833 79.027996857942 l 1.1459712279727852 -22.170686084590347 a43.200283140464435,43.200283140464435 0 0,0 0.742300078950183,0.04477756789586098 l -1.52743335576258 22.147675247314183" fill="#e9ff1a" stroke="none" /><path d="M 101.44485096284872 79.0497635885617 l 1.7305260009113121 -25.09250418724948 a46.152107001739694,46.152107001739694 0 0,0 0.7920796259536177,0.06148062346779041 l -2.162195816227271 25.058998301593228" fill="#c7ff1e" stroke="none" /><path d="M 101.80526077348638 79.07773832637324 l 0.2556474768220447 -2.9628536136325785 a23.97386233175329,23.97386233175329 0 0,0 0.41083765046646176,0.03901398528836898 l -0.30661025437875067 2.958014083829031" fill="#ff1502" stroke="none" /><path d="M 102.16513564639614 79.11191278185805 l 3.217043969125259 -31.036344130926317 a52.202628557744454,52.202628557744454 0 0,0 0.8929963020121855,0.1003385394315114 l -3.75080697464717 30.976369638024206" fill="#83ff25" stroke="none" /><path d="M 102.52436894288641 79.15227682838746 l 5.528723404632373 -45.65944901080869 a66.99295670486481,66.99295670486481 0 0,0 1.1436184891621701,0.1484745019636571 l -6.3138566223023895 45.5575161856809" fill="#38ff7e" stroke="none" /><path d="M 102.88285421437855 79.19881850522331 l 3.6543145220374322 -26.367639137896752 a47.61966206269941,47.61966206269941 0 0,0 0.8109651569107643,0.11951518348070998 l -4.107648659376853 26.300829470255074" fill="#b6ff1f" stroke="none" /><path d="M 103.2404852339499 79.25152402106235 l 2.282711743803659 -14.615956057117241 a35.79313842187929,35.79313842187929 0 0,0 0.6079222426529912,0.10031237891651912 l -2.5339631925955253 14.574497415261098" fill="#ffb811" stroke="none" /><path d="M 103.95276090670814 79.375362276772 l 5.876676010054858 -30.66320391867714 a52.221265116672186,52.221265116672186 0 0,0 0.8813795474986323,0.17679644563993688 l -6.403621967020616 30.557503516959997" fill="#83ff25" stroke="none" /><path d="M 104.307194497241 79.44645832069477 l 6.399617503870179 -30.538394581824036 a52.20174110255742,52.20174110255742 0 0,0 0.8778773658200947,0.1918699899529248 l -6.924337593843801 30.423711093775243" fill="#83ff25" stroke="none" /><path d="M 104.66035177308747 79.52364482259891 l 4.594867428308956 -20.18863425685006 a41.704921150310966,41.704921150310966 0 0,0 0.6986096856083364,0.16533834140981593 l -4.941700800879816 20.10655000329938" fill="#fcff18" stroke="none" /><path d="M 105.01212808612495 79.60689891045804 l 4.948478765174084 -20.134127852200915 a41.73331971629607,41.73331971629607 0 0,0 0.6961338543945003,0.17746001955199778 l -5.294321508253609 20.04596483648005" fill="#fbff18" stroke="none" /><path d="M 105.36241919743992 79.69619591428918 l 0.7552309445200256 -2.8595416681190424 a23.957592319990983,23.957592319990983 0 0,0 0.3978125243380319,0.10873719035675057 l -0.8043413580817684 2.846117936935998" fill="#ff1502" stroke="none" /><path d="M 105.71112130821622 79.79150937346287 l 10.45627675461129 -36.998963842713124 a59.44810852309145,59.44810852309145 0 0,0 0.9823369140643828,0.2867710826672109 l -11.091603886399099 36.813494431127204" fill="#38ff2e" stroke="none" /><path d="M 106.0581310904928 79.89281104454417 l 8.998338015830948 -29.8658579794213 a52.19197909550004,52.19197909550004 0 0,0 0.8579730767115729,0.26657641133322096 l -9.511096465253239 29.706541433205558" fill="#83ff25" stroke="none" /><path d="M 106.40334571778207 80.00007090966166 l 7.215292787117894 -22.53592894534058 a44.66280928869763,44.66280928869763 0 0,0 0.7301671255105149,0.24072462130988934 l -7.602142734870826 22.40839059977145" fill="#d8ff1c" stroke="none" /><path d="M 106.74666289553966 80.11325718540242 l 6.182377882371977 -18.223432952411297 a40.24357827566048,40.24357827566048 0 0,0 0.6540884517319625,0.22819861744586362 l -6.495148338167213 18.114313481793225" fill="#fff116" stroke="none" /><path d="M 107.08798089147638 80.2323363322302 l 8.518417198842068 -23.75700622598339 a46.23804224568423,46.23804224568423 0 0,0 0.746893388162398,0.2750871381528045 l -8.926092912777042 23.606855820024258" fill="#c6ff1e" stroke="none" /><path d="M 107.4271985657038 80.35727306442388 l 11.037978707831437 -29.192164415775338 a52.209284471647216,52.209284471647216 0 0,0 0.8378765623936465,0.32508308901532623 l -11.53883843522475 28.997838622869466" fill="#83ff25" stroke="none" /><path d="M 107.76421540070413 80.48803036053334 l 11.536377580499531 -28.991654337631676 a52.202628557744454,52.202628557744454 0 0,0 0.8320505632458552,0.33941431629343827 l -12.033712013333774 28.78877913515466" fill="#83ff25" stroke="none" /><path d="M 108.09893153111575 80.62456947434976 l 8.781053698824229 -21.007301423640268 a43.768698187760165,43.768698187760165 0 0,0 0.6926213956269666,0.29654433517184087 l -9.14135885224151 20.853037560505634" fill="#e3ff1b" stroke="none" /><path d="M 108.43124777332544 80.76684994638697 l 5.980064046580256 -13.641571476760225 a35.89475204079477,35.89475204079477 0 0,0 0.5637490988692928,0.2529377877708512 l -6.2139952639163285 13.536613358472843" fill="#ffb911" stroke="none" /><path d="M 108.76106565485865 80.91482961587045 l 1.2801069665939517 -2.7885945077706396 a24.068376309172482,24.068376309172482 0 0,0 0.37503319747627617,0.17608311486126935 l -1.327918375369826 2.766146410269367" fill="#ff1702" stroke="none" /><path d="M 109.08828744355905 81.06846463323043 l 13.529724728448688 -28.183358392874176 a52.26267969206714,52.26267969206714 0 0,0 0.8076543439574373,0.3963124789756095 l -14.012850339416557 27.946290753763734" fill="#82ff25" stroke="none" /><path d="M 109.41281617654863 81.2277094730956 l 21.960762648231093 -43.797075061561934 a69.99447805661401,69.99447805661401 0 0,0 1.072380440067359,0.5493149128847691 l -22.711403575887207 43.412567623364666" fill="#3bffa0" stroke="none" /><path d="M 109.73455568895987 81.39251694778311 l 10.322966347737951 -19.73222276410475 a43.269356735855304,43.269356735855304 0 0,0 0.6569832727981452,0.35093771155717995 l -10.66109466706441 19.551606326045817" fill="#e9ff1a" stroke="none" /><path d="M 110.05341064243156 81.56283822128135 l 7.110228810240404 -13.039598552238392 a35.8521541918171,35.8521541918171 0 0,0 0.539277707812861,0.30010746053427134 l -7.3336306071253 12.91527569414394" fill="#ffb911" stroke="none" /><line stroke="#e1ed5e" stroke-width="0.3" x1="143.23703022742887" x2="145.7803849466894" y1="26.81831364943548" y2="22.513508569990506" /><path d="M 143.74570117128098 25.957352633546492 a86.0,86.0 0 0,1 28.547481713284135,27.462654790039103" fill="none" id="id122" stroke="none" /><text fill="#e1ed5e" style="font-size:6.75px; font-family:Arial;" text-anchor="middle"><textPath startOffset="19.985693538727396" xlink:href="#id122">February</textPath></text><path d="M 110.68208982089419 81.91981866633111 l 15.257935691177574 -25.825119307118534 a50.995689503377264,50.995689503377264 0 0,0 0.7519142823634594,0.4530199418976556 l -15.700212039758672 25.558652755762264" fill="#90ff24" stroke="none" /><path d="M 110.99172775467656 82.1063720568725 l 16.342084533676953 -26.60356833677404 a52.22200466266139,52.22200466266139 0 0,0 0.7618962882555151,0.47709938580910377 l -16.79759997430473 26.31832460964199" fill="#83ff25" stroke="none" /><path d="M 111.2981086023043 82.29822771554956 l 20.708199084335362 -32.44541520314347 a59.490706372069106,59.490706372069106 0 0,0 0.8584593185772466,0.5583658204021164 l -21.263625428696887 32.084150458581824" fill="#37ff2e" stroke="none" /><path d="M 111.60114157652 82.49532879139004 l 9.814546653534151 -14.808922992491695 a38.76596538924771,38.76596538924771 0 0,0 0.5530524403531948,0.3734234764993743 l -10.068003788293886 14.63778760369365" fill="#ffde14" stroke="none" /><path d="M 111.90073688211348 82.69761687909136 l 10.924732119047597 -15.88337785210226 a40.27774530036132,40.27774530036132 0 0,0 0.5678564833913302,0.39781975593279034 l -11.196519742022579 15.692973253405535" fill="#fff116" stroke="none" /><path d="M 112.19680574252982 82.90503203632743 l 18.114677779883195 -25.3894210382926 a52.1891688207411,52.1891688207411 0 0,0 0.7268079455823121,0.5280568821577526 l -18.549031041819294 25.073844921318173" fill="#83ff25" stroke="none" /><path d="M 112.48926042617603 83.11751280151076 l 29.115804433898187 -39.357590350088074 a69.9566133019672,69.9566133019672 0 0,0 0.961916245760976,0.7244953736920206 l -29.788966833417547 38.850578386890206" fill="#3bff9f" stroke="none" /><path d="M 112.77801427241765 83.33499621200491 l 25.197741228975243 -32.862731569820205 a62.41117348340248,62.41117348340248 0 0,0 0.8469120303365105,0.6610282731736754 l -25.759685814471183 32.424124907423305" fill="#32ff49" stroke="none" /><path d="M 113.06298171725822 83.55741782278167 l 11.010686165203605 -13.859325230451319 a38.700737433000654,38.700737433000654 0 0,0 0.518030750736403,0.4188781738049004 l -11.247620314504498 13.66774095938229" fill="#ffdd14" stroke="none" /><path d="M 113.34407831869373 83.78471172551755 l 1.869387147104981 -2.271618223677134 a23.941913945020037,23.941913945020037 0 0,0 0.3159676666969385,0.26461383411504413 l -1.908212350761037 2.2391032321682705" fill="#ff1502" stroke="none" /><path d="M 113.6212207817346 84.01681056812373 l 20.217840843372528 -23.723687126228114 a52.17008853421985,52.17008853421985 0 0,0 0.6784749858972755,0.5883668219665853 l -20.623209627916566 23.372155310841855" fill="#83ff25" stroke="none" /><path d="M 113.89432698308785 84.25364557470407 l 32.400491304127065 -36.71927544597921 a69.97036885736624,69.97036885736624 0 0,0 0.896250496023202,0.8046625445634203 l -33.02775278774626 36.15611389264649" fill="#3bff9f" stroke="none" /><path d="M 114.16331599549186 84.49514656593476 l 15.947559227909098 -17.458098692319567 a44.64550391255045,44.64550391255045 0 0,0 0.5629417838118895,0.5231930364412076 l -16.245708895515833 17.181001069803717" fill="#d8ff1c" stroke="none" /><path d="M 114.42810811169701 84.74124197986012 l 15.235896808475259 -16.113052440456205 a43.17573021362314,43.17573021362314 0 0,0 0.5356191042818292,0.5152651539486596 l -15.510999156369508 15.848404199745243" fill="#eaff1a" stroke="none" /><path d="M 114.68862486808459 84.99185889309783 l 2.2428295629297703 -2.291617007138608 a24.20652349995422,24.20652349995422 0 0,0 0.29527832014746075,0.2940103012016064 l -2.281943683244554 2.252670855286883" fill="#ff1902" stroke="none" /><path d="M 114.94478906791727 85.2469230424477 l 25.25948187701825 -24.935452641452482 a56.493918114650754,56.493918114650754 0 0,0 0.6772160987089463,0.6979307186952565 l -25.684962239430305 24.496957727207114" fill="#56ff2b" stroke="none" /><path d="M 115.19652480421416 85.50635884689758 l 22.576813261133697 -21.532569715987567 a52.19878291860064,52.19878291860064 0 0,0 0.6145354709927663,0.6555435932084943 l -22.944116054096927 21.140756705901016" fill="#83ff25" stroke="none" /><path d="M 115.4437574822437 85.77008943001954 l 28.287576302145855 -26.06423219762669 a59.46467435324942,59.46467435324942 0 0,0 0.6871181614529761,0.758733035660815 l -28.732038104214865 25.573446374696328" fill="#38ff2e" stroke="none" /><path d="M 115.68641384162765 86.03803664274999 l 16.56652972258475 -14.745325686213132 a43.17824466998641,43.17824466998641 0 0,0 0.48937016894681784,0.5594346992936328 l -16.817891755109414 14.457975430716552" fill="#eaff1a" stroke="none" /><path d="M 115.9244219780498 86.31012108654704 l 1.152784630758042 -0.9910238519250709 a22.520210735390446,22.520210735390446 0 0,0 0.2501774355523845,0.2961311736687899 l -1.1696726797975436 0.9710337286271744" fill="#ff0000" stroke="none" /><path d="M 116.15771136456269 86.58626213691792 l 24.004237140655423 -19.92773217339404 a52.19804337261145,52.19804337261145 0 0,0 0.5679681724429871,0.6962618221024488 l -24.34370380517482 19.511586181683494" fill="#83ff25" stroke="none" /><path d="M 116.38621287248628 86.86637796730983 l 24.31923626329209 -19.491975338735376 a52.16668662266955,52.16668662266955 0 0,0 0.5555650758139756,0.7055112277669732 l -24.651155419700032 19.070471717015362" fill="#83ff25" stroke="none" /><path d="M 116.60985879189232 87.15038557335679 l 17.541786296214894 -13.570566317575251 a43.17824466998641,43.17824466998641 0 0,0 0.4497200461055219,0.5917788650836051 l -17.772782282544533 13.266602676610614" fill="#eaff1a" stroke="none" /><path d="M 116.82858285166822 87.43820079747576 l 15.653608089142859 -11.684732062351243 a40.533776121820836,40.533776121820836 0 0,0 0.4125515911064542,0.5627199066344003 l -15.852422292762938 11.413549712045349" fill="#fff417" stroke="none" /><path d="M 117.04232023915458 87.72973835380427 l 14.386806038809342 -10.3583239765489 a38.727804816205214,38.727804816205214 0 0,0 0.384857339420973,0.5443534134317395 l -14.562975998034197 10.109144062785369" fill="#ffde14" stroke="none" /><path d="M 117.2510076193507 88.02491185347247 l 2.4142832489065165 -1.675916871308447 a23.938955761063255,23.938955761063255 0 0,0 0.23206598620909552,0.34052819932319556 l -2.442773700784345 1.6341106487148447" fill="#ff1502" stroke="none" /><path d="M 117.45458315368197 88.32363383020206 l 18.422226424888485 -12.323677942119756 a43.16419329619169,43.16419329619169 0 0,0 0.4078057705726349,0.6211161665278624 l -18.631628830819047 12.00474371161422" fill="#eaff1a" stroke="none" /><path d="M 117.65298651832404 88.62581576622439 l 18.116881127385003 -11.673081122584636 a42.55184921713774,42.55184921713774 0 0,0 0.3914210951168641,0.6191341724955643 l -18.315129818747824 11.359499302374866" fill="#f1ff19" stroke="none" /><line stroke="#e1ed5e" stroke-width="0.3" x1="172.23445277983987" x2="176.4835382374775" y1="55.19839476539836" y2="52.563006222186495" /><path d="M 173.08426987136738 54.67131705675599 a86.0,86.0 0 0,1 12.851231095245387,41.99856678651699" fill="none" id="id123" stroke="none" /><text fill="#e1ed5e" style="font-size:6.75px; font-family:Arial;" text-anchor="middle"><textPath startOffset="22.20632615414155" xlink:href="#id123">March</textPath></text><path d="M 117.84615892207809 88.93136811851018 l 10.198954316746955 -6.325645277569808 a33.00135231266596,33.00135231266596 0 0,0 0.295258701654301,0.48532767247134573 l -10.30632881668748 6.149149831891381" fill="#ff930d" stroke="none" /><path d="M 118.03404312379186 89.2402003453031 l 10.202046145273867 -6.086930802904656 a32.87991886124004,32.87991886124004 0 0,0 0.28580529011047534,0.48853388594477903 l -10.30531110985467 5.910417504605982" fill="#ff920d" stroke="none" /><path d="M 118.3937258080291 89.86733742301442 l 7.344975557555765 -4.046170946423048 a29.385711971488742,29.385711971488742 0 0,0 0.24025184496207694,0.4451501807831236 l -7.413535501736307 3.9191397823074663" fill="#ff6209" stroke="none" /><path d="M 118.56541770881063 90.18545643968196 l 55.33757373880933 -29.254016069033 a83.59428507032732,83.59428507032732 0 0,0 0.6615515057339295,1.2779069414628512 l -55.83293467770338 28.297136405309804" fill="#4cd6ff" stroke="none" /><path d="M 119.04729006885535 91.15688171328212 l 13.402689602257558 -6.222489870447485 a35.776720500919154,35.776720500919154 0 0,0 0.2545218642612974,0.5608051897481694 l -13.507813783482202 5.990862671857253" fill="#ffb811" stroke="none" /><path d="M 119.196687751892 91.48605970444005 l 13.528500597912785 -6.0000374995798085 a35.79935060818854,35.79935060818854 0 0,0 0.24498567923789383,0.5654607247609648 l -13.62977698699336 5.766277630232241" fill="#ffb811" stroke="none" /><path d="M 119.34039704204932 91.81776055985345 l 13.633046269978932 -5.76766074848609 a35.802900428936674,35.802900428936674 0 0,0 0.2352392288460058,0.5696504516588612 l -13.730307185711135 5.532135726373926" fill="#ffb811" stroke="none" /><path d="M 119.47837535516314 92.15188598940014 l 8.248117008344636 -3.3232834604503045 a29.89244888328556,29.89244888328556 0 0,0 0.18818926439056724,0.47892115108968214 l -8.304099822616903 3.180813304464838" fill="#ff6909" stroke="none" /><path d="M 119.61058180528143 92.48833698450437 l 9.863233549562553 -3.778025935339225 a31.56204790849351,31.56204790849351 0 0,0 0.18996657300597405,0.5090159702180227 l -9.926804711070153 3.6076868280918695" fill="#ff800b" stroke="none" /><path d="M 119.7369772167798 92.82701384747503 l 29.29247725500384 -10.645730165035701 a52.16698244106523,52.16698244106523 0 0,0 0.2994556674628178,0.8466014970512453 l -29.471386003276468 10.13993104155784" fill="#83ff25" stroke="none" /><path d="M 119.85752413597 93.16781622104841 l 29.5109670633662 -10.153549309114617 a52.2088407440537,52.2088407440537 0 0,0 0.28506699851199385,0.8523140415384285 l -29.68137135564996 9.644062164653874" fill="#83ff25" stroke="none" /><path d="M 119.97218684219823 93.5106431181261 l 19.707586560113025 -6.403383038595632 a41.72178279886462,41.72178279886462 0 0,0 0.21604833746621477,0.6849322703000794 l -19.814890381347446 6.063200601869133" fill="#fbff18" stroke="none" /><path d="M 120.08093135843002 93.85539295169968 l 15.56785239100425 -4.763640382073517 a37.28036540615162,37.28036540615162 0 0,0 0.18248579606063256,0.6152513857677818 l -15.647544084176586 4.4949596095592055" fill="#ffcb12" stroke="none" /><path d="M 120.18372546131832 94.20196356495316 l 2.852865582640645 -0.8195225714966309 a23.968241782235403,23.968241782235403 0 0,0 0.11049728051354468,0.3975175090321041 l -2.866549633720553 0.770293759045575" fill="#ff1502" stroke="none" /><path d="M 120.28053869075195 94.5502522615342 l 30.118626166976256 -8.093419871239613 a52.18709809197135,52.18709809197135 0 0,0 0.22565618741882507,0.8695453410768355 l -30.25347868626538 7.573778104613926" fill="#83ff25" stroke="none" /><path d="M 120.37134235888165 94.90015583598534 l 30.27614874375771 -7.57945341841325 a52.21046774522993,52.21046774522993 0 0,0 0.21074929275409285,0.8736918775068583 l -30.40213083677262 7.0571763092469855" fill="#83ff25" stroke="none" /><path d="M 120.45610955862082 95.25157060432595 l 17.30669944274529 -4.017364110244242 a38.76685284443474,38.76685284443474 0 0,0 0.14529375795823996,0.6513234276838407 l -17.37328758770557 3.718862513010438" fill="#ffde14" stroke="none" /><path d="M 120.53481517161879 95.60439243477599 l 17.37965142931279 -3.7202247337111753 a38.773360849139664,38.773360849139664 0 0,0 0.13408327450506743,0.653837665192421 l -17.441113999732856 3.420511412355342" fill="#ffde14" stroke="none" /><path d="M 120.6074358757038 95.95851677861258 l 2.918270347846517 -0.5723245103093816 a23.97386233175329,23.97386233175329 0 0,0 0.07593352848006013,0.4056399454460203 l -2.9276896002364365 0.5220064874007985" fill="#ff1502" stroke="none" /><path d="M 120.67395015179393 96.31383870115 l 30.72938300934528 -5.479043025396771 a52.21401756597807,52.21401756597807 0 0,0 0.15014796777903766,0.8861818052210032 l -30.81914283864454 4.94927543185993" fill="#83ff25" stroke="none" /><path d="M 120.73433829027371 96.67025291283417 l 30.823962094756922 -4.950049360778126 a52.21889856950676,52.21889856950676 0 0,0 0.1348841665946055,0.8887181285071214 l -30.904602154790826 4.418732119878922" fill="#83ff25" stroke="none" /><path d="M 120.78858239683441 97.02765380044208 l 19.05086839768221 -2.723888295949961 a40.24461364004536,40.24461364004536 0 0,0 0.09214866858023617,0.6866146141867845 l -19.09493306532028 2.3955553396985123" fill="#fff116" stroke="none" /><path d="M 120.83666639777658 97.38593545837742 l 22.030402404365685 -2.7638247243366263 a43.20309341522338,43.20309341522338 0 0,0 0.08622030448499925,0.7386829149748704 l -22.074713061854272 2.384198071036903" fill="#e9ff1a" stroke="none" /><path d="M 120.87857604477298 97.74499172005257 l 3.38841764784693 -0.3659689164351677 a24.408123736608935,24.408123736608935 0 0,0 0.04152039697978533,0.41810473131676823 l -3.394215170508944 0.3075886544139645" fill="#ff1c02" stroke="none" /><path d="M 120.91429891909075 98.10471618934814 l 39.78679519611814 -3.6055365329072377 a60.949830608752,60.949830608752 0 0,0 0.08569405761132197,1.0456845579465377 l -39.842963737548956 2.920138057752931" fill="#30ff37" stroke="none" /><path d="M 120.94382443527127 98.46500227214037 l 31.135387176299567 -2.2819494462130114 a52.21889856950676,52.21889856950676 0 0,0 0.05798637395434619,0.897023539697129 l -31.170054141258326 1.745666842262847" fill="#83ff25" stroke="none" /><path d="M 120.96714384426684 98.82574320788733 l 27.086763462397514 -1.5169837250277958 a48.12920924925517,48.12920924925517 0 0,0 0.039205576610942094,0.827567757472554 l -27.108862647241953 1.050504860932242" fill="#b0ff20" stroke="none" /><path d="M 120.98425023603335 99.18683210126433 l 22.86690456876279 -0.8861232843497023 a43.884067362074674,43.884067362074674 0 0,0 0.022753482569872533,0.755077313825231 l -22.87876974578831 0.49237582309947225" fill="#e1ff1b" stroke="none" /><line stroke="#e1ed5e" stroke-width="0.3" x1="184.98032266829074" x2="189.97916517819016" y1="98.17113171792111" y2="98.06355123074" /><path d="M 185.9800911702706 98.14961562048488 a86.0,86.0 0 0,1 -9.607161424134198,41.387399972396054" fill="none" id="id124" stroke="none" /><text fill="#e1ed5e" style="font-size:6.75px; font-family:Arial;" text-anchor="middle"><textPath startOffset="21.466115282336823" xlink:href="#id124">April</textPath></text><path d="M 120.99513854157772 99.54816195383933 l 3.0275918727435895 -0.06515704545808539 a24.028292916558083,24.028292916558083 0 0,0 0.005339993905477258,0.41358841285896963 l -3.028264873766782 0.01303237453865302" fill="#ff1602" stroke="none" /><path d="M 120.99980553446 99.90962569577887 l 38.589300275013535 -0.16607206942996539 a59.58965762542348,59.58965762542348 0 0,0 -0.00441446628025994,1.0257664966037197 l -38.58644151144377 -0.4982039053774389" fill="#37ff2e" stroke="none" /><path d="M 120.99824983174949 100.27111621757518 l 31.206535551023798 0.4029191932666045 a52.20913656244938,52.20913656244938 0 0,0 -0.01933711387869603,0.898519698213042 l -31.194976374460094 -0.9400287072697613" fill="#83ff25" stroke="none" /><path d="M 120.9904718944345 100.63252640178507 l 19.935470750330907 0.6007350213475532 a40.94451996422006,40.94451996422006 0 0,0 -0.02729218813954338,0.7042901057697885 l -19.922176429340162 -0.9438023741313478" fill="#fff917" stroke="none" /><path d="M 120.9764740272857 100.99374915477107 l 26.632538340927713 1.26170215410266 a47.66240782087492,47.66240782087492 0 0,0 -0.045877675597459276,0.81917671667188 l -26.606874314442727 -1.7199505871099634" fill="#b5ff1f" stroke="none" /><path d="M 120.95626037817324 101.35467743843564 l 2.9602881985691014 0.191362178246538 a23.966466871861332,23.966466871861332 0 0,0 -0.030156025305320116,0.4114550062174394 l -2.956555614599444 -0.24229032096074768" fill="#ff1502" stroke="none" /><path d="M 120.92983693683757 101.71520430193887 l 26.546496563475657 2.175490676037666 a47.6354883468682,47.6354883468682 0 0,0 -0.07400604946929754,0.816650589069059 l -26.505115917729285 -2.632122653655296" fill="#b5ff1f" stroke="none" /><path d="M 120.89721153311464 102.0752229133903 l 26.6914524167955 2.650627025487412 a47.822741391332514,47.822741391332514 0 0,0 -0.08839851222485295,0.8184604358855873 l -26.641871603069593 -3.1096837832577906" fill="#b3ff20" stroke="none" /><path d="M 120.8583938346157 102.4346265915055 l 26.699901773479827 3.1164571617408394 a47.88116552447897,47.88116552447897 0 0,0 -0.10259905638587626,0.8178154275074802 l -26.6423012078471 -3.5755903435357146" fill="#b3ff20" stroke="none" /><path d="M 120.81339534386255 102.79330883721812 l 14.680158496184223 1.970183902322591 a35.81177498080702,35.81177498080702 0 0,0 -0.08725445007966308,0.6102574206333563 l -14.644069995087959 -2.222586794936357" fill="#ffb811" stroke="none" /><path d="M 120.76222939487914 103.15116336523771 l 2.9420920924613774 0.44653262627020485 a23.975785151325198,23.975785151325198 0 0,0 -0.06544047346117292,0.4074978907105337 l -2.933969864638916 -0.49710974667394353" fill="#ff1502" stroke="none" /><path d="M 120.70491114924044 103.5080841355445 l 13.559785273806853 2.29746784507099 a34.753040942674616,34.753040942674616 0 0,0 -0.10500971844497806,0.5889502679285074 l -13.518229113022684 -2.5305368637327157" fill="#ffaa0f" stroke="none" /><path d="M 120.64145759157962 103.86396538481128 l 2.962196510951865 0.5545066151721723 a24.01364990597201,24.01364990597201 0 0,0 -0.07955386825987665,0.40564346033998594 l -2.952212709716324 -0.6054138025801031" fill="#ff1602" stroke="none" /><path d="M 120.5718875245553 104.21870165774334 l 12.050533822904898 2.4712174298396086 a33.30131216588369,33.30131216588369 0 0,0 -0.11998932365566607,0.5605501736165757 l -12.006210460524787 -2.6782814228723533" fill="#ff970e" stroke="none" /><path d="M 120.49622156327973 104.57218783832717 l 7.262365689178778 1.6200498213307941 a28.440868015692462,28.440868015692462 0 0,0 -0.1107019264784068,0.476901001930383 l -7.233403196769818 -1.7448194806097421" fill="#ff5507" stroke="none" /><path d="M 120.41448212921028 104.9243191809786 l 4.865691935092344 1.1736873839392856 a26.00524725487572,26.00524725487572 0 0,0 -0.10871268942559599,0.434253154374867 l -4.844767931371687 -1.2572683777115485" fill="#ff3304" stroke="none" /><path d="M 120.32669344350535 105.2749913415812 l 60.980080330516046 15.82497402474362 a84.0,84.0 0 0,0 -0.3752476946328911,1.396436267297807 l -60.69864455954138 -16.872301225216972" fill="#4dd2ff" stroke="none" /><path d="M 120.13307415673323 105.97154293290107 l 10.30710617877511 3.0571251355541853 a31.750927954134063,31.750927954134063 0 0,0 -0.15992372026828633,0.5226399709612877 l -10.252955686000691 -3.23409207906753" fill="#ff820c" stroke="none" /><path d="M 119.9155931802556 106.66101706037122 l 9.170803897280098 3.0672890666226005 a30.670155445523633,30.670155445523633 0 0,0 -0.1717662617519038,0.4992331586559199 l -9.116646804584963 -3.224694928367821" fill="#ff740a" stroke="none" /><path d="M 119.79798401119884 107.00284435728193 l 26.53127029965528 9.384508867386037 a49.14209143605744,49.14209143605744 0 0,0 -0.28894552646742433,0.7950539916726977 l -26.36580051218263 -9.839810656064866" fill="#a4ff21" stroke="none" /><path d="M 119.41010516605496 108.01547362559984 l 4.668684040743891 1.9279500793373268 a26.051099106205847,26.051099106205847 0 0,0 -0.17472722609385768,0.4130035488976841 l -4.634805833457724 -2.0080281539011744" fill="#ff3304" stroke="none" /><path d="M 119.26925614724726 108.34839909993367 l 15.477401383529102 6.705579229015811 a37.86756492157291,37.86756492157291 0 0,0 -0.26427758279875363,0.5958761819669006 l -15.359682715999076 -6.9710037474753985" fill="#ffd313" stroke="none" /><path d="M 119.12269723197855 108.67885076344098 l 13.505045474686318 6.129275217111175 a35.83085526732827,35.83085526732827 0 0,0 -0.25973169866788537,0.5594389721139785 l -13.397539159178601 -6.360834256503984" fill="#ffb911" stroke="none" /><path d="M 118.97047184881838 109.00673069616215 l 12.075021530799729 5.73293421191561 a34.36685002711669,34.36685002711669 0 0,0 -0.2583188265328994,0.5322132941668296 l -11.974549447652114 -5.939936462047715" fill="#ffa50f" stroke="none" /><path d="M 118.81262510543309 109.33194174019688 l 13.280630245969142 6.587813611014254 a35.82479099021686,35.82479099021686 0 0,0 -0.27878738086905347,0.5500739510203186 l -13.165264195313819 -6.815441773737267" fill="#ffb811" stroke="none" /><path d="M 118.64920377521936 109.65438752849418 l 18.398715804467745 9.524714006234987 a41.717937159720805,41.717937159720805 0 0,0 -0.3356257545317313,0.6348774437060462 l -18.232037541711122 -9.840006465027168" fill="#fbff18" stroke="none" /><line stroke="#e1ed5e" stroke-width="0.3" x1="174.80103733775053" x2="179.2010983576182" y1="140.37084112569926" y2="142.7455964860345" /><path d="M 175.68104954172406 140.8457921977663 a86.0,86.0 0 0,1 -30.038265399797805,32.042727171017184" fill="none" id="id125" stroke="none" /><text fill="#e1ed5e" style="font-size:6.75px; font-family:Arial;" text-anchor="middle"><textPath startOffset="22.206326154141568" xlink:href="#id125">May</textPath></text><path d="M 118.48025628344425 109.97397251340804 l 39.29965205702279 21.2104011649665 a65.65807619436677,65.65807619436677 0 0,0 -0.5453484475394198,0.9899658394485604 l -38.928727200031865 -21.883737522812865" fill="#36ff6f" stroke="none" /><path d="M 118.30583269289576 110.29060199501025 l 33.713371883910234 18.951931757888733 a59.6751491417745,59.6751491417745 0 0,0 -0.5110693548789136,0.8910924983955086 l -33.382150532878946 -19.529444102142556" fill="#36ff2f" stroke="none" /><path d="M 118.12598468904814 110.60418214915192 l 21.75567549328206 12.72764761011826 a46.20520640376394,46.20520640376394 0 0,0 -0.4075279937279915,0.6830403584545167 l -21.53336662385584 -13.10025006245888" fill="#c6ff1e" stroke="none" /><path d="M 117.94076556474637 110.91462005526583 l 2.5980049162987866 1.5805477453444905 a24.041013107572248,24.041013107572248 0 0,0 -0.21812681405707168,0.3516898773496067 l -2.570413462573752 -1.6250339540593708" fill="#ff1602" stroke="none" /><path d="M 117.75023020441432 111.22182372390056 l 26.39924643760084 16.689794248014426 a52.23250621570796,52.23250621570796 0 0,0 -0.4869938424125527,0.7558252581391476 l -26.10804773181124 -17.141741106075028" fill="#82ff25" stroke="none" /><path d="M 117.55443506779139 111.5257021239791 l 26.090737982415266 17.130376057037093 a52.21179892801048,52.21179892801048 0 0,0 -0.4997337831166643,0.747034200989332 l -25.79200109388788 -17.57694717223223" fill="#83ff25" stroke="none" /><path d="M 117.35343817320211 111.8261652097733 l 27.147725082767632 18.500857218836344 a53.85240775044197,53.85240775044197 0 0,0 -0.5286231657528978,0.761521096845772 l -26.825241009852597 -18.965419577869138" fill="#71ff27" stroke="none" /><path d="M 117.14729908036423 112.12312394758627 l 18.165178038867328 12.8427633916608 a43.24657871938808,43.24657871938808 0 0,0 -0.4349786350549518,0.6041472797847961 l -17.941419611436775 -13.153544276896728" fill="#e9ff1a" stroke="none" /><path d="M 116.93607887273984 112.41649034213515 l 8.488735523005413 6.223418267612557 a31.52566224582509,31.52566224582509 0 0,0 -0.32462234622074176,0.434884681788332 l -8.380351910089578 -6.368615828910204" fill="#ff7f0b" stroke="none" /><path d="M 116.71984013943494 112.70617746262583 l 24.968062223025903 18.974381743961626 a52.3597081258496,52.3597081258496 0 0,0 -0.5515052614233161,0.7128948940470258 l -24.63775014438452 -19.401354632121905" fill="#81ff25" stroke="none" /><path d="M 116.498646956653 112.99209946851258 l 24.538976030514476 19.323573519786734 a52.23398530768635,52.23398530768635 0 0,0 -0.5623413552408483,0.701607304599092 l -24.202716763218774 -19.743108657964076" fill="#82ff25" stroke="none" /><path d="M 116.27256486870786 113.27417163493432 l 22.234705921047873 18.137724755109026 a49.69423647159088,49.69423647159088 0 0,0 -0.5464094277869762,0.6581853552809193 l -21.919200493367352 -18.517771367503716" fill="#9eff22" stroke="none" /><path d="M 116.0416608686014 113.55231037782055 l 17.02170275067022 14.380269021121434 a43.282964382056505,43.282964382056505 0 0,0 -0.4857121316482288,0.5649929406332187 l -16.77164810945121 -14.67113906091618" fill="#e8ff1a" stroke="none" /><path d="M 115.80600337817218 113.82643327865902 l 13.441654426949668 11.758199314677308 a38.858704456292834,38.858704456292834 0 0,0 -0.4447307490571744,0.4996597111240364 l -13.237264828244156 -11.98783319554221" fill="#ffdf14" stroke="none" /><path d="M 115.56566222782051 114.09645910891815 l 28.5649126124033 25.868743436490732 a59.537593587784116,59.537593587784116 0 0,0 -0.6944736861246947,0.7537140260695477 l -28.11539251828288 -26.356608717361617" fill="#37ff2e" stroke="none" /><path d="M 115.32070863581623 114.36230785411682 l 28.196323722734682 26.43247719714093 a59.64852548616345,59.64852548616345 0 0,0 -0.7086626823191737,0.743029989215586 l -27.73715448903654 -26.913914302939023" fill="#36ff2f" stroke="none" /><path d="M 115.07121518719521 114.62390073753431 l 26.597729476750544 25.808307484207422 a58.060868156558364,58.060868156558364 0 0,0 -0.7021477040844057,0.7112719171909505 l -26.149541147610602 -26.26231989537904" fill="#46ff2d" stroke="none" /><path d="M 114.81725581225074 114.88116024355365 l 25.104561379841662 25.212833298637953 a56.57985335859529,56.57985335859529 0 0,0 -0.6960670385601748,0.6812480999227042 l -24.666844388905695 -25.64123150148323" fill="#55ff2b" stroke="none" /><path d="M 114.55890576462653 115.13401014063108 l 2.096997604481034 2.179832984990074 a24.024743095809946,24.024743095809946 0 0,0 -0.300497099963625,0.284138764098893 l -2.0591646701266018 -2.2156063858348887" fill="#ff1602" stroke="none" /><path d="M 114.29624159901734 115.38237550388516 l 31.356999873747434 33.739297380537884 a67.06084702667296,67.06084702667296 0 0,0 -0.8523128706929871,0.7785675992349289 l -30.771587453587582 -34.2740577463594" fill="#38ff7f" stroke="none" /><path d="M 114.0293411484842 115.62618273729858 l 20.870249431052116 23.245733918007815 a52.23990167559991,52.23990167559991 0 0,0 -0.6742868967894913,0.5949797884235491 l -20.467020181356038 -23.601536848203654" fill="#82ff25" stroke="none" /><path d="M 113.75828350139079 115.86535959552629 l 22.35916087574152 25.783458198982615 a55.12797667260651,55.12797667260651 0 0,0 -0.7222671232899642,0.615531711718313 l -21.91202827587451 -26.164514300923873" fill="#64ff29" stroke="none" /><path d="M 113.48314897796784 116.09983520530334 l 13.54829551512394 16.177624786514915 a42.10146570971764,42.10146570971764 0 0,0 -0.5596084148396943,0.4605196274661557 l -13.267816971739554 -16.408439532838248" fill="#f7ff19" stroke="none" /><path d="M 113.20401910651253 116.32954008644616 l 10.388915053419225 12.848073260952775 a37.52278858140993,37.52278858140993 0 0,0 -0.5057401981104293,0.4017906001864191 l -10.166217362591444 -13.024997775144321" fill="#ffce13" stroke="none" /><path d="M 112.92097659922987 116.55440617244103 l 19.211419717686613 24.613746701993268 a52.22363166383761,52.22363166383761 0 0,0 -0.7134028389567875,0.5470068758544117 l -18.78488815023633 -24.94079291967505" fill="#83ff25" stroke="none" /><path d="M 112.63410532772338 116.77436683061366 l 13.382742296022467 17.76833599609555 a43.244360081420496,43.244360081420496 0 0,0 -0.5984505230615369,0.4427193900295466 l -13.074906802542367 -17.99606533486487" fill="#e9ff1a" stroke="none" /><path d="M 112.34349029814194 116.9893568818739 l 20.03610013516356 27.577325982789155 a55.087449552398596,55.087449552398596 0 0,0 -0.7719395705606715,0.5507583873282467 l -19.558433236754006 -27.918128631961622" fill="#64ff29" stroke="none" /><path d="M 112.04921762599082 117.19931262002967 l 9.436102588401575 13.469295963458391 a37.44572788933574,37.44572788933574 0 0,0 -0.5310929643868354,0.36529058366946665 l -9.202852739391856 -13.629727336492952" fill="#ffcd13" stroke="none" /><path d="M 111.7513745106137 117.40417183066458 l 1.670100753457648 2.4734740996848124 a23.984511793997704,23.984511793997704 0 0,0 -0.3441495353286306,0.2280835461152359 l -1.6272765193890533 -2.5018556668913665" fill="#ff1502" stroke="none" /><path d="M 111.45004920935366 117.60387380957326 l 17.021160778186818 26.16917717583962 a52.21771529592405,52.21771529592405 0 0,0 -0.757699433628591,0.4835996278496915 l -16.568179542511295 -26.458291232513123" fill="#83ff25" stroke="none" /><path d="M 111.1453310114006 117.79835938074945 l 16.564254549726655 26.452023277611072 a52.21031983603209,52.21031983603209 0 0,0 -0.7658030708421265,0.47041879350268445 l -16.10647227895222 -26.733230537942134" fill="#83ff25" stroke="none" /><line stroke="#e1ed5e" stroke-width="0.3" x1="143.8653032363475" x2="146.44561519142675" y1="172.8068346515853" y2="177.08958963109032" /><path d="M 144.38136562736335 173.6633856474863 a86.0,86.0 0 0,1 -40.68145358897372,12.25698825130547" fill="none" id="id126" stroke="none" /><text fill="#e1ed5e" style="font-size:6.75px; font-family:Arial;" text-anchor="middle"><textPath startOffset="21.466115282336833" xlink:href="#id126">June</textPath></text><path d="M 110.8373102113329 117.98757091392108 l 20.903836303084475 34.69580832719223 a61.5064129202206,61.5064129202206 0 0,0 -0.9115605637413182,0.5385660486123969 l -20.303507868314774 -35.05049294809838" fill="#31ff3e" stroke="none" /><path d="M 110.5260780823613 118.17145234162733 l 9.66169993938064 16.679253052640696 a40.27552666239374,40.27552666239374 0 0,0 -0.6028886413915046,0.3423359050091103 l -9.373162531067935 -16.843092123444436" fill="#fff116" stroke="none" /><path d="M 110.21172684928248 118.3499491758327 l 1.5168815053731024 2.7257582326844925 a24.11940498242698,24.11940498242698 0 0,0 -0.3645213777487609,0.19876611934290273 l -1.4697373157556928 -2.7514650037871657" fill="#ff1702" stroke="none" /><path d="M 109.89434966115114 118.52300852407294 l 14.707129593033734 27.532914860087413 a52.214757111967266,52.214757111967266 0 0,0 -0.7964219869205943,0.4166503423291827 l -14.231016703586645 -27.781994621361314" fill="#83ff25" stroke="none" /><path d="M 109.57404056367764 118.69057910512821 l 20.978409436611578 40.95435134903394 a67.01469935694715,67.01469935694715 0 0,0 -1.0312161059529568,0.5170731632200072 l -20.270339422975862 -41.309392353163254" fill="#38ff7e" stroke="none" /><path d="M 109.2508944713604 118.85261126421891 l 11.180121571160434 22.784227678774986 a46.37944343881841,46.37944343881841 0 0,0 -0.7197368134243164,0.34551740877779424 l -10.786272089735885 -22.973299364052338" fill="#c4ff1e" stroke="none" /><path d="M 108.92500713936063 119.00905698771935 l 14.017288239701708 29.854926366015924 a53.9818282985512,53.9818282985512 0 0,0 -0.8445122972886695,0.38767417497273693 l -13.50130794664562 -30.091787611322736" fill="#70ff27" stroke="none" /><path d="M 108.59647513512805 119.15986991738527 l 1.2188214064765042 2.7165156920175906 a23.977412152501426,23.977412152501426 0 0,0 -0.378020258995388,0.16571297255220327 l -1.1718804728233623 -2.7370932178642486" fill="#ff1502" stroke="none" /><path d="M 108.2653958097858 119.30500536409082 l 12.285242731242635 28.693928552702065 a52.21327801998888,52.21327801998888 0 0,0 -0.8292675434695326,0.3466339004258538 l -11.78950372827564 -28.90114749614789" fill="#83ff25" stroke="none" /><path d="M 107.93186726928326 119.44442032107085 l 17.407604772802873 42.67353102292189 a67.08747068228399,67.08747068228399 0 0,0 -1.0730127363732567,0.42697391226202824 l -16.67047096038775 -42.96685177958999" fill="#38ff7f" stroke="none" /><path d="M 107.59598834532513 119.57807347666477 l 13.985854931397062 36.04746124306303 a59.66553504391495,59.66553504391495 0 0,0 -0.96069972345805,0.3632544316042221 l -13.363284987178737 -36.282863924773885" fill="#36ff2f" stroke="none" /><path d="M 107.2578585660854 119.70592522655815 l 12.855261980749919 34.903522720077866 a58.195613435789795,58.195613435789795 0 0,0 -0.9429918528263171,0.33812332838041176 l -12.252550567293866 -35.11963358949824" fill="#44ff2d" stroke="none" /><path d="M 106.91757812671514 119.82793768551818 l 3.476694598412526 9.965291694021799 a31.554356630205874,31.554356630205874 0 0,0 -0.5143814920101124,0.17450612997064371 l -3.3046433734651868 -10.023660810890565" fill="#ff800b" stroke="none" /><path d="M 106.57524785965236 119.94407469862006 l 14.449669739454386 43.82881053388983 a67.14929672698075,67.14929672698075 0 0,0 -1.1008604550121073,0.3524607536675129 l -13.693087939351338 -44.071044134217054" fill="#38ff80" stroke="none" /><path d="M 106.2309692047433 120.05430185196036 l 9.260633648641694 29.80524159691018 a52.210763563625605,52.210763563625605 0 0,0 -0.8605453272835331,0.259275247949568 l -8.746213346917916 -29.960232213965472" fill="#83ff25" stroke="none" /><path d="M 105.88484417918355 120.15858648285463 l 6.230028905968785 21.34101985841872 a43.23178779960417,43.23178779960417 0 0,0 -0.7161424534570409,0.20238901070057985 l -5.861755284407139 -21.44509766245782" fill="#e9ff1a" stroke="none" /><path d="M 105.53697534728816 120.25689768951611 l 15.015222309023773 54.9328474522112 a77.94799935201685,77.94799935201685 0 0,0 -1.2973128922501473,0.3426321259366565 l -14.067418973962129 -55.18317092745144" fill="#45fff2" stroke="none" /><path d="M 105.18746579009965 120.34920634021253 l 0.7361079685949171 2.8875781639274947 a23.97992660886469,23.97992660886469 0 0,0 -0.40086068895908655,0.09852180445403602 l -0.6862939948926194 -2.8998212266955607" fill="#ff1502" stroke="none" /><path d="M 104.83641907484287 120.43548508189849 l 7.192512312086272 30.3907655189673 a52.23028757774037,52.23028757774037 0 0,0 -0.8766725696461799,0.1995278226506298 l -6.66831959304723 -30.510070075195614" fill="#82ff25" stroke="none" /><path d="M 104.48393922423573 120.51570834832081 l 9.535401729094055 43.6280491494644 a65.65792828516894,65.65792828516894 0 0,0 -1.106206459626206,0.2318163190586163 l -8.783003808038472 -43.785721449249564" fill="#36ff6f" stroke="none" /><path d="M 103.7750983002368 120.6578951692458 l 5.2862649995068365 28.92722242221221 a50.40627134998839,50.40627134998839 0 0,0 -0.8548688278836812,0.1486299034974839 l -4.7875472001511055 -29.013930904230698" fill="#96ff23" stroke="none" /><path d="M 103.41894727170886 120.7198165907248 l 2.8731833138981306 17.412327995846777 a38.64778594017425,38.64778594017425 0 0,0 -0.6573144327983443,0.10265899604903081 l -2.573033017491269 -17.459205299242914" fill="#ffdd14" stroke="none" /><path d="M 103.06178313531738 120.77559828337769 l 4.550504262832713 30.877251710255578 a52.210763563625605,52.210763563625605 0 0,0 -0.8902467459256533,0.12338008703847211 l -4.018328925720229 -30.951006362786654" fill="#83ff25" stroke="none" /><path d="M 102.70371172650421 120.8252237178851 l 6.5577563491616475 50.51083727600208 a71.93475091386755,71.93475091386755 0 0,0 -1.2293052110769869,0.1488517412969378 l -5.687323715033281 -50.616234546024366" fill="#3effb5" stroke="none" /><path d="M 102.34483914955558 120.86867818915974 l 4.480312647156195 39.87403691977999 a61.12495509899351,61.12495509899351 0 0,0 -1.0465972089306774,0.10848407998347136 l -3.793282841619915 -39.94525036821921" fill="#30ff39" stroke="none" /><path d="M 101.98527174616119 120.90594882070398 l 1.981552306775938 20.866781180515595 a41.9606561533748,41.9606561533748 0 0,0 -0.7196366069014895,0.06209327451638214 l -1.622071382132907 -20.897798707310642" fill="#f8ff18" stroke="none" /><path d="M 101.62511606390274 120.93702456842531 l 2.310055000392915 29.761368662795412 a50.85088639869277,50.85088639869277 0 0,0 -0.8732725372747049,0.0602259870261813 l -1.7974197023392795 -29.79672299433788" fill="#91ff23" stroke="none" /><path d="M 101.26447882468166 120.96189622390904 l 2.9591577856329363 49.05543469913482 a70.14460589242071,70.14460589242071 0 0,0 -1.2058590315999058,0.06232913812103629 l -2.114310685619551 -49.099103644018065" fill="#3cffa1" stroke="none" /><path d="M 100.90346689309514 120.98055641714683 l 2.3027304850585324 53.47463999454678 a74.52419724043696,74.52419724043696 0 0,0 -1.282098846226377,0.04415807659030012 l -1.3819112871575032 -53.506354869563175" fill="#41ffd0" stroke="none" /><line stroke="#e1ed5e" stroke-width="0.3" x1="102.19456741930631" x2="102.32365962044197" y1="184.97166512339345" y2="189.96999836594603" /><path d="M 102.22038585953345 185.97133177190398 a86.0,86.0 0 0,1 -42.740103519485714,-10.115201625700543" fill="none" id="id127" stroke="none" /><text fill="#e1ed5e" style="font-size:6.75px; font-family:Arial;" text-anchor="middle"><textPath startOffset="22.20632615414155" xlink:href="#id127">July</textPath></text><path d="M 100.54218724476979 120.99299961872073 l 0.49809937444483626 19.285957164568146 a40.292388310947395,40.292388310947395 0 0,0 -0.6934901583844699,0.011939061987704376 l -0.1660495261676984 -19.29167370383501" fill="#fff116" stroke="none" /><path d="M 100.18074693466247 120.99922214144158 l 0.23127317509110687 26.869372850854056 a47.870368153036715,47.870368153036715 0 0,0 -0.8240402195071062,0.0 l 0.23127317509108836 -26.869372850854056" fill="#b3ff20" stroke="none" /><path d="M 99.81925306533755 120.99922214144158 l -0.3325955433975581 38.64102985813919 a59.64246120905205,59.64246120905205 0 0,0 -1.0265328416649664,-0.017672693809531667 l 0.9976880749551924 -38.6295796870505" fill="#36ff2e" stroke="none" /><path d="M 99.45781275523022 120.99299961872073 l -0.8058896092062984 31.203316606945346 a52.21372174758239,52.21372174758239 0 0,0 -0.8982740490821243,-0.030938374506143732 l 1.3428840099630657 -31.18482143401311" fill="#83ff25" stroke="none" /><path d="M 99.09653310690486 120.98055641714683 l -1.4803967376184648 34.37817977696906 a55.41003951288571,55.41003951288571 0 0,0 -0.9525564473253224,-0.049236287839260755 l 2.0719412533572763 -34.3476036823676" fill="#61ff29" stroke="none" /><path d="M 98.73552117531835 120.96189622390904 l -1.4296780282189312 23.700485825591596 a44.743567710717784,44.743567710717784 0 0,0 -0.7683903205759176,-0.05299269529586858 l 1.837431109573779 -23.672364785779443" fill="#d7ff1c" stroke="none" /><path d="M 98.37488393609728 120.93702456842531 l -1.9723128012114837 25.41009992628842 a46.48652969805394,46.48652969805394 0 0,0 -0.7972565628205096,-0.06879065092081645 l 2.4094136817735348 -25.372385023088942" fill="#c3ff1e" stroke="none" /><path d="M 98.01472825383883 120.90594882070398 l -2.3871949254458373 25.13840990933198 a46.25150198268758,46.25150198268758 0 0,0 -0.7919301176669631,-0.08208679470306669 l 2.8195576397183935 -25.093593746173152" fill="#c5ff1e" stroke="none" /><path d="M 97.65516085044442 120.86867818915974 l -5.318881786385824 47.33716269932898 a68.63504461927468,68.63504461927468 0 0,0 -1.172915968166761,-0.1420237892782233 l 6.132925177603974 -47.23859338132541" fill="#3aff91" stroke="none" /><path d="M 97.2962882734958 120.8252237178851 l -6.517899267173619 50.20383980988713 a71.62517696279026,71.62517696279026 0 0,0 -1.2212822867408972,-0.16925859659273962 l 7.381110145101347 -50.08420664780178" fill="#3effb1" stroke="none" /><path d="M 96.93821686468263 120.77559828337769 l -6.0985723866530615 41.381601637854395 a62.82857323970447,62.82857323970447 0 0,0 -1.0685768143746703,-0.16688972201319285 l 6.8099850646362485 -41.2704936084941" fill="#32ff4e" stroke="none" /><path d="M 96.58105272829116 120.7198165907248 l -4.238773160504567 25.688200336428224 a47.03556864043274,47.03556864043274 0 0,0 -0.7977031499374817,-0.13869091763278002 l 4.680325281914098 -25.611430840274437" fill="#bcff1f" stroke="none" /><path d="M 96.22490169976321 120.6578951692458 l -1.894847866713211 10.368887239247586 a31.540601074806837,31.540601074806837 0 0,0 -0.53323499225863,-0.10219575537634164 l 2.073050473543536 -10.334734285522776" fill="#ff800b" stroke="none" /><path d="M 95.86986931433489 120.58985236759428 l -7.590324904029635 37.839884761631225 a59.59365117376514,59.59365117376514 0 0,0 -1.0040353633274643,-0.2104053724382583 l 8.240551728786485 -37.70362340846643" fill="#36ff2e" stroke="none" /><path d="M 95.51606077576429 120.51570834832081 l -6.668003775973965 30.50862509330757 a52.22880848576198,52.22880848576198 0 0,0 -0.8766477434500082,-0.1995221722892028 l 7.192171668816835 -30.38932618744068" fill="#82ff25" stroke="none" /><path d="M 95.16358092515715 120.4354850818985 l -7.881735839095847 33.302964996791864 a55.222934377619225,55.222934377619225 0 0,0 -0.9231347485764031,-0.2268840614432326 l 8.45382387241546 -33.1623596770346" fill="#63ff29" stroke="none" /><path d="M 94.81253420990036 120.34920634021253 l -5.865151331445673 23.007607083972264 a44.74341980151995,44.74341980151995 0 0,0 -0.7446787067585181,-0.1966764147343673 l 6.260320481015681 -22.903239319934315" fill="#d7ff1c" stroke="none" /><path d="M 94.46302465271185 120.25689768951611 l -3.084707428702823 11.285331587385071 a32.69932173067848,32.69932173067848 0 0,0 -0.5416702311534541,-0.15308141792166244 l 3.278508827960891 -11.230561376124887" fill="#ff8f0d" stroke="none" /><path d="M 94.11515582081647 120.15858648285463 l -10.841237604285759 37.13675658570981 a59.68683396840378,59.68683396840378 0 0,0 -0.983766996804503,-0.296400926173468 l 11.478879575530508 -36.94464029043062" fill="#36ff2f" stroke="none" /><path d="M 93.76903079525671 120.05430185196036 l -10.347659731599624 33.30382239105022 a55.8743264849027,55.8743264849027 0 0,0 -0.9160160936272356,-0.2932794263446185 l 10.9193971703178 -33.12077011804589" fill="#5cff2a" stroke="none" /><path d="M 93.42475214034765 119.94407469862007 l -10.031468482180015 30.427500379587084 a53.03846343473331,53.03846343473331 0 0,0 -0.8646033977243541,-0.29332041537252596 l 10.553741612841595 -30.250316977316434" fill="#7aff26" stroke="none" /><path d="M 93.08242187328487 119.8279376855182 l -10.349350539221062 29.66446837582785 a52.41798434979822,52.41798434979822 0 0,0 -0.8493721307358786,-0.30455462686894713 l 10.858442230586666 -29.481926207918942" fill="#80ff25" stroke="none" /><path d="M 92.7421414339146 119.70592522655815 l -1.7572749918491584 4.771204794991955 a26.084526584917487,26.084526584917487 0 0,0 -0.4199978674157467,-0.15880725566770226 l 1.839143080025188 -4.74024928921762" fill="#ff3404" stroke="none" /><path d="M 92.40401165467489 119.57807347666478 l -12.901607966660288 33.25289840575549 a56.6680072405074,56.6680072405074 0 0,0 -0.9063613949901819,-0.3606599042339848 l 13.472090437692328 -33.02589165711544" fill="#54ff2b" stroke="none" /><path d="M 92.06813273071674 119.44442032107085 l -13.523208268860278 33.15120346092995 a56.803344156530194,56.803344156530194 0 0,0 -0.9021684034376605,-0.3771064658049674 l 14.0918481317954 -32.913511952105004" fill="#52ff2b" stroke="none" /><path d="M 91.7346041902142 119.30500536409082 l -15.03098254747282 35.10699371020665 a59.18941533607083,59.18941533607083 0 0,0 -0.933161509374712,-0.40907058262099244 l 15.633064731505277 -34.843058574291206" fill="#3aff2e" stroke="none" /><path d="M 91.40352486487194 119.15986991738527 l -16.67732766232993 37.17051739894234 a61.74040527120208,61.74040527120208 0 0,0 -0.9658904326609429,-0.44339292370054967 l 17.31468609075829 -36.87793740490772" fill="#31ff41" stroke="none" /><path d="M 91.07499286063937 119.00905698771935 l -4.721398490080214 10.055939626519594 a32.10916403130041,32.10916403130041 0 0,0 -0.49828427613824205,-0.23920673323195338 l 4.893795434218698 -9.97317861678808" fill="#ff870c" stroke="none" /><path d="M 90.7491055286396 118.85261126421891 l -17.395166190753343 35.450010492069815 a60.48791018390044,60.48791018390044 0 0,0 -0.9307824670649325,-0.4667136517134096 l 18.00280256550104 -35.1453289994471" fill="#30ff31" stroke="none" /><path d="M 90.42595943632237 118.69057910512821 l -20.7817079784787 40.57034794536399 a66.58324822685046,66.58324822685046 0 0,0 -1.0155819117331801,-0.5313044568534041 l 21.476980792738374 -40.20661406956587" fill="#37ff79" stroke="none" /><path d="M 90.10565033884886 118.52300852407294 l -13.316210338165643 24.929003527200354 a49.26263743229632,49.26263743229632 0 0,0 -0.7445160641998505,-0.4059695203156269 l 13.743349214234133 -24.69609335512496" fill="#a3ff21" stroke="none" /><line stroke="#e1ed5e" stroke-width="0.3" x1="58.666819895761336" x2="56.23545636021788" y1="174.27360380694188" y2="178.64263932499728" /><path d="M 58.180547188652646 175.14741091055294 a86.0,86.0 0 0,1 -31.652253787137756,-30.449443065178592" fill="none" id="id128" stroke="none" /><text fill="#e1ed5e" style="font-size:6.75px; font-family:Arial;" text-anchor="middle"><textPath startOffset="22.20632615414155" xlink:href="#id128">August</textPath></text><path d="M 89.7882731507175 118.34994917583269 l -8.144984788737398 14.636119739313548 a37.749829200092975,37.749829200092975 0 0,0 -0.5650812075030021,-0.3208678573338054 l 8.395714763161607 -14.49374871618511" fill="#ffd113" stroke="none" /><path d="M 89.4739219176387 118.17145234162733 l -19.640266864188774 33.90552212390468 a60.18321723635186,60.18321723635186 0 0,0 -0.8919500394681504,-0.5269798052083715 l 20.22098477468531 -33.56242374640256" fill="#31ff2f" stroke="none" /><path d="M 89.1626897886671 117.98757091392108 l -18.395696534286348 30.532843433366157 a56.64626458842505,56.64626458842505 0 0,0 -0.8308679875891816,-0.5103869795819646 l 18.918543721807836 -30.211667986955813" fill="#54ff2b" stroke="none" /><path d="M 88.8546689885994 117.79835938074946 l -21.126352163166363 33.737392619356235 a60.80621077765022,60.80621077765022 0 0,0 -0.8823218558343103,-0.5631395540072123 l 21.703955821047597 -33.368738636525215" fill="#30ff35" stroke="none" /><path d="M 88.54995079064634 117.60387380957326 l -12.948292007312336 19.907346630442916 a44.74785707745512,44.74785707745512 0 0,0 -0.6420791197431094,-0.42553502906145907 l 13.289045825795407 -19.681513580290137" fill="#d7ff1c" stroke="none" /><path d="M 88.24862548938628 117.40417183066458 l -2.673833127190472 3.960034730415198 a25.778206636192678,25.778206636192678 0 0,0 -0.3656124463504053,-0.251471574432083 l 2.7416024581637677 -3.913422366618014" fill="#ff2f04" stroke="none" /><path d="M 87.95078237400918 117.19931262002967 l -20.443502793670575 29.181495970189744 a56.629994576662746,56.629994576662746 0 0,0 -0.7935552299036946,-0.5661805863381469 l 20.942785351423158 -28.825271122007376" fill="#54ff2b" stroke="none" /><path d="M 87.65650970185807 116.9893568818739 l -20.951653113630318 28.837476549584352 a56.645081314842336,56.645081314842336 0 0,0 -0.7839005705693208,-0.5799109016913351 l 21.444938654618205 -28.47255569915325" fill="#54ff2b" stroke="none" /><path d="M 87.36589467227662 116.77436683061367 l -17.927688588174618 23.802684638314425 a50.798822361053396,50.798822361053396 0 0,0 -0.6939391791308993,-0.5320829714729516 l 18.334756495799006 -23.490562325014103" fill="#92ff23" stroke="none" /><path d="M 87.07902340077011 116.55440617244103 l -13.894379466593103 17.801533764693612 a43.58203678008719,43.58203678008719 0 0,0 -0.5874080458438189,-0.4666724776391736 l 14.19874500515428 -17.55972737304931" fill="#e5ff1a" stroke="none" /><path d="M 86.79598089348748 116.32954008644616 l -1.8679940538629705 2.3101665892586776 a23.970904147796507,23.970904147796507 0 0,0 -0.31861882825914406,-0.26220160419788147 l 1.9074830106668035 -2.2776698662036154" fill="#ff1502" stroke="none" /><path d="M 86.51685102203217 116.09983520530335 l -24.948939517441453 29.790801498540404 a59.857964910303636,59.857964910303636 0 0,0 -0.7842377451744601,-0.66834442011222 l 25.45804273919297 -29.35693268820523" fill="#34ff2f" stroke="none" /><path d="M 86.24171649860922 115.8653595955263 l -20.46566353023846 23.599972426462863 a52.23783094683016,52.23783094683016 0 0,0 -0.6742601688433915,-0.594956204118721 l 20.86886605198844 -23.24419308057185" fill="#82ff25" stroke="none" /><path d="M 85.97065885151581 115.62618273729859 l -12.882519904713577 14.348828502875973 a40.2833658498792,40.2833658498792 0 0,0 -0.5119832616344896,-0.46768457049713585 l 13.127602715814922 -14.124951165792261" fill="#fff116" stroke="none" /><path d="M 85.70375840098266 115.38237550388516 l -3.5613982991544115 3.83196979269409 a26.23140041837173,26.23140041837173 0 0,0 -0.32809756684057073,-0.3102367282653256 l 3.626831700385799 -3.7700984276828335" fill="#ff3605" stroke="none" /><path d="M 85.44109423537348 115.13401014063109 l -18.658561717054475 19.39561027461169 a47.913409729607906,47.913409729607906 0 0,0 -0.5894491278801088,-0.5769000342266718 l 18.98966079731038 -19.07156013746245" fill="#b2ff20" stroke="none" /><path d="M 85.18274418774928 114.88116024355367 l -25.57429611815464 25.684593927014248 a57.24559265806916,57.24559265806916 0 0,0 -0.6922883299889904,-0.7012844232856648 l 26.012625073199164 -25.24056900974792" fill="#4eff2b" stroke="none" /><path d="M 84.9287848128048 114.62390073753433 l -16.140580528518942 15.661527259977229 a43.49003725903127,43.49003725903127 0 0,0 -0.516689494114921,-0.5417468688821186 l 16.40777657401282 -15.38137327451261" fill="#e6ff1a" stroke="none" /><path d="M 84.67929136418377 114.36230785411682 l -14.311118837348175 13.415873858363108 a40.61616154501722,40.61616154501722 0 0,0 -0.4737654601846529,-0.5141788372156537 l 14.539930705528556 -13.16754376634611" fill="#fff517" stroke="none" /><path d="M 84.43433777217949 114.09645910891817 l -1.8463386668361184 1.6720674737340804 a23.49093880080857,23.49093880080857 0 0,0 -0.26884948829651506,-0.30205525015499446 l 1.8748470047809718 -1.6400380538382218" fill="#ff0e01" stroke="none" /><path d="M 84.19399662182784 113.82643327865904 l -16.90245656682413 14.785564849958398 a43.45675768951746,43.45675768951746 0 0,0 -0.48766240282392603,-0.5672615466135714 l 17.154461479218835 -14.492426204183296" fill="#e6ff1a" stroke="none" /><path d="M 83.95833913139862 113.55231037782056 l -23.85126369181981 20.150016329510304 a52.22348375463977,52.22348375463977 0 0,0 -0.5742195856400591,-0.6916844819359725 l 24.194579277353405 -19.73647059046057" fill="#83ff25" stroke="none" /><path d="M 83.72743513129214 113.27417163493432 l -16.892847594107014 13.78016066773682 a42.80048457870531,42.80048457870531 0 0,0 -0.46078204374368675,-0.5748964480483665 l 17.12754754990556 -13.487336386110192" fill="#eeff19" stroke="none" /><path d="M 83.50135304334701 112.99209946851258 l -17.453385920836862 13.743922549625283 a43.21522196944619,43.21522196944619 0 0,0 -0.4551863091452122,-0.5883896643021469 l 17.687379047200142 -13.441454891209883" fill="#e9ff1a" stroke="none" /><path d="M 83.28015986056508 112.70617746262583 l -20.05664819098402 15.241971758990115 a46.19100712077139,46.19100712077139 0 0,0 -0.4756326128511386,-0.6371876116848244 l 20.316042070530244 -14.894471267795982" fill="#c6ff1e" stroke="none" /><path d="M 83.06392112726016 112.41649034213515 l -37.106711550712944 27.20435639558913 a67.01070580860551,67.01070580860551 0 0,0 -0.6740007235214639,-0.9361280552021461 l 37.56949206661002 -26.561594734935845" fill="#38ff7e" stroke="none" /><path d="M 82.85270091963577 112.12312394758628 l -25.489244683445236 18.020871460836357 a52.216236203945655,52.216236203945655 0 0,0 -0.5125622648804333,-0.7383841712604057 l 25.795667855487803 -17.57944602738894" fill="#83ff25" stroke="none" /><path d="M 82.6465618267979 111.8261652097733 l -19.026825942022207 12.966559408119576 a44.025024827615354,44.025024827615354 0 0,0 -0.42137587021743717,-0.6298997529462218 l 19.24720491765037 -12.637122740967532" fill="#e0ff1b" stroke="none" /><path d="M 82.44556493220864 111.52570212397912 l -21.491537567905333 14.1106825276576 a46.70987258679101,46.70987258679101 0 0,0 -0.43550313737007307,-0.6759105404546216 l 21.73124556865245 -13.73865038728153" fill="#c0ff1e" stroke="none" /><path d="M 82.24976979558568 111.22182372390057 l -26.76868086279078 16.92335335960226 a52.66957789532255,52.66957789532255 0 0,0 -0.4778770001343784,-0.7704898835660035 l 27.056022502593116 -16.460067144670994" fill="#7eff26" stroke="none" /><path d="M 82.05923443525364 110.91462005526583 l -42.54283595281991 25.881776829577387 a70.7971812732869,70.7971812732869 0 0,0 -0.6244281865938922,-1.0465775577735528 l 42.98204501511203 -25.145637177917724" fill="#3cffa8" stroke="none" /><line stroke="#e1ed5e" stroke-width="0.3" x1="26.63291911575756" x2="22.317208475507996" y1="142.92168965132927" y2="145.44649492493687" /><path d="M 25.769776987707644 143.4266507060508 a86.0,86.0 0 0,1 -11.730757126820373,-40.83630448921669" fill="none" id="id129" stroke="none" /><text fill="#e1ed5e" style="font-size:6.75px; font-family:Arial;" text-anchor="middle"><textPath startOffset="21.46611528233685" xlink:href="#id129">September</textPath></text><path d="M 81.87401531095188 110.60418214915194 l -32.417373584913825 18.965023980144665 a58.55739933370428,58.55739933370428 0 0,0 -0.5014967324130872,-0.8744018242476029 l 32.73902231347929 -18.40420231003875" fill="#41ff2d" stroke="none" /><path d="M 81.69416730710424 110.29060199501025 l -27.201075674713994 15.29105221819644 a52.20440346811853,52.20440346811853 0 0,0 -0.4336037854929017,-0.7871168194029183 l 27.46025586965841 -14.820564880395697" fill="#83ff25" stroke="none" /><path d="M 81.51974371655577 109.97397251340807 l -22.661837456448207 12.230812193682956 a46.75173088977948,46.75173088977948 0 0,0 -0.3761232223796837,-0.7114833910051269 l 22.869013187052776 -11.838913787591704" fill="#c0ff1e" stroke="none" /><path d="M 81.35079622478065 109.6543875284942 l -27.716553071996817 14.348405837395394 a52.21031983603209,52.21031983603209 0 0,0 -0.4062990437375633,-0.801666558894491 l 27.959430785520645 -13.869185066798217" fill="#83ff25" stroke="none" /><path d="M 81.18737489456691 109.33194174019688 l -17.23199835864158 8.547876962879048 a40.235591178977174,40.235591178977174 0 0,0 -0.30243128741824227,-0.6230980292699593 l 17.376582902674542 -8.249989977643805" fill="#fff016" stroke="none" /><path d="M 81.02952815118164 109.00673069616217 l -28.422771766418563 13.494458808337912 a52.46354038273266,52.46354038273266 0 0,0 -0.38029916841431927,-0.8191305757621391 l 28.650845551672706 -13.003208165296945" fill="#80ff26" stroke="none" /><path d="M 80.87730276802145 108.67885076344099 l -13.472585955793335 6.114543439637124 a35.79520915064904,35.79520915064904 0 0,0 -0.2498146202350518,-0.5632660194963739 l 13.575841660759666 -5.881729083648055" fill="#ffb811" stroke="none" /><path d="M 80.73074385275274 108.34839909993369 l -13.583984804244507 5.885257097974087 a35.804083702519385,35.804083702519385 0 0,0 -0.2401414313718277,-0.5676234071309437 l 13.68327721680864 -5.650559165176984" fill="#ffb811" stroke="none" /><path d="M 80.58989483394504 108.01547362559985 l -2.7454322959361273 1.133736266273858 a23.970312511005147,23.970312511005147 0 0,0 -0.15420602646048695,-0.3827267113307399 l 2.764540936654002 -1.0863101871003127" fill="#ff1502" stroke="none" /><path d="M 80.45479744820244 107.68017299344265 l -49.91206445178612 19.61265371559538 a74.627142042133,74.627142042133 0 0,0 -0.45951030303026347,-1.1996364013342167 l 50.242269034409894 -18.750593747428006" fill="#41ffd1" stroke="none" /><path d="M 80.32549172779594 107.34259656027581 l -18.974158468305454 7.0812235190821555 a41.2524669141211,41.2524669141211 0 0,0 -0.24255613512279203,-0.6674103101430909 l 19.093238864433474 -6.753565411932947" fill="#fffd17" stroke="none" /><path d="M 80.20201598880116 107.00284435728193 l -31.007670913320013 10.967879010558377 a53.89027250508878,53.89027250508878 0 0,0 -0.30180905569364164,-0.8771983895331278 l 31.191870799956884 -10.432507917935952" fill="#71ff27" stroke="none" /><path d="M 80.0844068197444 106.66101706037122 l -21.298809461188 7.123650895180039 a43.458532599891534,43.458532599891534 0 0,0 -0.23117404051765855,-0.7114805387234857 l 21.418275752721907 -6.7559714564787505" fill="#e6ff1a" stroke="none" /><path d="M 79.97269907076064 106.31721596034903 l -7.271972931243891 2.2938000296091214 a28.6251628762,28.6251628762 0 0,0 -0.14417980309301784,-0.4711879386955612 l 7.31037950684304 -2.168285118361512" fill="#ff5808" stroke="none" /><path d="M 79.86692584326677 105.97154293290107 l -29.92699461527353 8.876455319568672 a52.2156445671543,52.2156445671543 0 0,0 -0.2481669427400046,-0.8639016841222295 l 30.07535419489964 -8.359996159941847" fill="#83ff25" stroke="none" /><path d="M 79.76711848015287 105.62410040840567 l -30.888636827076 8.586062979899525 a53.05976235922214,53.05976235922214 0 0,0 -0.2370303988460435,-0.8820782915788432 l 31.031855302263818 -8.053093755145143" fill="#7aff26" stroke="none" /><path d="M 79.67330655649465 105.27499134158121 l -30.82483596335237 7.99937005318974 a52.84588565914678,52.84588565914678 0 0,0 -0.2209176593776243,-0.8824562334786374 l 30.957964937025054 -7.46758598031371" fill="#7cff26" stroke="none" /><path d="M 79.58551787078972 104.9243191809786 l -33.388510341008526 8.053874737350046 a55.34614273941921,55.34614273941921 0 0,0 -0.2154267802593733,-0.9280529311147212 l 33.52219768719846 -7.477953148886751" fill="#61ff29" stroke="none" /><path d="M 79.50377843672027 104.57218783832718 l -2.8879405572191033 0.6442263835196416 a23.958923502771537,23.958923502771537 0 0,0 -0.08632737990308559,-0.40329277904261984 l 2.8986019758466295 -0.5944197850608579" fill="#ff1502" stroke="none" /><path d="M 79.4281124754447 104.21870165774334 l -24.417370975641003 5.007299563042776 a45.92551011065017,45.92551011065017 0 0,0 -0.15214480078688764,-0.7757830613883333 l 24.49994570940356 -4.586252774586487" fill="#c9ff1d" stroke="none" /><path d="M 79.35854240842038 103.8639653848113 l -30.67614360772292 5.7424024691015445 a52.20898865325154,52.20898865325154 0 0,0 -0.15775457485341612,-0.8847714335654585 l 30.770444624915527 -5.2135122848028725" fill="#83ff25" stroke="none" /><path d="M 79.29508885075956 103.50808413554451 l -38.05819302272184 6.448293460819758 a59.60060290606358,59.60060290606358 0 0,0 -0.1626762855992819,-1.0129853857133857 l 38.16355106268241 -5.792228845413159" fill="#36ff2e" stroke="none" /><path d="M 79.23777060512086 103.15116336523772 l -46.16711199078537 7.006960053146879 a67.6958212129963,67.6958212129963 0 0,0 -0.1649390921225525,-1.153583626146475 l 46.28088513392452 -6.211230955020003" fill="#39ff86" stroke="none" /><path d="M 79.18660465613746 102.79330883721812 l -18.70521428581814 2.5103756260528542 a39.87291782587566,39.87291782587566 0 0,0 -0.08543910114708812,-0.6810337004237476 l 18.745654896212077 -2.188024171341698" fill="#ffec16" stroke="none" /><path d="M 79.1416061653843 102.43462659150553 l -39.842045885421605 4.650430188524542 a61.112530726375034,61.112530726375034 0 0,0 -0.11296418058305376,-1.0459080153327838 l 39.916192367505715 -3.963925851306976" fill="#30ff39" stroke="none" /><path d="M 79.10278846688536 102.07522291339032 l -16.2009724527782 1.6088572008726552 a37.280661224547295,37.280661224547295 0 0,0 -0.05791888683373516,-0.6391300899072775 l 16.226265935889007 -1.3297457224168117" fill="#ffcb12" stroke="none" /><path d="M 79.07016306316243 101.71520430193888 l -23.450928586263164 1.921808264297812 a44.52954310144458,44.52954310144458 0 0,0 -0.05602970332595103,-0.7644807860760059 l 23.480534848253452 -1.5178543417250456" fill="#daff1c" stroke="none" /><path d="M 79.04373962182676 101.35467743843564 l -10.612816217267428 0.6860452403411735 a31.634967143028195,31.634967143028195 0 0,0 -0.03045038692922085,-0.5437121140341901 l 10.62305295508418 -0.5032614099715459" fill="#ff810b" stroke="none" /><path d="M 79.0235259727143 100.99374915477108 l -2.9616661502825705 0.14030733810310705 a23.96498777988294,23.96498777988294 0 0,0 -0.01597422453168553,-0.41222375529167815 l 2.963642507665457 -0.08930633579743216" fill="#ff1502" stroke="none" /><path d="M 79.0095281055655 100.63252640178507 l -31.36883867062963 0.9452678697409741 a52.38307777910818,52.38307777910818 0 0,0 -0.019401537872965825,-0.9015132280774998 l 31.3804622711876 -0.4051648258733454" fill="#81ff25" stroke="none" /><line stroke="#e1ed5e" stroke-width="0.3" x1="15.007084014347285" x2="10.007500721073583" y1="101.09737516637583" y2="101.16192664675087" /><path d="M 14.007167355692545 101.11028546245083 a86.0,86.0 0 0,1 10.666146001902534,-42.60595125391555" fill="none" id="id130" stroke="none" /><text fill="#e1ed5e" style="font-size:6.75px; font-family:Arial;" text-anchor="middle"><textPath startOffset="22.20632615414155" xlink:href="#id130">October</textPath></text><path d="M 79.00175016825051 100.2711162175752 l -37.35165053640326 0.48226105960073684 a58.35476373266469,58.35476373266469 0 0,0 -0.004322984005205606,-1.0045092376677238 l 37.35441781769797 0.1607576562706623" fill="#43ff2d" stroke="none" /><path d="M 79.00019446554 99.90962569577889 l -25.59515384759178 -0.11015074480631938 a46.59539086766353,46.59539086766353 0 0,0 0.010355255120316547,-0.8020259209600272 l 25.58946558535375 0.5507129238268186" fill="#c1ff1e" stroke="none" /><path d="M 79.00486145842228 99.54816195383935 l -12.29831656151539 -0.2646730487258161 a33.30116425668585,33.30116425668585 0 0,0 0.017266345305216525,-0.5729859414973497 l 12.29193852175453 0.4763291376481602" fill="#ff970e" stroke="none" /><path d="M 79.01574976396665 99.18683210126434 l -29.797165336676386 -1.1546802031314418 a50.81952964875087,50.81952964875087 0 0,0 0.0413970849314693,-0.8738270344193634 l 29.772874643511418 1.6674183441738142" fill="#92ff23" stroke="none" /><path d="M 79.03285615573316 98.82574320788736 l -50.87056564727603 -2.8489863795282595 a71.95028137964066,71.95028137964066 0 0,0 0.07989704946854263,-1.2359719920071748 l 50.81398800680307 3.7242174357884466" fill="#3effb5" stroke="none" /><path d="M 79.05617556472873 98.46500227214037 l -29.76410133860327 -2.181446281109839 a50.843934666394325,50.843934666394325 0 0,0 0.07148540074633614,-0.8723029549856597 l 29.722141454037438 2.693463153303277" fill="#92ff23" stroke="none" /><path d="M 79.08570108090925 98.10471618934814 l -53.94639675197275 -4.888699965633881 a75.16745434183929,75.16745434183929 0 0,0 0.1278665487733495,-1.2875986962579573 l 53.854253077517164 5.816574192596269" fill="#42ffd6" stroke="none" /><path d="M 79.12142395522702 97.74499172005258 l -7.810918834434405 -0.8436249008493327 a28.856344952422543,28.856344952422543 0 0,0 0.05758853478869989,-0.49338339734405157 l 7.795239946642116 0.977952036518246" fill="#ff5b08" stroke="none" /><path d="M 79.16333360222342 97.38593545837743 l -50.144396975087204 -6.2908666670215725 a71.53746680847169,71.53746680847169 0 0,0 0.16380036292470151,-1.2205029625063637 l 50.02868061310467 7.153087971592595" fill="#3dffb0" stroke="none" /><path d="M 79.21141760316559 97.0276538004421 l -16.11060594259496 -2.303490321366935 a37.274449038238046,37.274449038238046 0 0,0 0.0962818659819754,-0.6343771986362862 l 16.068568183173685 2.580466632395313" fill="#ffcb12" stroke="none" /><path d="M 79.26566170972629 96.67025291283419 l -31.97225939207851 -5.134455514831758 a53.381908592115735,53.381908592115735 0 0,0 0.1535063851607372,-0.9060033747169266 l 31.87914114539755 5.684044677864513" fill="#76ff27" stroke="none" /><path d="M 79.32604984820605 96.31383870115002 l -16.33221530596435 -2.9120308186535464 a37.58979144803105,37.58979144803105 0 0,0 0.11905989364500286,-0.6360227126235874 l 16.279669688409484 3.192731608739707" fill="#ffcf13" stroke="none" /><path d="M 79.3925641242962 95.95851677861259 l -36.584189508410724 -7.1748076256600095 a58.281104952140815,58.281104952140815 0 0,0 0.201543565546503,-0.9827980023451781 l 36.45526664694923 7.8034812841685905" fill="#43ff2d" stroke="none" /><path d="M 79.46518482838121 95.60439243477599 l -14.972094443091123 -3.204871874973474 a36.31126434190972,36.31126434190972 0 0,0 0.13609049136957424,-0.6100669881460896 l 14.91470956471951 3.4621170326695228" fill="#ffbf11" stroke="none" /><path d="M 79.54389044137918 95.25157060432595 l -49.59784240400871 -11.513032434554587 a71.91655808253333,71.91655808253333 0 0,0 0.2902935830255628,-1.2034543142108087 l 49.392316020722326 12.365071980424792" fill="#3effb4" stroke="none" /><path d="M 79.62865764111835 94.90015583598534 l -19.28174478548455 -4.827069904571163 a40.87677755160975,40.87677755160975 0 0,0 0.17675054014322106,-0.6810919322548673 l 19.19579791347102 5.158258262374894" fill="#fff817" stroke="none" /><path d="M 79.71946130924805 94.55025226153421 l -32.08013003234653 -8.620511454816128 a54.2181871966981,54.2181871966981 0 0,0 0.24995418078809215,-0.8992181785583695 l 31.926989080992076 9.17144093679344" fill="#6dff28" stroke="none" /><path d="M 79.81627453868168 94.20196356495316 l -27.140321897760415 -7.796408820744855 a49.2379365962572,49.2379365962572 0 0,0 0.24101759621347202,-0.8125915181666608 l 27.002098404435234 8.262429725658055" fill="#a3ff21" stroke="none" /><path d="M 79.91906864156998 93.8553929516997 l -37.13753830805798 -11.363794615453362 a59.83725762260616,59.83725762260616 0 0,0 0.3098558872765554,-0.9823278384234874 l 36.936426937013216 12.001372620303265" fill="#34ff2f" stroke="none" /><path d="M 80.02781315780177 93.51064311812611 l -21.11259858428474 -6.8598991186930816 a43.199099866881724,43.199099866881724 0 0,0 0.23587265225524406,-0.7052292078053232 l 20.991388638257725 7.222301429420727" fill="#e9ff1a" stroke="none" /><path d="M 80.14247586403 93.16781622104843 l -27.05344477772447 -9.30801369342525 a49.60992822882258,49.60992822882258 0 0,0 0.28477733377290587,-0.8051038711042003 l 26.889214363141754 9.772315190956062" fill="#9fff22" stroke="none" /><path d="M 80.2630227832202 92.82701384747504 l -23.88805502878202 -8.681607423984456 a46.416716556673876,46.416716556673876 0 0,0 0.27937428521829094,-0.7485841882291685 l 23.735076155062103 9.091514749242965" fill="#c4ff1e" stroke="none" /><path d="M 80.52162464483688 92.15188598940014 l -29.16549868909328 -11.751193552563496 a52.44386845942006,52.44386845942006 0 0,0 0.344576976342515,-0.8344204798139889 l 28.958900025864565 12.251488602830795" fill="#80ff25" stroke="none" /><path d="M 80.65960295795068 91.81776055985345 l -36.31655760502916 -15.36425386304981 a60.43288796230429,60.43288796230429 0 0,0 0.4135603538675978,-0.9545543158189781 l 36.04670654131888 15.987107323455387" fill="#2fff31" stroke="none" /><path d="M 80.803312248108 91.48605970444005 l -34.01520728106083 -15.086115254622753 a58.21055226477155,58.21055226477155 0 0,0 0.41412007793526634,-0.9124586980338637 l 33.75048488616221 15.669395961498687" fill="#44ff2d" stroke="none" /><path d="M 80.95270993114464 91.15688171328213 l -9.660014288718749 -4.484871532785885 a31.650349699603463,31.650349699603463 0 0,0 0.2336727325222237,-0.49217436866832925 l 9.581383362354773 4.650488317094746" fill="#ff810b" stroke="none" /><path d="M 81.10775173730289 90.83032412892265 l -13.44129459996257 -6.523962265130804 a35.94089971052057,35.94089971052057 0 0,0 0.2749307459019388,-0.5542436072367874 l 13.327003841107219 6.754365460866552" fill="#ffba11" stroke="none" /><path d="M 81.26839172434947 90.50648371742162 l -4.216026835353735 -2.136758297537485 a25.726586326146823,25.726586326146823 0 0,0 0.20359599830464764,-0.3932826654198758 l 4.178621403888973 2.209013685217696" fill="#ff2f04" stroke="none" /><path d="M 81.43458229118936 90.18545643968196 l -33.171501411852276 -17.53599895645075 a58.52145739862938,58.52145739862938 0 0,0 0.4784600122512335,-0.8865137372191699 l 32.86473330038257 18.104393677002395" fill="#41ff2d" stroke="none" /><path d="M 81.6062741919709 89.86733742301443 l -22.502481426829377 -12.396077544192675 a46.6909402094676,46.6909402094676 0 0,0 0.39385444185615154,-0.7006231046024888 l 22.285769343680794 12.781584158729947" fill="#c0ff1e" stroke="none" /><line stroke="#e1ed5e" stroke-width="0.3" x1="26.266209847984243" x2="21.928928074336255" y1="57.711370442889674" y2="55.22380399835377" /><path d="M 25.398753493254645 57.213857153982495 a86.0,86.0 0 0,1 29.58750427330803,-30.492523968695096" fill="none" id="id131" stroke="none" /><text fill="#e1ed5e" style="font-size:6.75px; font-family:Arial;" text-anchor="middle"><textPath startOffset="21.46611528233685" xlink:href="#id131">November</textPath></text><path d="M 82.15384107792192 88.93136811851018 l -6.994592196993068 -4.338220147410982 a29.230703132153344,29.230703132153344 0 0,0 0.2688840565456538,-0.4253100048093763 l 6.918880544201452 4.457977799934574" fill="#ff6008" stroke="none" /><path d="M 82.54541684631803 88.32363383020206 l -3.87376946712203 -2.59138533170633 a25.66061882391058,25.66061882391058 0 0,0 0.248755913730875,-0.36501860853252127 l 3.8285890877224147 2.6576819635092668" fill="#ff2e04" stroke="none" /><path d="M 82.7489923806493 88.02491185347247 l -6.398518881261508 -4.441643601407855 a28.789046267405745,28.789046267405745 0 0,0 0.28609098304237346,-0.40465540661239435 l 6.321115278415256 4.551125508352036" fill="#ff5a08" stroke="none" /><path d="M 82.95767976084542 87.72973835380427 l -6.678576802106803 -4.808493423201209 a29.229519858570633,29.229519858570633 0 0,0 0.2974972005738933,-0.40578584724871547 l 6.594816989019276 4.922741714121425" fill="#ff6008" stroke="none" /><path d="M 83.17141714833178 87.43820079747576 l -7.316775152899225 -5.46165182718445 a30.130434782608695,30.130434782608695 0 0,0 0.3138214770697569,-0.41295227808374446 l 7.2216777356053585 5.586788881149221" fill="#ff6c0a" stroke="none" /><path d="M 83.39014120810768 87.1503855733568 l -5.9785617851996795 -4.625097342981528 a28.558751646370236,28.558751646370236 0 0,0 0.304145155668615,-0.38623346127500324 l 5.8980625489370935 4.727323198209579" fill="#ff5708" stroke="none" /><path d="M 83.84228863543731 86.58626213691792 l -6.948274514987251 -5.768288023091275 a30.03059607406729,30.03059607406729 0 0,0 0.33361044451119687,-0.3948895401503186 l 6.84795345698893 5.88703651287071" fill="#ff6b09" stroke="none" /><path d="M 84.07557802195018 86.31012108654704 l -11.621724565601872 -9.990943614022187 a36.3259073524958,36.3259073524958 0 0,0 0.4117076910862589,-0.4706530617822494 l 11.44802501093777 10.18951223200738" fill="#ffbf11" stroke="none" /><path d="M 84.31358615837235 86.03803664274999 l -6.743062069617473 -6.001778767421119 a30.02719416251699,30.02719416251699 0 0,0 0.34696617228531046,-0.3831287134267755 l 6.638752256716117 6.116960268117451" fill="#ff6b09" stroke="none" /><path d="M 84.5562425177563 85.77008943001954 l -17.587276488188913 -16.204953482608637 a44.914698652617645,44.914698652617645 0 0,0 0.5287800586084103,-0.5640656984000718 l 17.305729107610045 16.505288597886757" fill="#d5ff1c" stroke="none" /><path d="M 84.80347519578584 85.50635884689758 l -14.716050932401304 -14.035390601004732 a41.336035610900204,41.336035610900204 0 0,0 0.4955122552430515,-0.5106689357848871 l 14.472274413455134 14.286623732339741" fill="#fffe18" stroke="none" /><path d="M 85.57189188830299 84.74124197986013 l -5.339697706908203 -5.6471128840761615 a28.771888800456406,28.771888800456406 0 0,0 0.3627890153662824,-0.3371728516077397 l 5.241700807747065 5.738190321758548" fill="#ff5a08" stroke="none" /><path d="M 85.83668400450813 84.49514656593479 l -25.296131870352898 -27.692160312136476 a58.50666647884547,58.50666647884547 0 0,0 0.749411925485549,-0.6728294261069709 l 24.81570895727138 28.123488747012725" fill="#41ff2d" stroke="none" /><path d="M 86.10567301691215 84.25364557470407 l -5.97368278197232 -6.7699375740702115 a30.02867325449538,30.02867325449538 0 0,0 0.3905246135339268,-0.338659096563175 l 5.856264369791619 6.871761664053067" fill="#ff6b09" stroke="none" /><path d="M 86.37877921826538 84.01681056812374 l -9.745026532976539 -11.434849165948933 a36.02402467970616,36.02402467970616 0 0,0 0.4754184251609314,-0.3981492587703114 l 9.546750570856497 11.600899582113056" fill="#ffbb11" stroke="none" /><path d="M 86.65592168130627 83.78471172551755 l -4.939355059273766 -6.002142992816898 a28.773219983236956,28.773219983236956 0 0,0 0.3851454452211385,-0.31142749829845373 l 4.835306215488127 6.086276588379485" fill="#ff5a08" stroke="none" /><path d="M 86.93701828274178 83.55741782278169 l -9.789852771488352 -12.322642883699263 a36.738130286873414,36.738130286873414 0 0,0 0.4985319579081159,-0.38911210073016794 l 9.576288258420812 12.489333373652652" fill="#ffc412" stroke="none" /><path d="M 87.22198572758235 83.33499621200491 l -4.726314592411645 -6.164029003772122 a28.76745152452123,28.76745152452123 0 0,0 0.3955577273464083,-0.29792587946561366 l 4.619510711306847 6.24447147274359" fill="#ff5a08" stroke="none" /><path d="M 87.51073957382395 83.11751280151077 l -4.621621884439692 -6.247325272902512 a28.77100134526937,28.77100134526937 0 0,0 0.4006768617436035,-0.29110878004445306 l 4.513399706342307 6.325953287763633" fill="#ff5a08" stroke="none" /><line stroke="#e1ed5e" stroke-width="0.3" x1="56.762969772571076" x2="54.21961505331055" y1="26.818313649435495" y2="22.513508569990535" /><path d="M 56.25429882871897 25.957352633546506 a86.0,86.0 0 0,1 42.265352541879196,-11.944610805530505" fill="none" id="id132" stroke="none" /><text fill="#e1ed5e" style="font-size:6.75px; font-family:Arial;" text-anchor="middle"><textPath startOffset="22.20632615414155" xlink:href="#id132">December</textPath></text></svg>