<?xml version="1.0" encoding="utf-8" ?>
<svg baseProfile="full" height="200mm" version="1.1" viewBox="0,0,200,200" width="200mm" xmlns="http://www.w3.org/2000/svg" xmlns:ev="http://www.w3.org/2001/xml-events" xmlns:xlink="http://www.w3.org/1999/xlink"><defs /><rect fill="#1a1a1a" height="200" width="200" x="0" y="0" /><text alignment-baseline="middle" fill="#e1ed5e" style="dominant-baseline: central; font-size:9.0px; font-family:Arial;" text-anchor="middle" x="100.0" y="100.0">2024</text><line stroke="#e1ed5e" stroke-width="0.3" x1="100.0" x2="100.0" y1="15.0" y2="10.0" /><path d="M 100.0 14.0 a86.0,86.0 0 0,1 42.35913384403234,11.155469271406648" fill="none" id="id133" stroke="none" /><text fill="#e1ed5e" style="font-size:6.75px; font-family:Arial;" text-anchor="middle"><textPath startOffset="22.145653131862478" xlink:href="#id133">January</textPath></text><path d="M 100.0 79.0 l 0.0 -8.4496399045007 a29.4496399045007,29.4496399045007 0 0,0 0.5055422297580479,0.004339472026059298 l -0.1450493049091931 8.448394830669075" fill="#ff4306" stroke="none" /><path d="M 101.08105385017728 79.02784411241856 l 0.5574569864703338 -10.814516611693351 a31.82887472622876,31.82887472622876 0 0,0 0.5454190635953212,0.03281105647088137 l -0.7430204021981174 10.803353577397779" fill="#ff6609" stroke="none" /><path d="M 102.15924093988457 79.11130261209362 l 0.4110742118855239 -3.976770103529001 a24.997959787691638,24.997959787691638 0 0,0 0.42647007262651837,0.04778686116924786 l -0.4792801861128389 3.9691274818527824" fill="#ff0000" stroke="none" /><path d="M 102.87502721639298 79.19773525538626 l 2.0776029828372864 -15.032500227042355 a36.17539117223417,36.17539117223417 0 0,0 0.614421610759877,0.09029881801150472 l -2.335349699204845 14.994620335731968" fill="#ffa30f" stroke="none" /><path d="M 103.23170211078529 79.25015418208739 l 4.6389824111776985 -29.785594861203098 a51.1446814388035,51.1446814388035 0 0,0 0.8663482755698314,0.14255727906083268 l -5.149608189800601 29.701571583646597" fill="#9dff22" stroke="none" /><path d="M 103.94208987418118 79.37332000966035 l 9.406225774643936 -49.21734794561619 a71.10812730609103,71.10812730609103 0 0,0 1.196998710000729,0.23943326590418654 l -10.249720970175622 49.04862528304915" fill="#3cffa6" stroke="none" /><path d="M 104.29559338865022 79.4440306129975 l 1.683385083377591 -8.055607016221746 a29.229616621613623,29.229616621613623 0 0,0 0.49027473914030345,0.10685309749293788 l -1.8214222391370285 8.02552246059509" fill="#ff4006" stroke="none" /><path d="M 104.64783097203109 79.52079915486377 l 8.33775811286193 -36.737700664885885 a58.671963852331245,58.671963852331245 0 0,0 0.9802907425104184,0.23134594603915096 l -8.967181009112235 36.58915857520051" fill="#4aff2c" stroke="none" /><path d="M 106.38641147887787 79.99465700312896 l 9.236398478650672 -28.932886681716095 a51.37141729642272,51.37141729642272 0 0,0 0.8377877313730604,0.27539746788112013 l -9.731708947671475 28.770068292432953" fill="#9bff22" stroke="none" /><path d="M 106.72888874123014 80.10723608172694 l 8.369175694223435 -24.74198083490675 a47.119125510546354,47.119125510546354 0 0,0 0.7639900125060649,0.26575538483173455 l -8.792671478774517 24.594667017506428" fill="#cdff1d" stroke="none" /><path d="M 107.40779381753099 80.34994680014964 l 10.68148296514065 -28.333902601552953 a51.280424616720275,51.280424616720275 0 0,0 0.8210429117738647,0.31759703628473984 l -11.166298139408042 28.146365677130177" fill="#9cff22" stroke="none" /><path d="M 108.73861861582097 80.90454125486305 l 16.7308484022154 -36.55992319623967 a61.206333734535626,61.206333734535626 0 0,0 0.9516456546130054,0.44541821776491963 l -17.35598277069991 36.26732874690422" fill="#30ff2f" stroke="none" /><path d="M 109.3889696526874 81.21577127319529 l 28.166908958062173 -56.352686180414125 a84.0,84.0 0 0,0 1.2842911131456847,0.6557681933086643 l -29.130127292921436 55.86086003543262" fill="#4dd2ff" stroke="none" /><path d="M 110.34350942703115 81.72400993836675 l 19.800123280452734 -34.98492062539091 a61.199372545924504,61.199372545924504 0 0,0 0.9098526224312018,0.5253036564835414 l -20.397768370744334 34.6398700716312" fill="#30ff2f" stroke="none" /><line stroke="#e1ed5e" stroke-width="0.3" x1="143.13028292997686" x2="145.6673583964461" y1="26.7553504044142" y2="22.446841604673864" /><path d="M 143.63769802327073 25.89364864446614 a86.0,86.0 0 0,1 29.32050498858742,28.57503671076993" fill="none" id="id134" stroke="none" /><text fill="#e1ed5e" style="font-size:6.75px; font-family:Arial;" text-anchor="middle"><textPath startOffset="20.669276256404974" xlink:href="#id134">February</textPath></text><path d="M 110.96478420261332 82.08984904055464 l 21.031979630344495 -34.354158111535945 a61.280917898226164,61.280917898226164 0 0,0 0.8924715673319094,0.5569682649268389 l -21.618615326466116 33.98805404976756" fill="#2fff2f" stroke="none" /><path d="M 111.27062007382361 82.28071324371311 l 21.69773938917732 -34.11245021850706 a61.42834592845445,61.42834592845445 0 0,0 0.8849027252402016,0.5735832554092779 l -22.280127746674527 33.734953121393886" fill="#30ff31" stroke="none" /><path d="M 112.45986205192187 83.09580414077388 l 29.57929604342811 -40.12999595120044 a70.85329808014838,70.85329808014838 0 0,0 0.9728731774869201,0.7300621695302482 l -30.263822209825793 39.61631475440618" fill="#3cffa3" stroke="none" /><path d="M 112.7482090630111 83.31218511350987 l 15.399271090175116 -20.158140180282164 a46.3670685266668,46.3670685266668 0 0,0 0.6283622190050654,0.4886182621132424 l -15.743043253815408 19.89082086654813" fill="#d7ff1c" stroke="none" /><path d="M 113.03279911837588 83.53348406188908 l 8.045563150226439 -10.165306212499287 a33.96397071880981,33.96397071880981 0 0,0 0.45406469595154175,0.36576237750521723 l -8.21887861653324 10.025695541200662" fill="#ff840c" stroke="none" /><path d="M 113.31354834802062 83.75963576809568 l 17.58330924735286 -21.44877827567865 a48.73486710996231,48.73486710996231 0 0,0 0.6424315255831902,0.5359392275104724 l -17.948915107097946 21.143776864256306" fill="#baff1f" stroke="none" /><path d="M 114.13192950727249 84.46653392183569 l 10.551725444574911 -11.598194653819903 a36.67982873266115,36.67982873266115 0 0,0 0.46211384171260766,0.42772567293012076 l -10.749269057601484 11.415351234757408" fill="#ffaa0f" stroke="none" /><line stroke="#e1ed5e" stroke-width="0.3" x1="172.87174338648825" x2="177.1583165268699" y1="56.24261187166439" y2="53.66864786411523" /><path d="M 173.72905801456457 55.72781907015455 a86.0,86.0 0 0,1 12.242430191666344,42.057860355516425" fill="none" id="id135" stroke="none" /><text fill="#e1ed5e" style="font-size:6.75px; font-family:Arial;" text-anchor="middle"><textPath startOffset="22.145653131862474" xlink:href="#id135">March</textPath></text><line stroke="#e1ed5e" stroke-width="0.3" x1="184.99686870605535" x2="189.99668451229388" y1="99.2704041080226" y2="99.22748670261217" /><path d="M 185.99683186730306 99.26182062694052 a86.0,86.0 0 0,1 -10.086455211305974,41.156179273409016" fill="none" id="id136" stroke="none" /><text fill="#e1ed5e" style="font-size:6.75px; font-family:Arial;" text-anchor="middle"><textPath startOffset="21.40746469413373" xlink:href="#id136">April</textPath></text><line stroke="#e1ed5e" stroke-width="0.3" x1="174.33088141563837" x2="178.70328620479359" y1="141.23008692659167" y2="143.65538615756765" /><path d="M 175.20536237346943 141.71514677278685 a86.0,86.0 0 0,1 -30.301960400862466,31.631185727798858" fill="none" id="id137" stroke="none" /><text fill="#e1ed5e" style="font-size:6.75px; font-family:Arial;" text-anchor="middle"><textPath startOffset="22.145653131862474" xlink:href="#id137">May</textPath></text><line stroke="#e1ed5e" stroke-width="0.3" x1="143.1302829299769" x2="145.66735839644613" y1="173.24464959558577" y2="177.55315839532614" /><path d="M 143.63769802327073 174.10635135553383 a86.0,86.0 0 0,1 -40.68552437913181,11.842963189579606" fill="none" id="id138" stroke="none" /><text fill="#e1ed5e" style="font-size:6.75px; font-family:Arial;" text-anchor="middle"><textPath startOffset="21.407464694133747" xlink:href="#id138">June</textPath></text><line stroke="#e1ed5e" stroke-width="0.3" x1="101.45913802915013" x2="101.54496967792366" y1="184.9874750549273" y2="189.98673829345242" /><path d="M 101.47630435890484 185.9873277026323 a86.0,86.0 0 0,1 -42.54439059252881,-10.42667462771756" fill="none" id="id139" stroke="none" /><text fill="#e1ed5e" style="font-size:6.75px; font-family:Arial;" text-anchor="middle"><textPath startOffset="22.145653131862474" xlink:href="#id139">July</textPath></text><line stroke="#e1ed5e" stroke-width="0.3" x1="58.13341422392154" x2="55.67067388415222" y1="173.97424548756322" y2="178.32567169271397" /><path d="M 57.64086615596768 174.84453072859336 a86.0,86.0 0 0,1 -31.369924170532247,-30.572349798747897" fill="none" id="id140" stroke="none" /><text fill="#e1ed5e" style="font-size:6.75px; font-family:Arial;" text-anchor="middle"><textPath startOffset="22.145653131862474" xlink:href="#id140">August</textPath></text><line stroke="#e1ed5e" stroke-width="0.3" x1="26.387840678322732" x2="22.057713659400548" y1="142.50000000000003" y2="145.00000000000006" /><path d="M 25.521815274538298 143.00000000000003 a86.0,86.0 0 0,1 -11.493303480769221,-40.785679425670985" fill="none" id="id141" stroke="none" /><text fill="#e1ed5e" style="font-size:6.75px; font-family:Arial;" text-anchor="middle"><textPath startOffset="21.40746469413373" xlink:href="#id141">September</textPath></text><line stroke="#e1ed5e" stroke-width="0.3" x1="15.003131293944662" x2="10.003315487706104" y1="100.72959589197737" y2="100.7725132973878" /><path d="M 14.003168132696942 100.73817937305945 a86.0,86.0 0 0,1 10.791469493833604,-42.45332614584628" fill="none" id="id142" stroke="none" /><text fill="#e1ed5e" style="font-size:6.75px; font-family:Arial;" text-anchor="middle"><textPath startOffset="22.145653131862435" xlink:href="#id142">October</textPath></text><line stroke="#e1ed5e" stroke-width="0.3" x1="26.387840678322718" x2="22.05771365940052" y1="57.49999999999999" y2="54.99999999999999" /><path d="M 25.521815274538284 56.99999999999999 a86.0,86.0 0 0,1 29.574782752854787,-30.34633250058573" fill="none" id="id143" stroke="none" /><text fill="#e1ed5e" style="font-size:6.75px; font-family:Arial;" text-anchor="middle"><textPath startOffset="21.40746469413373" xlink:href="#id143">November</textPath></text><line stroke="#e1ed5e" stroke-width="0.3" x1="56.869717070023135" x2="54.33264160355391" y1="26.7553504044142" y2="22.446841604673864" /><path d="M 56.362301976729285 25.89364864446614 a86.0,86.0 0 0,1 42.16139366436587,-11.88097634709845" fill="none" id="id144" stroke="none" /><text fill="#e1ed5e" style="font-size:6.75px; font-family:Arial;" text-anchor="middle"><textPath startOffset="22.145653131862474" xlink:href="#id144">December</textPath></text></svg>