<?xml version="1.0" encoding="utf-8" ?>
<svg baseProfile="full" height="200mm" version="1.1" viewBox="0,0,200,200" width="200mm" xmlns="http://www.w3.org/2000/svg" xmlns:ev="http://www.w3.org/2001/xml-events" xmlns:xlink="http://www.w3.org/1999/xlink"><defs /><rect fill="#1a1a1a" height="200" width="200" x="0" y="0" /><text alignment-baseline="middle" fill="#e1ed5e" style="dominant-baseline: central; font-size:9.0px; font-family:Arial;" text-anchor="middle" x="100.0" y="100.0">2024</text><line stroke="#e1ed5e" stroke-width="0.3" x1="100.0" x2="100.0" y1="15.0" y2="10.0" /><path d="M 100.0 14.0 a86.0,86.0 0 0,1 42.35913384403234,11.155469271406648" fill="none" id="id133" stroke="none" /><text fill="#e1ed5e" style="font-size:6.75px; font-family:Arial;" text-anchor="middle"><textPath startOffset="22.145653131862478" xlink:href="#id133">January</textPath></text><path d="M 100.0 79.0 l 0.0 -7.504016289453208 a28.504016289453208,28.504016289453208 0 0,0 0.4893093429583042,0.0042001322162013 l -0.1288164181094494 7.502910555431442" fill="#ff3b05" stroke="none" /><path d="M 101.08105385017728 79.02784411241856 l 0.49507036446780656 -9.604232811564371 a30.61698406801758,30.61698406801758 0 0,0 0.5246521255974544,0.031561769049785915 l -0.6598668421977234 9.594319064689893" fill="#ff5a08" stroke="none" /><path d="M 102.15924093988457 79.11130261209362 l 0.36506970912689957 -3.531718271259935 a24.550536556645103,24.550536556645103 0 0,0 0.4188369449849114,0.04693155329582514 l -0.4256425557126076 3.524930957457139" fill="#ff0000" stroke="none" /><path d="M 102.87502721639298 79.19773525538626 l 1.8450924302612428 -13.350169693604315 a34.477069300268454,34.477069300268454 0 0,0 0.5855764310299942,0.08605956992952969 l -2.073993966898919 13.316529050375902" fill="#ff900d" stroke="none" /><path d="M 103.23170211078529 79.25015418208739 l 4.119820486246083 -26.452202881506043 a47.77110304270725,47.77110304270725 0 0,0 0.8092026693457564,0.13315399130311467 l -4.57330065864491 26.37758289170726" fill="#c2ff1e" stroke="none" /><path d="M 103.94208987418118 79.37332000966035 l 8.353547871028908 -43.70929233456067 a65.50038200309808,65.50038200309808 0 0,0 1.102600725579049,0.220551025250108 l -9.102645082138915 43.5594519126477" fill="#35ff66" stroke="none" /><path d="M 104.29559338865022 79.4440306129975 l 1.4949925949340725 -7.154080760170996 a28.308616447861834,28.308616447861834 0 0,0 0.47482660221193734,0.10348624795019899 l -1.617581613765144 7.127363054087078" fill="#ff3805" stroke="none" /><path d="M 104.64783097203109 79.52079915486377 l 7.404655512374019 -32.62627843815198 a54.45598553294689,54.45598553294689 0 0,0 0.9098502076150979,0.21472217160348803 l -7.9636378737290014 32.494360122902265" fill="#75ff27" stroke="none" /><path d="M 106.38641147887787 79.99465700312896 l 8.202726438408042 -25.69492373809401 a47.97246423539802,47.97246423539802 0 0,0 0.7823561056967002,0.25717599150931353 l -8.642605281752486 25.550326825182676" fill="#c0ff1e" stroke="none" /><path d="M 106.72888874123014 80.10723608172694 l 7.432557061431318 -21.973034273281318 a44.19605870932017,44.19605870932017 0 0,0 0.716595375661096,0.24926906989630856 l -7.808658209137432 21.84220677081642" fill="#eeff19" stroke="none" /><path d="M 107.40779381753099 80.34994680014964 l 9.486087344768194 -25.162973696971758 a47.891654809383965,47.891654809383965 0 0,0 0.7667858448571534,0.29660923722680654 l -9.916645452118873 24.996424571606912" fill="#c1ff1e" stroke="none" /><path d="M 108.73861861582097 80.90454125486305 l 14.858450817498525 -32.46839655966999 a56.706726759141795,56.706726759141795 0 0,0 0.8816850612506918,0.41267312755391017 l -15.413624592620721 32.208547200545546" fill="#5dff2a" stroke="none" /><path d="M 109.3889696526874 81.21577127319529 l 25.01466879461461 -50.04609425154672 a76.94948797566394,76.94948797566394 0 0,0 1.176494566288761,0.6007265084027135 l -25.870090582616953 49.609309791471176" fill="#44ffe6" stroke="none" /><path d="M 110.34350942703115 81.72400993836675 l 17.584234276132605 -31.06965707714074 a56.70054461726093,56.70054461726093 0 0,0 0.842968433615546,0.4866880520662927 l -18.11499517760855 30.763222127798276" fill="#5dff2a" stroke="none" /><line stroke="#e1ed5e" stroke-width="0.3" x1="143.13028292997686" x2="145.6673583964461" y1="26.7553504044142" y2="22.446841604673864" /><path d="M 143.63769802327073 25.89364864446614 a86.0,86.0 0 0,1 29.32050498858742,28.57503671076993" fill="none" id="id134" stroke="none" /><text fill="#e1ed5e" style="font-size:6.75px; font-family:Arial;" text-anchor="middle"><textPath startOffset="20.669276256404974" xlink:href="#id134">February</textPath></text><path d="M 110.96478420261332 82.08984904055464 l 18.67823002273601 -30.509485018657756 a56.77296399357955,56.77296399357955 0 0,0 0.8268194716269849,0.5159965015989618 l -19.19921362315271 30.184352720217248" fill="#5cff2a" stroke="none" /><path d="M 111.27062007382361 82.28071324371311 l 19.269482683394703 -30.29482735429835 a56.90389292698484,56.90389292698484 0 0,0 0.8197259614724652,0.5313364645783513 l -19.786694277124177 29.9595770480161" fill="#5bff2a" stroke="none" /><path d="M 112.45986205192187 83.09580414077388 l 26.268991560482306 -35.638932157700516 a65.27407145210242,65.27407145210242 0 0,0 0.8962658764208955,0.6725746226306722 l -26.876910425813968 35.18273850780582" fill="#35ff63" stroke="none" /><path d="M 112.7482090630111 83.31218511350987 l 13.675894169741937 -17.902184470292777 a43.52816659540615,43.52816659540615 0 0,0 0.589889682919702,0.4587017853542096 l -13.981193797296866 17.664781633317777" fill="#f6ff19" stroke="none" /><path d="M 113.03279911837588 83.53348406188908 l 7.145160932238715 -9.0276774238916 a32.51313529918903,32.51313529918903 0 0,0 0.4346684613610733,0.3501381439065412 l -7.299080163955048 8.90369098619165" fill="#ff750a" stroke="none" /><path d="M 113.31354834802062 83.75963576809568 l 15.615510306462696 -19.04838352742484 a45.6309779980234,45.6309779980234 0 0,0 0.6015155174831834,0.5018056383251916 l -15.940200158107773 18.777515705187778" fill="#dcff1b" stroke="none" /><path d="M 114.13192950727249 84.46653392183569 l 9.370851363234149 -10.300207179735027 a34.92505379584913,34.92505379584913 0 0,0 0.44000616522094677,0.40726313761788524 l -9.54628729976906 10.137826295984766" fill="#ff970d" stroke="none" /><path d="M 114.39649973595853 84.71141617570332 l 32.34270451969675 -34.34683139810585 a68.17791180985358,68.17791180985358 0 0,0 0.8451707762072935,0.8096544850701625 l -32.927547781769356 33.7865647827301" fill="#39ff85" stroke="none" /><path d="M 114.65682725009322 84.96080404539774 l 9.528596851967807 -9.777179793685479 a34.65237718074704,34.65237718074704 0 0,0 0.42244231166549295,0.41883171531284996 l -9.695031083763263 9.61216806814397" fill="#ff930d" stroke="none" /><path d="M 114.91283532996326 85.21462403516908 l 33.476816585639995 -33.19069166745733 a68.14148133091282,68.14148133091282 0 0,0 0.816442671047296,0.8377421051681567 l -34.0416460578381 32.61112687022143" fill="#38ff85" stroke="none" /><path d="M 115.8921839302757 86.27271002978787 l 22.335486548019606 -19.29286130940961 a50.514207711556125,50.514207711556125 0 0,0 0.5612018704398573,0.6610943922561249 l -22.663382981966578 18.906600134703933" fill="#a2ff22" stroke="none" /><path d="M 116.1254893667686 86.54754324733833 l 22.432976866593524 -18.714387158582273 a50.214153039553096,50.214153039553096 0 0,0 0.5465049712584856,0.6666472044699988 l -22.75092865709064 18.326537672413778" fill="#a5ff21" stroke="none" /><path d="M 116.57777611688842 87.10902102172516 l 18.25438933763422 -14.194723559631194 a44.123860123783025,44.123860123783025 0 0,0 0.45982950188500327,0.6019315786927822 l -18.49537081687353 13.87927106769753" fill="#efff19" stroke="none" /><path d="M 116.7966241395341 87.39550010848427 l 21.582995070799896 -16.196281870008413 a47.984166146815355,47.984166146815355 0 0,0 0.48874839194085534,0.6630810605142787 l -21.857845482324578 15.823394500225257" fill="#c0ff1e" stroke="none" /><path d="M 117.01052211995028 87.68569379921539 l 18.37374611856562 -13.301175246945098 a43.68294093320904,43.68294093320904 0 0,0 0.43450984822642474,0.6111925166895432 l -18.599371065322007 12.983805503546051" fill="#f4ff19" stroke="none" /><path d="M 117.21940702142032 87.97951657250589 l 20.55480793568306 -14.348852305938621 a46.06770216374966,46.06770216374966 0 0,0 0.44709859534795426,0.6523302123160718 l -20.798096267846336 13.9938873585525" fill="#d7ff1c" stroke="none" /><path d="M 117.42321728460499 88.27688183743584 l 29.614975244274184 -19.92627701869986 a56.69458326616154,56.69458326616154 0 0,0 0.5363727685981121,0.8121367350306229 l -29.952672451793024 19.414960405330177" fill="#5dff2a" stroke="none" /><line stroke="#e1ed5e" stroke-width="0.3" x1="172.87174338648825" x2="177.1583165268699" y1="56.24261187166439" y2="53.66864786411523" /><path d="M 173.72905801456457 55.72781907015455 a86.0,86.0 0 0,1 12.242430191666344,42.057860355516425" fill="none" id="id135" stroke="none" /><text fill="#e1ed5e" style="font-size:6.75px; font-family:Arial;" text-anchor="middle"><textPath startOffset="22.145653131862474" xlink:href="#id135">March</textPath></text><path d="M 118.18653347947321 89.5 l 26.36065170303783 -15.219329356762863 a51.43865871352572,51.43865871352572 0 0,0 0.4349423588368876,0.7685014726928906 l -26.618027426896095 14.764571113970854" fill="#97ff23" stroke="none" /><path d="M 118.36410011445183 89.81374322990088 l 30.69659303138285 -17.02688270245441 a56.102643181069475,56.102643181069475 0 0,0 0.4599205201186796,0.8462019550906077 l -30.98435890111687 16.497425913889202" fill="#63ff29" stroke="none" /><path d="M 118.70294669586156 90.45014215332178 l 23.880934486246893 -12.193775307072698 a47.81393645431032,47.81393645431032 0 0,0 0.36698354416163004,0.7342129208536113 l -24.08673794362026 11.782030530055335" fill="#c2ff1e" stroke="none" /><path d="M 119.4528033332814 92.08871423366111 l 25.01571414918778 -10.173673166410806 a48.00536206183544,48.00536206183544 0 0,0 0.30389983053482594,0.7660260950102648 l -25.18667265468873 9.742746054186975" fill="#bfff1e" stroke="none" /><path d="M 119.83427380445688 93.10060997987247 l 21.199201716001497 -7.374182800742882 a43.4451492615775,43.4451492615775 0 0,0 0.23897848103222874,0.7064974154785156 l -21.322665618606088 7.009183710790205" fill="#f7ff18" stroke="none" /><path d="M 120.16314734710363 94.1308016681162 l 35.32447909772157 -10.282441040872186 a57.79058870532491,57.79058870532491 0 0,0 0.26908813845258556,0.9548988739870367 l -35.495785728248734 9.674534242982135" fill="#51ff2b" stroke="none" /><path d="M 120.26092885502905 94.47779374421319 l 13.34359163671526 -3.6368552369031026 a34.83033455060314,34.83033455060314 0 0,0 0.15227576661122932,0.5782158887408549 l -13.40405688413122 3.407258843789449" fill="#ff950d" stroke="none" /><path d="M 120.43855184770803 95.1765574152323 l 32.57720561577202 -7.688131822190199 a54.47210325999341,54.47210325999341 0 0,0 0.20696581848841455,0.9119295840162724 l -32.7043822958181 7.1277679042349" fill="#75ff27" stroke="none" /><path d="M 120.592083275326 95.88100663000786 l 22.94813028865605 -4.590268757603088 a44.402718880765974,44.402718880765974 0 0,0 0.14309031521021473,0.7487089933917165 l -23.02354689614842 4.195657199178057" fill="#ebff1a" stroke="none" /><path d="M 120.65975698304385 96.23510406497455 l 22.925800812811776 -4.177844606700767 a44.303363029109335,44.303363029109335 0 0,0 0.12992527132645224,0.7493744387137081 l -22.994140901630463 3.783677135066467" fill="#ecff1a" stroke="none" /><path d="M 120.77682067341334 96.94652285012252 l 40.57275358812806 -5.962797577951357 a62.008575794321125,62.008575794321125 0 0,0 0.14573634457387927,1.0544755908577732 l -40.66913444925715 5.265433678893498" fill="#31ff3b" stroke="none" /><path d="M 120.96210409425399 98.7389718711861 l 22.930281241318735 -1.3794287785663224 a43.971735275357645,43.971735275357645 0 0,0 0.03885931026414251,0.7538602377761983 l -22.950582141039447 0.9855967474133934" fill="#f1ff19" stroke="none" /><path d="M 120.98066250479742 99.09900007780936 l 47.001895757370725 -2.0184636405318592 a68.04521655019661,68.04521655019661 0 0,0 0.040099088246472986,1.1674412023530336 l -47.02961953261405 1.2113161736147058" fill="#38ff84" stroke="none" /><path d="M 120.99303781780057 99.45929381324524 l 62.97911345340172 -1.6221185602642854 a84.0,84.0 0 0,0 0.024754273605335886,1.4418123361237345 l -62.99767915860572 0.5407593081714844" fill="#4dd2ff" stroke="none" /><line stroke="#e1ed5e" stroke-width="0.3" x1="184.99686870605535" x2="189.99668451229388" y1="99.2704041080226" y2="99.22748670261217" /><path d="M 185.99683186730306 99.26182062694052 a86.0,86.0 0 0,1 -10.086455211305974,41.156179273409016" fill="none" id="id136" stroke="none" /><text fill="#e1ed5e" style="font-size:6.75px; font-family:Arial;" text-anchor="middle"><textPath startOffset="21.40746469413373" xlink:href="#id136">April</textPath></text><path d="M 120.86939407059847 102.33845913500097 l 23.124860830543223 2.5911888899062525 a44.26958203954609,44.26958203954609 0 0,0 -0.09110661799551648,0.7544934919957833 l -23.076972126288045 -2.9877760588254447" fill="#edff1a" stroke="none" /><path d="M 120.65975698304385 103.76489593502545 l 26.799369488683414 4.883737854806262 a48.24072503487092,48.24072503487092 0 0,0 -0.15545851076697992,0.8134246188467125 l -26.711584685634275 -5.343065038686289" fill="#bdff1f" stroke="none" /><path d="M 120.592083275326 104.11899336999214 l 28.619616878038887 5.724724914725312 a50.1865541918707,50.1865541918707 0 0,0 -0.1762319710450301,0.8433337781421172 l -28.517127196169493 -6.215175144152838" fill="#a6ff21" stroke="none" /><path d="M 120.43855184770803 104.8234425847677 l 13.97436862817046 3.2979129460152046 a35.358245309072046,35.358245309072046 0 0,0 -0.1444846899054786,0.5895468403356935 l -13.915696411748685 -3.5373156109589976" fill="#ff9d0e" stroke="none" /><path d="M 119.83427380445688 106.89939002012753 l 23.998360509543456 8.347875532592537 a46.4088239211041,46.4088239211041 0 0,0 -0.2681984275964654,0.7501987350803685 l -23.85152191190305 -8.758609224053828" fill="#d3ff1c" stroke="none" /><path d="M 119.71291397450082 107.23885506374661 l 21.448566210730796 7.8762106061787645 a43.848975600866346,43.848975600866346 0 0,0 -0.2655354401237834,0.7043643024364099 l -21.31020008679257 -8.243243188809332" fill="#f2ff19" stroke="none" /><path d="M 119.58574465831526 107.57618678355244 l 21.76034452415889 8.417368727386517 a44.33162424913611,44.33162424913611 0 0,0 -0.2806430889801926,0.7074039138645716 l -21.61264276021257 -8.789673658464652" fill="#ecff1a" stroke="none" /><path d="M 118.8641267826498 109.22738970284198 l 20.89315521589847 10.219889185455301 a44.25876329125458,44.25876329125458 0 0,0 -0.33969672897265757,0.67962101176281 l -20.71463857371408 -10.577042053381858" fill="#edff1a" stroke="none" /><path d="M 118.70294669586154 109.54985784667822 l 21.155898543141713 10.802352537873368 a44.75421780484899,44.75421780484899 0 0,0 -0.3552460470193327,0.6812311361066347 l -20.96734442714743 -11.163929917084506" fill="#e7ff1a" stroke="none" /><path d="M 118.5362547648365 109.86951160357373 l 29.534202191826676 15.72529914659365 a54.4597389762317,54.4597389762317 0 0,0 -0.4464522534996698,0.8214218614741022 l -29.259904588711667 -16.229975841542355" fill="#75ff27" stroke="none" /><line stroke="#e1ed5e" stroke-width="0.3" x1="174.33088141563837" x2="178.70328620479359" y1="141.23008692659167" y2="143.65538615756765" /><path d="M 175.20536237346943 141.71514677278685 a86.0,86.0 0 0,1 -30.301960400862466,31.631185727798858" fill="none" id="id137" stroke="none" /><text fill="#e1ed5e" style="font-size:6.75px; font-family:Arial;" text-anchor="middle"><textPath startOffset="22.145653131862474" xlink:href="#id137">May</textPath></text><path d="M 118.36410011445183 110.18625677009912 l 11.895687628197004 6.59833740191538 a34.60314083648165,34.60314083648165 0 0,0 -0.29258872752501786,0.5169762462263189 l -11.780665535650607 -6.801570418240822" fill="#ff920d" stroke="none" /><path d="M 117.62189284568427 111.42229804090321 l 12.242342207111703 7.935338310867412 a35.58919246647835,35.58919246647835 0 0,0 -0.3367001324588492,0.5098069146466948 l -12.104317635732126 -8.144325103853168" fill="#ffa00e" stroke="none" /><path d="M 116.1254893667686 113.45245675266167 l 18.013723148187385 15.02768853048283 a44.45902053003806,44.45902053003806 0 0,0 -0.49393005670508033,0.5818483648291227 l -17.75309852797519 -15.334703677761508" fill="#ebff1a" stroke="none" /><path d="M 115.6541949942343 113.99807769240083 l 17.47341678035746 15.62483703143037 a44.44047410439549,44.44047410439549 0 0,0 -0.5133981520668213,0.5643145032402194 l -17.20262092744876 -15.922489110228263" fill="#ebff1a" stroke="none" /><path d="M 115.16444852881244 114.52719865689866 l 16.82375928295869 16.116780824242966 a44.29784325957286,44.29784325957286 0 0,0 -0.5307581926029182,0.5446046628553262 l -16.544614289204965 -16.40320817916603" fill="#edff1a" stroke="none" /><path d="M 113.31354834802062 116.24036423190432 l 15.052384417123529 18.361461505419875 a44.742736684213114,44.742736684213114 0 0,0 -0.5981661360138387,0.48184029721367944 l -14.734967510754439 -18.617150096426958" fill="#e7ff1a" stroke="none" /><path d="M 111.5731344415666 117.5232005979908 l 25.93265822840507 39.26534980388299 a68.05603529848811,68.05603529848811 0 0,0 -0.980377547115084,0.6354688814545082 l -25.25479504903298 -39.704732527041394" fill="#38ff84" stroke="none" /><line stroke="#e1ed5e" stroke-width="0.3" x1="143.1302829299769" x2="145.66735839644613" y1="173.24464959558577" y2="177.55315839532614" /><path d="M 143.63769802327073 174.10635135553383 a86.0,86.0 0 0,1 -40.68552437913181,11.842963189579606" fill="none" id="id138" stroke="none" /><text fill="#e1ed5e" style="font-size:6.75px; font-family:Arial;" text-anchor="middle"><textPath startOffset="21.407464694133747" xlink:href="#id138">June</textPath></text><path d="M 110.34350942703117 118.27599006163325 l 11.469543931134607 20.26558513584179 a44.286141348155525,44.286141348155525 0 0,0 -0.6648315925784154,0.3687708773460792 l -11.119968150400098 -20.459488928621013" fill="#edff1a" stroke="none" /><path d="M 110.02825361518725 118.45085714620011 l 11.241219000172636 20.682576835434656 a44.540050746833586,44.540050746833586 0 0,0 -0.6749115377655671,0.3593523793166228 l -10.884518646620515 -20.872499682473848" fill="#eaff1a" stroke="none" /><path d="M 107.06938296918513 119.77432235084164 l 8.04055660539582 22.490867857681398 a44.88492594747282,44.88492594747282 0 0,0 -0.7277646765381489,0.2531543325362584 l -7.653286156812648 -22.625580622786245" fill="#e5ff1a" stroke="none" /><path d="M 106.38641147887787 120.00534299687104 l 7.0848168219688965 22.193087786819664 a44.2965185148841,44.2965185148841 0 0,0 -0.7263771943702793,0.22503351159304716 l -6.702798994726993 -22.311437886219355" fill="#edff1a" stroke="none" /><path d="M 106.0420521117495 120.11202640906438 l 6.772867301218873 22.544672490049187 a44.540050746833586,44.540050746833586 0 0,0 -0.7341472673348373,0.21369956994425307 l -6.384860021502429 -22.65761575429596" fill="#eaff1a" stroke="none" /><path d="M 105.3480935250658 120.30758222061773 l 6.021454970024114 22.86444530530295 a44.64404320490085,44.64404320490085 0 0,0 -0.7427805897528108,0.18881192129425994 l -5.628069087045906 -22.96444245843248" fill="#e8ff1a" stroke="none" /><path d="M 103.2317021107853 120.74984581791261 l 1.7536529590364889 11.25970998276542 a32.39545381267129,32.39545381267129 0 0,0 -0.550221193686935,0.0808635675645646 l -1.5601066597418682 -11.288154623628866" fill="#ff730a" stroke="none" /><path d="M 102.15924093988457 120.88869738790638 l 2.4307181659054904 23.514993285372324 a44.640289761616046,44.640289761616046 0 0,0 -0.762924737431592,0.072249765844631 l -2.026693865088883 -23.553254806722137" fill="#e8ff1a" stroke="none" /><path d="M 101.44090949804482 120.95050786540614 l 1.6378883679823435 23.81453740337828 a44.870795337459434,44.870795337459434 0 0,0 -0.7689051964996679,0.04625542726138287 l -1.2288388193502104 -23.839144808464358" fill="#e5ff1a" stroke="none" /><path d="M 101.08105385017728 120.97215588758144 l 1.3883952115810596 26.93449619190997 a47.97025632758343,47.97025632758343 0 0,0 -0.8227452660271716,0.03533222177820228 l -0.9258241849530583 -26.954360982114004" fill="#c0ff1e" stroke="none" /><path d="M 100.72087961077811 120.9876233191556 l 0.995371086962254 28.979143151785472 a49.99623253825288,49.99623253825288 0 0,0 -0.8579988834956856,0.022099007707282632 l -0.49775888939582447 -28.9919598768428" fill="#a8ff21" stroke="none" /><line stroke="#e1ed5e" stroke-width="0.3" x1="101.45913802915013" x2="101.54496967792366" y1="184.9874750549273" y2="189.98673829345242" /><path d="M 101.47630435890484 185.9873277026323 a86.0,86.0 0 0,1 -42.54439059252881,-10.42667462771756" fill="none" id="id139" stroke="none" /><text fill="#e1ed5e" style="font-size:6.75px; font-family:Arial;" text-anchor="middle"><textPath startOffset="22.145653131862474" xlink:href="#id139">July</textPath></text><path d="M 98.91894614982273 120.97215588758144 l -1.2101985227795582 23.477528034789277 a44.50869845586638,44.50869845586638 0 0,0 -0.7627003104084468,-0.04588215672222399 l 1.6130431853204512 -23.45329390024236" fill="#eaff1a" stroke="none" /><path d="M 96.05791012581884 120.62667999033965 l -4.395238588594051 22.997745546568204 a44.41397921062039,44.41397921062039 0 0,0 -0.7476427496432987,-0.14954948888505215 l 4.789377823768308 -22.91890666102029" fill="#ebff1a" stroke="none" /><path d="M 94.6519064749342 120.30758222061772 l -6.028033767195538 22.88942606972773 a44.66987572633158,44.66987572633158 0 0,0 -0.7398577902644723,-0.20165153073803396 l 6.420072958394706 -22.78257404484555" fill="#e8ff1a" stroke="none" /><path d="M 93.95794788825049 120.11202640906438 l -3.8540109578927177 12.828749029693139 a34.395155920347094,34.395155920347094 0 0,0 -0.5640140059529622,-0.17473298078595073 l 4.073665596717314 -12.760699461100538" fill="#ff8f0d" stroke="none" /><path d="M 92.25597844496254 119.51999308798841 l -2.7397646860251066 6.905996755540552 a28.429609796101467,28.429609796101467 0 0,0 -0.4520924457859345,-0.18386206194232357 l 2.857911593001482 -6.857947437018937" fill="#ff3a05" stroke="none" /><path d="M 91.59046798132341 119.24265499422711 l -3.0532880569811103 6.986520599243471 a28.624568056129924,28.624568056129924 0 0,0 -0.44856960458662304,-0.20063947855656714 l 3.1727710644233684 -6.93307736977705" fill="#ff3d05" stroke="none" /><path d="M 91.26138138417905 119.09545874513695 l -4.8438207884477 10.584622593230124 a32.640310789309524,32.640310789309524 0 0,0 -0.5074966597834161,-0.23753406178721342 l 5.024806162102607 -10.499912299872385" fill="#ff770a" stroke="none" /><path d="M 90.93487009805054 118.94263497670748 l -10.02073358011619 20.939479131584797 a44.213721971836904,44.213721971836904 0 0,0 -0.6818171763121823,-0.33351094722870384 l 10.378711005690441 -20.764374434258873" fill="#eeff19" stroke="none" /><path d="M 90.6110303473126 118.78422872680471 l -12.390999726821518 24.790299855295483 a48.71454205188233,48.71454205188233 0 0,0 -0.7448053980737327,-0.3803029432050164 l 12.814732346608832 -24.573938960417628" fill="#b7ff1f" stroke="none" /><path d="M 90.28995756902619 118.62028667847754 l -14.555263016260321 27.911636017045517 a52.47880408497991,52.47880408497991 0 0,0 -0.7952067806660226,-0.4234028205046126 l 15.032258612712905 -27.657662728818334" fill="#8bff24" stroke="none" /><path d="M 89.97174638481275 118.45085714620012 l -16.09525954089266 29.61346470837931 a54.70481674365139,54.70481674365139 0 0,0 -0.8212386387757834,-0.45552722932029566 l 16.601242367824547 -29.332804563625867" fill="#73ff27" stroke="none" /><line stroke="#e1ed5e" stroke-width="0.3" x1="58.13341422392154" x2="55.67067388415222" y1="173.97424548756322" y2="178.32567169271397" /><path d="M 57.64086615596768 174.84453072859336 a86.0,86.0 0 0,1 -31.369924170532247,-30.572349798747897" fill="none" id="id140" stroke="none" /><text fill="#e1ed5e" style="font-size:6.75px; font-family:Arial;" text-anchor="middle"><textPath startOffset="22.145653131862474" xlink:href="#id140">August</textPath></text><path d="M 89.34428304082925 118.09573695890944 l -3.763734356202201 6.3916437677550375 a28.41746630312121,28.41746630312121 0 0,0 -0.4182337131394224,-0.2511373279096 l 3.8729008258990505 -6.3260924393095195" fill="#ff3a05" stroke="none" /><path d="M 88.72937992617639 117.7192867562869 l -14.364275687243527 22.583027223122382 a47.76425852848201,47.76425852848201 0 0,0 -0.6880654509264985,-0.4459957123196201 l 14.749826770427035 -22.33311766909887" fill="#c2ff1e" stroke="none" /><path d="M 87.54013794807813 116.9041958592261 l -7.421080179078728 10.068120522635958 a33.50757697888118,33.50757697888118 0 0,0 -0.46008617479537156,-0.34525724289124815 l 7.592819342784866 -9.939244252480695" fill="#ff830c" stroke="none" /><path d="M 87.2517909369889 116.68781488649013 l -6.981496123973563 9.139002535317744 a32.50055022464586,32.50055022464586 0 0,0 -0.440444447038929,-0.3424922660218916 l 7.137350515647721 -9.017809217675058" fill="#ff750a" stroke="none" /><path d="M 85.34317274990678 115.03919595460226 l -8.030594296771978 8.240097205232264 a32.50606999418234,32.50606999418234 0 0,0 -0.3962769792062696,-0.39289001682999247 l 8.17086319610821 -8.101027178173613" fill="#ff750a" stroke="none" /><path d="M 81.99639281039703 110.81064883170644 l -9.858832789848686 5.9199458230302175 a32.49966706152002,32.49966706152002 0 0,0 -0.2830973103610274,-0.480761123976643 l 9.959003810339482 -5.749833530760016" fill="#ff750a" stroke="none" /><line stroke="#e1ed5e" stroke-width="0.3" x1="26.387840678322732" x2="22.057713659400548" y1="142.50000000000003" y2="145.00000000000006" /><path d="M 25.521815274538298 143.00000000000003 a86.0,86.0 0 0,1 -11.493303480769221,-40.785679425670985" fill="none" id="id141" stroke="none" /><text fill="#e1ed5e" style="font-size:6.75px; font-family:Arial;" text-anchor="middle"><textPath startOffset="21.40746469413373" xlink:href="#id141">September</textPath></text><path d="M 81.4637452351635 109.86951160357371 l -6.442780627929647 3.4304177933104976 a28.29912244425909,28.29912244425909 0 0,0 -0.2246302555499001,-0.4307581336263382 l 6.500718952454497 -3.3193134165796567" fill="#ff3805" stroke="none" /><path d="M 80.83023694016515 108.57439118712176 l -20.465582018046145 9.153994524977943 a43.41953753092824,43.41953753092824 0 0,0 -0.2984909560932701,-0.6830057218693649 l 20.61970685615638 -8.801326733332727" fill="#f8ff18" stroke="none" /><path d="M 80.68587082218212 108.24405325689762 l -26.67959628123584 11.387933185599918 a50.008376031233134,50.008376031233134 0 0,0 -0.33023187201110066,-0.7924362761347726 l 26.871153997783424 -10.928264400023863" fill="#a8ff21" stroke="none" /><path d="M 80.41425534168474 107.57618678355246 l -22.065520213169354 8.535417239816264 a44.65883618725862,44.65883618725862 0 0,0 -0.2704396980750858,-0.7173734293131384 l 22.208790595058876 -8.15537553030898" fill="#e8ff1a" stroke="none" /><path d="M 79.2786578344484 103.40968896794605 l -11.667110973565931 1.9198186708438547 a32.82400871948356,32.82400871948356 0 0,0 -0.08671557265702114,-0.5567761820126275 l 11.69834803836122 -1.7192543068997774" fill="#ff790b" stroke="none" /><line stroke="#e1ed5e" stroke-width="0.3" x1="15.003131293944662" x2="10.003315487706104" y1="100.72959589197737" y2="100.7725132973878" /><path d="M 14.003168132696942 100.73817937305945 a86.0,86.0 0 0,1 10.791469493833604,-42.45332614584628" fill="none" id="id142" stroke="none" /><text fill="#e1ed5e" style="font-size:6.75px; font-family:Arial;" text-anchor="middle"><textPath startOffset="22.145653131862435" xlink:href="#id142">October</textPath></text><path d="M 79.83685265289637 94.1308016681162 l -13.253754902686495 -3.8579748898784096 a34.803839656828046,34.803839656828046 0 0,0 0.17190392034332455,-0.5722122421028888 l 13.18557466233954 4.084924735572022" fill="#ff950d" stroke="none" /><path d="M 79.94057633289273 93.78553927170692 l -13.151619487665247 -4.074405335661159 a34.768292341013115,34.768292341013115 0 0,0 0.1815157910831612,-0.5685956302654438 l 13.079738980804828 4.299569999617995" fill="#ff940d" stroke="none" /><path d="M 80.16572619554312 93.10060997987247 l -12.680775316731935 -4.411031910232088 a34.42606662975138,34.42606662975138 0 0,0 0.1989495996305956,-0.5564974385762789 l 12.603185547057397 4.628064305189288" fill="#ff900d" stroke="none" /><path d="M 80.41425534168474 92.42381321644754 l -13.123584235037992 -5.0764843088118115 a35.07121729317511,35.07121729317511 0 0,0 0.22201971892882974,-0.5596347257154468 l 13.03450584114303 5.30102005174084" fill="#ff990e" stroke="none" /><path d="M 80.5471966667186 92.08871423366112 l -20.892514485641886 -8.496803758381798 a43.55421990761833,43.55421990761833 0 0,0 0.28761165059816507,-0.6901632600905477 l 20.743576990507243 8.854199527913611" fill="#f6ff19" stroke="none" /><path d="M 80.83023694016515 91.42560881287825 l -11.555550209988558 -5.1686506282630225 a33.65881866418073,33.65881866418073 0 0,0 0.24044503305971487,-0.5254157906550905 l 11.465120712073798 5.366255401132784" fill="#ff850c" stroke="none" /><path d="M 80.9802524753101 91.09779779509293 l -20.540591434450697 -9.614033946585922 a43.67918748992423,43.67918748992423 0 0,0 0.3236851223281164,-0.6763774138894478 l 20.372527054162674 9.965223862540457" fill="#f4ff19" stroke="none" /><path d="M 81.1358732173502 90.77261029715801 l -10.330056066989316 -5.052948068075285 a32.49966706152002,32.49966706152002 0 0,0 0.24944281702691534,-0.49905272917256266 l 10.241793336750657 5.229532653411618" fill="#ff750a" stroke="none" /><path d="M 81.46374523516351 90.13048839642627 l -12.010322204465357 -6.394820089789354 a34.606673488984995,34.606673488984995 0 0,0 0.28369998930818696,-0.5219760265313342 l 11.89877686554182 6.600050949795308" fill="#ff920d" stroke="none" /><line stroke="#e1ed5e" stroke-width="0.3" x1="26.387840678322718" x2="22.05771365940052" y1="57.49999999999999" y2="54.99999999999999" /><path d="M 25.521815274538284 56.99999999999999 a86.0,86.0 0 0,1 29.574782752854787,-30.34633250058573" fill="none" id="id143" stroke="none" /><text fill="#e1ed5e" style="font-size:6.75px; font-family:Arial;" text-anchor="middle"><textPath startOffset="21.40746469413373" xlink:href="#id143">November</textPath></text><path d="M 81.99639281039701 89.18935116829357 l -10.055691443205626 -6.038153788162519 a32.72928947423757,32.72928947423757 0 0,0 0.2933667037935437,-0.47919246328303433 l 9.95055677495669 6.209883367570096" fill="#ff780b" stroke="none" /><path d="M 82.37810715431573 88.57770195909679 l -18.90868170427541 -12.256379032500055 a43.53346557416117,43.53346557416117 0 0,0 0.4118588427938856,-0.6236067814448315 l 18.695498422560792 12.579165692283947" fill="#f6ff19" stroke="none" /><path d="M 82.98947788004972 87.6856937992154 l -21.289830514956464 -15.41219546791593 a47.282934624900996,47.282934624900996 0 0,0 0.48160591544841197,-0.6533909193999559 l 21.022122579924233 15.77539269658475" fill="#c8ff1d" stroke="none" /><path d="M 83.2033758604659 87.39550010848427 l -18.02685862597518 -13.527690785237521 a43.53810218057181,43.53810218057181 0 0,0 0.4537251224744898,-0.5939407500912036 l 17.791981526146383 13.835152448569609" fill="#f6ff19" stroke="none" /><path d="M 83.42222388311158 87.10902102172516 l -9.064622333979518 -7.048705153780502 a32.48266617134767,32.48266617134767 0 0,0 0.3460696592759149,-0.4372477092912948 l 8.942286244062041 7.2032728069864795" fill="#ff740a" stroke="none" /><path d="M 83.64595745247003 86.82634096563983 l -17.456776072733337 -14.061943103853505 a43.416004878424886,43.416004878424886 0 0,0 0.47251742909119854,-0.5763944332319981 l 17.21281182440351 14.359539818783995" fill="#f8ff18" stroke="none" /><path d="M 83.8745106332314 86.54754324733833 l -17.141604636429495 -14.300136250004673 a43.32327275021203,43.32327275021203 0 0,0 0.4813121456804071,-0.5669844973693435 l 16.893597927241974 14.592287529823574" fill="#f9ff18" stroke="none" /><path d="M 84.10781606972428 86.27271002978789 l -16.98081785601 -14.667626026951021 a43.43852553813372,43.43852553813372 0 0,0 0.4922804036203786,-0.5601247326527093 l 16.72652638843103 14.956963037415031" fill="#f7ff18" stroke="none" /><path d="M 84.83555147118756 85.47280134310135 l -16.182026615086173 -15.502015445001314 a43.40916036419965,43.40916036419965 0 0,0 0.5201103665997177,-0.5336790553537737 l 15.913529447335653 15.777517192422819" fill="#f8ff18" stroke="none" /><path d="M 85.08716467003674 85.21462403516908 l -16.010583240408224 -15.873741470880965 a43.54582985792288,43.54582985792288 0 0,0 0.530861156584456,-0.5263239090058054 l 15.735730163693793 16.146245390115446" fill="#f6ff19" stroke="none" /><path d="M 85.34317274990677 84.96080404539775 l -15.576545240381655 -15.982907635370854 a43.31775298067555,43.31775298067555 0 0,0 0.5369906167314399,-0.5144248636095374 l 15.299882137784914 16.24794462928596" fill="#f9ff18" stroke="none" /><path d="M 85.60350026404147 84.71141617570332 l -15.303363477395415 -16.251641691310212 a43.32283116864911,43.32283116864911 0 0,0 0.5458062547436423,-0.5051901209764664 l 15.02212745133782 16.511949558419044" fill="#f9ff18" stroke="none" /><path d="M 86.40962598614128 83.9905735841838 l -14.444600783299023 -17.015703402294214 a43.319960888490144,43.319960888490144 0 0,0 0.5710512865255402,-0.4763912933624099 l 14.150375162611574 17.261156879568507" fill="#f9ff18" stroke="none" /><path d="M 86.96720088162412 83.53348406188908 l -20.771323336776337 -26.243888490418637 a54.46923297983444,54.46923297983444 0 0,0 0.7381620014003257,-0.5739992370218446 l 20.317751390740767 26.596588779061285" fill="#75ff27" stroke="none" /><path d="M 87.25179093698888 83.31218511350988 l -13.682327740121904 -17.910606220440503 a43.53876455291619,43.53876455291619 0 0,0 0.5978225059691366,-0.44861715360398297 l 13.372852245242015 18.142842401308485" fill="#f6ff19" stroke="none" /><path d="M 87.83215693770416 82.88440491214696 l -14.919933872883242 -20.986755466718705 a46.749724887677075,46.749724887677075 0 0,0 0.6580689601463491,-0.45938324239315503 l 14.557469821563126 21.239783524916984" fill="#ceff1d" stroke="none" /><path d="M 88.12776184653039 82.6780497279521 l -12.867867150569095 -18.774602733549123 a43.761100869845585,43.761100869845585 0 0,0 0.623290843196804,-0.41937789588933966 l 12.543680019275303 18.992730303495573" fill="#f3ff19" stroke="none" /><path d="M 88.4268655584334 82.4767994020092 l -12.605249169133709 -19.085953843675114 a43.87282100526393,43.87282100526393 0 0,0 0.6320075575003852,-0.40965966307306506 l 12.275755979376298 19.299527348452084" fill="#f2ff19" stroke="none" /><line stroke="#e1ed5e" stroke-width="0.3" x1="56.869717070023135" x2="54.33264160355391" y1="26.7553504044142" y2="22.446841604673864" /><path d="M 56.362301976729285 25.89364864446614 a86.0,86.0 0 0,1 42.16139366436587,-11.88097634709845" fill="none" id="id144" stroke="none" /><text fill="#e1ed5e" style="font-size:6.75px; font-family:Arial;" text-anchor="middle"><textPath startOffset="22.145653131862474" xlink:href="#id144">December</textPath></text></svg>